<mxfile host="Electron" modified="2020-07-28T19:22:52.876Z" agent="5.0 (Macintosh; Intel Mac OS X 10_14_6) AppleWebKit/537.36 (KHTML, like Gecko) draw.io/13.5.1 Chrome/83.0.4103.122 Electron/9.1.1 Safari/537.36" etag="bmKmDHcB9czQZCrxJiJB" version="13.5.1" type="device" pages="2">
  <diagram id="pNgccPxUqukRsGVhHA1t" name="UML Diagram">
    <mxGraphModel dx="2509" dy="2878" grid="1" gridSize="10" guides="1" tooltips="1" connect="1" arrows="1" fold="1" page="1" pageScale="1" pageWidth="827" pageHeight="1169" math="0" shadow="0">
      <root>
        <mxCell id="0" />
        <mxCell id="1" parent="0" />
        <mxCell id="BVCmBET8UrxRTKi6fJFU-47" value="" style="rounded=1;whiteSpace=wrap;html=1;fillColor=none;dashed=1;strokeColor=#FF8000;opacity=60;strokeWidth=4;shadow=0;comic=0;glass=0;perimeterSpacing=0;dashPattern=1 1;" parent="1" vertex="1">
          <mxGeometry x="1640" y="-1360" width="880" height="500" as="geometry" />
        </mxCell>
        <mxCell id="kVHrbFkbPjneuLtn_41Z-1" value="" style="rounded=1;whiteSpace=wrap;html=1;fillColor=none;dashed=1;strokeColor=#FF8000;opacity=60;strokeWidth=4;shadow=0;comic=0;glass=0;perimeterSpacing=0;dashPattern=1 1;" parent="1" vertex="1">
          <mxGeometry x="1360" y="-280" width="762.5" height="270" as="geometry" />
        </mxCell>
        <mxCell id="BVCmBET8UrxRTKi6fJFU-39" value="" style="rounded=1;whiteSpace=wrap;html=1;fillColor=none;dashed=1;strokeColor=#FF8000;opacity=60;strokeWidth=4;shadow=0;comic=0;glass=0;perimeterSpacing=0;dashPattern=1 1;" parent="1" vertex="1">
          <mxGeometry x="1510" y="-760" width="1010" height="130" as="geometry" />
        </mxCell>
        <mxCell id="kVHrbFkbPjneuLtn_41Z-12" value="" style="rounded=1;whiteSpace=wrap;html=1;fillColor=none;dashed=1;strokeColor=#FF8000;opacity=60;strokeWidth=4;shadow=0;comic=0;glass=0;perimeterSpacing=0;dashPattern=1 1;" parent="1" vertex="1">
          <mxGeometry x="1265" y="1010" width="975" height="220" as="geometry" />
        </mxCell>
        <mxCell id="kVHrbFkbPjneuLtn_41Z-18" value="" style="rounded=1;whiteSpace=wrap;html=1;fillColor=none;dashed=1;strokeColor=#FF8000;opacity=60;strokeWidth=4;shadow=0;comic=0;glass=0;perimeterSpacing=0;dashPattern=1 1;" parent="1" vertex="1">
          <mxGeometry x="-1120" y="640" width="1600" height="160" as="geometry" />
        </mxCell>
        <mxCell id="kVHrbFkbPjneuLtn_41Z-7" value="Gadgets (Logic)" style="text;html=1;strokeColor=none;fillColor=none;align=center;verticalAlign=middle;whiteSpace=wrap;rounded=0;shadow=0;glass=0;dashed=1;dashPattern=1 1;comic=0;opacity=60;fontSize=31;fontColor=#FF8000;" parent="1" vertex="1">
          <mxGeometry x="1375" y="790" width="740" height="40" as="geometry" />
        </mxCell>
        <mxCell id="kVHrbFkbPjneuLtn_41Z-8" value="" style="rounded=1;whiteSpace=wrap;html=1;fillColor=none;dashed=1;strokeColor=#FF8000;opacity=60;strokeWidth=4;shadow=0;comic=0;glass=0;perimeterSpacing=0;dashPattern=1 1;" parent="1" vertex="1">
          <mxGeometry x="1400" y="830" width="690" height="80" as="geometry" />
        </mxCell>
        <mxCell id="vfNDVRDWI49IqqNghzil-15" value="SH_Gadget" style="swimlane;fontStyle=0;childLayout=stackLayout;horizontal=1;startSize=26;fillColor=none;horizontalStack=0;resizeParent=1;resizeParentMax=0;resizeLast=0;collapsible=1;marginBottom=0;" parent="1" vertex="1">
          <mxGeometry x="1370" y="90" width="740" height="580" as="geometry" />
        </mxCell>
        <mxCell id="hCL2_98IulEtvZC8iI1a-57" value="- updateGadgetRemote: std::function&lt;void(const char *, const char *, const char *, int)&gt;" style="text;strokeColor=none;fillColor=none;align=left;verticalAlign=top;spacingLeft=4;spacingRight=4;overflow=hidden;rotatable=0;points=[[0,0.5],[1,0.5]];portConstraint=eastwest;" parent="vfNDVRDWI49IqqNghzil-15" vertex="1">
          <mxGeometry y="26" width="740" height="26" as="geometry" />
        </mxCell>
        <mxCell id="hCL2_98IulEtvZC8iI1a-55" value="- mapping_count: byte" style="text;strokeColor=none;fillColor=none;align=left;verticalAlign=top;spacingLeft=4;spacingRight=4;overflow=hidden;rotatable=0;points=[[0,0.5],[1,0.5]];portConstraint=eastwest;" parent="vfNDVRDWI49IqqNghzil-15" vertex="1">
          <mxGeometry y="52" width="740" height="26" as="geometry" />
        </mxCell>
        <mxCell id="hCL2_98IulEtvZC8iI1a-53" value="- mapping: Mapping_Reference * []" style="text;strokeColor=none;fillColor=none;align=left;verticalAlign=top;spacingLeft=4;spacingRight=4;overflow=hidden;rotatable=0;points=[[0,0.5],[1,0.5]];portConstraint=eastwest;" parent="vfNDVRDWI49IqqNghzil-15" vertex="1">
          <mxGeometry y="78" width="740" height="26" as="geometry" />
        </mxCell>
        <mxCell id="hCL2_98IulEtvZC8iI1a-54" value="- initialized: bool" style="text;strokeColor=none;fillColor=none;align=left;verticalAlign=top;spacingLeft=4;spacingRight=4;overflow=hidden;rotatable=0;points=[[0,0.5],[1,0.5]];portConstraint=eastwest;" parent="vfNDVRDWI49IqqNghzil-15" vertex="1">
          <mxGeometry y="104" width="740" height="26" as="geometry" />
        </mxCell>
        <mxCell id="hCL2_98IulEtvZC8iI1a-51" value="# name: char []" style="text;strokeColor=none;fillColor=none;align=left;verticalAlign=top;spacingLeft=4;spacingRight=4;overflow=hidden;rotatable=0;points=[[0,0.5],[1,0.5]];portConstraint=eastwest;" parent="vfNDVRDWI49IqqNghzil-15" vertex="1">
          <mxGeometry y="130" width="740" height="26" as="geometry" />
        </mxCell>
        <mxCell id="hCL2_98IulEtvZC8iI1a-56" value="# has_changed: bool" style="text;strokeColor=none;fillColor=none;align=left;verticalAlign=top;spacingLeft=4;spacingRight=4;overflow=hidden;rotatable=0;points=[[0,0.5],[1,0.5]];portConstraint=eastwest;" parent="vfNDVRDWI49IqqNghzil-15" vertex="1">
          <mxGeometry y="156" width="740" height="26" as="geometry" />
        </mxCell>
        <mxCell id="hCL2_98IulEtvZC8iI1a-52" value="# service: Gadget_Type" style="text;strokeColor=none;fillColor=none;align=left;verticalAlign=top;spacingLeft=4;spacingRight=4;overflow=hidden;rotatable=0;points=[[0,0.5],[1,0.5]];portConstraint=eastwest;" parent="vfNDVRDWI49IqqNghzil-15" vertex="1">
          <mxGeometry y="182" width="740" height="26" as="geometry" />
        </mxCell>
        <mxCell id="rAZSYZIJ4b-KAplYexjY-56" value="" style="line;strokeWidth=1;fillColor=none;align=left;verticalAlign=middle;spacingTop=-1;spacingLeft=3;spacingRight=3;rotatable=0;labelPosition=right;points=[];portConstraint=eastwest;" parent="vfNDVRDWI49IqqNghzil-15" vertex="1">
          <mxGeometry y="208" width="740" height="8" as="geometry" />
        </mxCell>
        <mxCell id="rAZSYZIJ4b-KAplYexjY-52" value="# updateRemoteCharacteristic(characteristic: const char *, value: int): void" style="text;strokeColor=none;fillColor=none;align=left;verticalAlign=top;spacingLeft=4;spacingRight=4;overflow=hidden;rotatable=0;points=[[0,0.5],[1,0.5]];portConstraint=eastwest;" parent="vfNDVRDWI49IqqNghzil-15" vertex="1">
          <mxGeometry y="216" width="740" height="26" as="geometry" />
        </mxCell>
        <mxCell id="hCL2_98IulEtvZC8iI1a-70" value="# findMethodForCode(code unsigned long): const char *" style="text;strokeColor=none;fillColor=none;align=left;verticalAlign=top;spacingLeft=4;spacingRight=4;overflow=hidden;rotatable=0;points=[[0,0.5],[1,0.5]];portConstraint=eastwest;" parent="vfNDVRDWI49IqqNghzil-15" vertex="1">
          <mxGeometry y="242" width="740" height="26" as="geometry" />
        </mxCell>
        <mxCell id="hCL2_98IulEtvZC8iI1a-69" value="+ SH_Gadget(gadget: JsonObject, gadget_type: Gadget_Type)" style="text;strokeColor=none;fillColor=none;align=left;verticalAlign=top;spacingLeft=4;spacingRight=4;overflow=hidden;rotatable=0;points=[[0,0.5],[1,0.5]];portConstraint=eastwest;" parent="vfNDVRDWI49IqqNghzil-15" vertex="1">
          <mxGeometry y="268" width="740" height="26" as="geometry" />
        </mxCell>
        <mxCell id="hCL2_98IulEtvZC8iI1a-66" value="+ getType(): Gadget_Type" style="text;strokeColor=none;fillColor=none;align=left;verticalAlign=top;spacingLeft=4;spacingRight=4;overflow=hidden;rotatable=0;points=[[0,0.5],[1,0.5]];portConstraint=eastwest;" parent="vfNDVRDWI49IqqNghzil-15" vertex="1">
          <mxGeometry y="294" width="740" height="26" as="geometry" />
        </mxCell>
        <mxCell id="hCL2_98IulEtvZC8iI1a-67" value="+ getName(): const char *" style="text;strokeColor=none;fillColor=none;align=left;verticalAlign=top;spacingLeft=4;spacingRight=4;overflow=hidden;rotatable=0;points=[[0,0.5],[1,0.5]];portConstraint=eastwest;" parent="vfNDVRDWI49IqqNghzil-15" vertex="1">
          <mxGeometry y="320" width="740" height="26" as="geometry" />
        </mxCell>
        <mxCell id="hCL2_98IulEtvZC8iI1a-68" value="+ initRemoteUpdates(update_method_int: std::function&lt;void()&gt; update_method_bool, std::function&lt;void()&gt;): void" style="text;strokeColor=none;fillColor=none;align=left;verticalAlign=top;spacingLeft=4;spacingRight=4;overflow=hidden;rotatable=0;points=[[0,0.5],[1,0.5]];portConstraint=eastwest;" parent="vfNDVRDWI49IqqNghzil-15" vertex="1">
          <mxGeometry y="346" width="740" height="26" as="geometry" />
        </mxCell>
        <mxCell id="hCL2_98IulEtvZC8iI1a-65" value="+ printMapping(): void" style="text;strokeColor=none;fillColor=none;align=left;verticalAlign=top;spacingLeft=4;spacingRight=4;overflow=hidden;rotatable=0;points=[[0,0.5],[1,0.5]];portConstraint=eastwest;" parent="vfNDVRDWI49IqqNghzil-15" vertex="1">
          <mxGeometry y="372" width="740" height="26" as="geometry" />
        </mxCell>
        <mxCell id="hCL2_98IulEtvZC8iI1a-64" value="+ virtual print(): void" style="text;strokeColor=none;fillColor=none;align=left;verticalAlign=top;spacingLeft=4;spacingRight=4;overflow=hidden;rotatable=0;points=[[0,0.5],[1,0.5]];portConstraint=eastwest;fontStyle=2" parent="vfNDVRDWI49IqqNghzil-15" vertex="1">
          <mxGeometry y="398" width="740" height="26" as="geometry" />
        </mxCell>
        <mxCell id="hCL2_98IulEtvZC8iI1a-61" value="+ handleCodeUpdate(command: unsinged long): void" style="text;strokeColor=none;fillColor=none;align=left;verticalAlign=top;spacingLeft=4;spacingRight=4;overflow=hidden;rotatable=0;points=[[0,0.5],[1,0.5]];portConstraint=eastwest;" parent="vfNDVRDWI49IqqNghzil-15" vertex="1">
          <mxGeometry y="424" width="740" height="26" as="geometry" />
        </mxCell>
        <mxCell id="rAZSYZIJ4b-KAplYexjY-51" value="+ getCharacteristics(caracteristic_str: const char *): bool" style="text;strokeColor=none;fillColor=none;align=left;verticalAlign=top;spacingLeft=4;spacingRight=4;overflow=hidden;rotatable=0;points=[[0,0.5],[1,0.5]];portConstraint=eastwest;" parent="vfNDVRDWI49IqqNghzil-15" vertex="1">
          <mxGeometry y="450" width="740" height="26" as="geometry" />
        </mxCell>
        <mxCell id="hCL2_98IulEtvZC8iI1a-63" value="+ virtual refresh(): void" style="text;strokeColor=none;fillColor=none;align=left;verticalAlign=top;spacingLeft=4;spacingRight=4;overflow=hidden;rotatable=0;points=[[0,0.5],[1,0.5]];portConstraint=eastwest;fontStyle=2" parent="vfNDVRDWI49IqqNghzil-15" vertex="1">
          <mxGeometry y="476" width="740" height="26" as="geometry" />
        </mxCell>
        <mxCell id="hCL2_98IulEtvZC8iI1a-60" value="+ virtual handleCharacteristicUpdate(characteristic: const char *, value: int): void" style="text;strokeColor=none;fillColor=none;align=left;verticalAlign=top;spacingLeft=4;spacingRight=4;overflow=hidden;rotatable=0;points=[[0,0.5],[1,0.5]];portConstraint=eastwest;fontStyle=2" parent="vfNDVRDWI49IqqNghzil-15" vertex="1">
          <mxGeometry y="502" width="740" height="26" as="geometry" />
        </mxCell>
        <mxCell id="hCL2_98IulEtvZC8iI1a-62" value="+ virtual handleCharacteristicUpdate(characteristic: const char *, value: bool): void" style="text;strokeColor=none;fillColor=none;align=left;verticalAlign=top;spacingLeft=4;spacingRight=4;overflow=hidden;rotatable=0;points=[[0,0.5],[1,0.5]];portConstraint=eastwest;fontStyle=2" parent="vfNDVRDWI49IqqNghzil-15" vertex="1">
          <mxGeometry y="528" width="740" height="26" as="geometry" />
        </mxCell>
        <mxCell id="hCL2_98IulEtvZC8iI1a-71" value="+ virtual handleMethodUpdate(command: const char *): void" style="text;strokeColor=none;fillColor=none;align=left;verticalAlign=top;spacingLeft=4;spacingRight=4;overflow=hidden;rotatable=0;points=[[0,0.5],[1,0.5]];portConstraint=eastwest;fontStyle=2" parent="vfNDVRDWI49IqqNghzil-15" vertex="1">
          <mxGeometry y="554" width="740" height="26" as="geometry" />
        </mxCell>
        <mxCell id="vfNDVRDWI49IqqNghzil-55" value="SH_Main" style="swimlane;fontStyle=1;align=center;verticalAlign=top;childLayout=stackLayout;horizontal=1;startSize=26;horizontalStack=0;resizeParent=1;resizeParentMax=0;resizeLast=0;collapsible=1;marginBottom=0;" parent="1" vertex="1">
          <mxGeometry x="440" y="-1240" width="680" height="860" as="geometry">
            <mxRectangle x="560" y="-990" width="80" height="26" as="alternateBounds" />
          </mxGeometry>
        </mxCell>
        <mxCell id="vfNDVRDWI49IqqNghzil-59" value="- gadgets: Gadget_Collection" style="text;strokeColor=none;fillColor=none;align=left;verticalAlign=top;spacingLeft=4;spacingRight=4;overflow=hidden;rotatable=0;points=[[0,0.5],[1,0.5]];portConstraint=eastwest;" parent="vfNDVRDWI49IqqNghzil-55" vertex="1">
          <mxGeometry y="26" width="680" height="26" as="geometry" />
        </mxCell>
        <mxCell id="FZHaBAz50RAus1CbGzk9-7" value="- storage: System_Storage" style="text;strokeColor=none;fillColor=none;align=left;verticalAlign=top;spacingLeft=4;spacingRight=4;overflow=hidden;rotatable=0;points=[[0,0.5],[1,0.5]];portConstraint=eastwest;" parent="vfNDVRDWI49IqqNghzil-55" vertex="1">
          <mxGeometry y="52" width="680" height="26" as="geometry" />
        </mxCell>
        <mxCell id="hCL2_98IulEtvZC8iI1a-14" value="" style="text;strokeColor=none;fillColor=none;align=left;verticalAlign=middle;spacingTop=-1;spacingLeft=4;spacingRight=4;rotatable=0;labelPosition=right;points=[];portConstraint=eastwest;" parent="vfNDVRDWI49IqqNghzil-55" vertex="1">
          <mxGeometry y="78" width="680" height="14" as="geometry" />
        </mxCell>
        <mxCell id="hCL2_98IulEtvZC8iI1a-16" value="- remotes: Remote * [5]" style="text;strokeColor=none;fillColor=none;align=left;verticalAlign=top;spacingLeft=4;spacingRight=4;overflow=hidden;rotatable=0;points=[[0,0.5],[1,0.5]];portConstraint=eastwest;" parent="vfNDVRDWI49IqqNghzil-55" vertex="1">
          <mxGeometry y="92" width="680" height="26" as="geometry" />
        </mxCell>
        <mxCell id="hCL2_98IulEtvZC8iI1a-17" value="- remote_count: byte" style="text;strokeColor=none;fillColor=none;align=left;verticalAlign=top;spacingLeft=4;spacingRight=4;overflow=hidden;rotatable=0;points=[[0,0.5],[1,0.5]];portConstraint=eastwest;" parent="vfNDVRDWI49IqqNghzil-55" vertex="1">
          <mxGeometry y="118" width="680" height="26" as="geometry" />
        </mxCell>
        <mxCell id="hCL2_98IulEtvZC8iI1a-15" value="" style="text;strokeColor=none;fillColor=none;align=left;verticalAlign=middle;spacingTop=-1;spacingLeft=4;spacingRight=4;rotatable=0;labelPosition=right;points=[];portConstraint=eastwest;" parent="vfNDVRDWI49IqqNghzil-55" vertex="1">
          <mxGeometry y="144" width="680" height="14" as="geometry" />
        </mxCell>
        <mxCell id="hCL2_98IulEtvZC8iI1a-1" value="- ir_gadget: IR_Gadget *" style="text;strokeColor=none;fillColor=none;align=left;verticalAlign=top;spacingLeft=4;spacingRight=4;overflow=hidden;rotatable=0;points=[[0,0.5],[1,0.5]];portConstraint=eastwest;" parent="vfNDVRDWI49IqqNghzil-55" vertex="1">
          <mxGeometry y="158" width="680" height="26" as="geometry" />
        </mxCell>
        <mxCell id="hCL2_98IulEtvZC8iI1a-2" value="- mqtt_gadget: MQTT_Gadget *" style="text;strokeColor=none;fillColor=none;align=left;verticalAlign=top;spacingLeft=4;spacingRight=4;overflow=hidden;rotatable=0;points=[[0,0.5],[1,0.5]];portConstraint=eastwest;" parent="vfNDVRDWI49IqqNghzil-55" vertex="1">
          <mxGeometry y="184" width="680" height="26" as="geometry" />
        </mxCell>
        <mxCell id="hCL2_98IulEtvZC8iI1a-8" value="- rest_gadget: REST_Gadget *" style="text;strokeColor=none;fillColor=none;align=left;verticalAlign=top;spacingLeft=4;spacingRight=4;overflow=hidden;rotatable=0;points=[[0,0.5],[1,0.5]];portConstraint=eastwest;" parent="vfNDVRDWI49IqqNghzil-55" vertex="1">
          <mxGeometry y="210" width="680" height="26" as="geometry" />
        </mxCell>
        <mxCell id="hCL2_98IulEtvZC8iI1a-7" value="- serial_gadget: Serial_Gadget *" style="text;strokeColor=none;fillColor=none;align=left;verticalAlign=top;spacingLeft=4;spacingRight=4;overflow=hidden;rotatable=0;points=[[0,0.5],[1,0.5]];portConstraint=eastwest;" parent="vfNDVRDWI49IqqNghzil-55" vertex="1">
          <mxGeometry y="236" width="680" height="26" as="geometry" />
        </mxCell>
        <mxCell id="hCL2_98IulEtvZC8iI1a-5" value="- radio_gadget: Radio_Gadget *" style="text;strokeColor=none;fillColor=none;align=left;verticalAlign=top;spacingLeft=4;spacingRight=4;overflow=hidden;rotatable=0;points=[[0,0.5],[1,0.5]];portConstraint=eastwest;" parent="vfNDVRDWI49IqqNghzil-55" vertex="1">
          <mxGeometry y="262" width="680" height="26" as="geometry" />
        </mxCell>
        <mxCell id="hCL2_98IulEtvZC8iI1a-18" value="" style="text;strokeColor=none;fillColor=none;align=left;verticalAlign=middle;spacingTop=-1;spacingLeft=4;spacingRight=4;rotatable=0;labelPosition=right;points=[];portConstraint=eastwest;" parent="vfNDVRDWI49IqqNghzil-55" vertex="1">
          <mxGeometry y="288" width="680" height="14" as="geometry" />
        </mxCell>
        <mxCell id="hCL2_98IulEtvZC8iI1a-6" value="- network_client: WiFiClient" style="text;strokeColor=none;fillColor=none;align=left;verticalAlign=top;spacingLeft=4;spacingRight=4;overflow=hidden;rotatable=0;points=[[0,0.5],[1,0.5]];portConstraint=eastwest;" parent="vfNDVRDWI49IqqNghzil-55" vertex="1">
          <mxGeometry y="302" width="680" height="26" as="geometry" />
        </mxCell>
        <mxCell id="vfNDVRDWI49IqqNghzil-57" value="" style="line;strokeWidth=1;fillColor=none;align=left;verticalAlign=middle;spacingTop=-1;spacingLeft=3;spacingRight=3;rotatable=0;labelPosition=right;points=[];portConstraint=eastwest;" parent="vfNDVRDWI49IqqNghzil-55" vertex="1">
          <mxGeometry y="328" width="680" height="8" as="geometry" />
        </mxCell>
        <mxCell id="rAZSYZIJ4b-KAplYexjY-68" value="+ init(): void" style="text;strokeColor=none;fillColor=none;align=left;verticalAlign=top;spacingLeft=4;spacingRight=4;overflow=hidden;rotatable=0;points=[[0,0.5],[1,0.5]];portConstraint=eastwest;" parent="vfNDVRDWI49IqqNghzil-55" vertex="1">
          <mxGeometry y="336" width="680" height="26" as="geometry" />
        </mxCell>
        <mxCell id="QbWpLy0Npgaifg9Qfp43-4" value="- initNetwork(json: JsonObject): bool" style="text;strokeColor=none;fillColor=none;align=left;verticalAlign=top;spacingLeft=4;spacingRight=4;overflow=hidden;rotatable=0;points=[[0,0.5],[1,0.5]];portConstraint=eastwest;" parent="vfNDVRDWI49IqqNghzil-55" vertex="1">
          <mxGeometry y="362" width="680" height="26" as="geometry" />
        </mxCell>
        <mxCell id="QbWpLy0Npgaifg9Qfp43-5" value="- initConnectors(connectors_json: JsonObject): bool" style="text;strokeColor=none;fillColor=none;align=left;verticalAlign=top;spacingLeft=4;spacingRight=4;overflow=hidden;rotatable=0;points=[[0,0.5],[1,0.5]];portConstraint=eastwest;" parent="vfNDVRDWI49IqqNghzil-55" vertex="1">
          <mxGeometry y="388" width="680" height="26" as="geometry" />
        </mxCell>
        <mxCell id="QbWpLy0Npgaifg9Qfp43-9" value="- initGadgets(gadget_json: JsonArray): bool" style="text;strokeColor=none;fillColor=none;align=left;verticalAlign=top;spacingLeft=4;spacingRight=4;overflow=hidden;rotatable=0;points=[[0,0.5],[1,0.5]];portConstraint=eastwest;" parent="vfNDVRDWI49IqqNghzil-55" vertex="1">
          <mxGeometry y="414" width="680" height="26" as="geometry" />
        </mxCell>
        <mxCell id="QbWpLy0Npgaifg9Qfp43-6" value="- mapConnectors(connectors_json: JsonObject): void" style="text;strokeColor=none;fillColor=none;align=left;verticalAlign=top;spacingLeft=4;spacingRight=4;overflow=hidden;rotatable=0;points=[[0,0.5],[1,0.5]];portConstraint=eastwest;" parent="vfNDVRDWI49IqqNghzil-55" vertex="1">
          <mxGeometry y="440" width="680" height="26" as="geometry" />
        </mxCell>
        <mxCell id="hCL2_98IulEtvZC8iI1a-28" value="- initGadgetRemote(json: JsonObject): void" style="text;strokeColor=none;fillColor=none;align=left;verticalAlign=top;spacingLeft=4;spacingRight=4;overflow=hidden;rotatable=0;points=[[0,0.5],[1,0.5]];portConstraint=eastwest;" parent="vfNDVRDWI49IqqNghzil-55" vertex="1">
          <mxGeometry y="466" width="680" height="26" as="geometry" />
        </mxCell>
        <mxCell id="hCL2_98IulEtvZC8iI1a-19" value="" style="text;strokeColor=none;fillColor=none;align=left;verticalAlign=middle;spacingTop=-1;spacingLeft=4;spacingRight=4;rotatable=0;labelPosition=right;points=[];portConstraint=eastwest;" parent="vfNDVRDWI49IqqNghzil-55" vertex="1">
          <mxGeometry y="492" width="680" height="14" as="geometry" />
        </mxCell>
        <mxCell id="rAZSYZIJ4b-KAplYexjY-67" value="+ refresh(): void" style="text;strokeColor=none;fillColor=none;align=left;verticalAlign=top;spacingLeft=4;spacingRight=4;overflow=hidden;rotatable=0;points=[[0,0.5],[1,0.5]];portConstraint=eastwest;" parent="vfNDVRDWI49IqqNghzil-55" vertex="1">
          <mxGeometry y="506" width="680" height="26" as="geometry" />
        </mxCell>
        <mxCell id="rAZSYZIJ4b-KAplYexjY-69" value="- refreshConnectors(): void" style="text;strokeColor=none;fillColor=none;align=left;verticalAlign=top;spacingLeft=4;spacingRight=4;overflow=hidden;rotatable=0;points=[[0,0.5],[1,0.5]];portConstraint=eastwest;" parent="vfNDVRDWI49IqqNghzil-55" vertex="1">
          <mxGeometry y="532" width="680" height="26" as="geometry" />
        </mxCell>
        <mxCell id="rAZSYZIJ4b-KAplYexjY-74" value="- handleRequestConnector(gadget: Request_Gadget *): void" style="text;strokeColor=none;fillColor=none;align=left;verticalAlign=top;spacingLeft=4;spacingRight=4;overflow=hidden;rotatable=0;points=[[0,0.5],[1,0.5]];portConstraint=eastwest;" parent="vfNDVRDWI49IqqNghzil-55" vertex="1">
          <mxGeometry y="558" width="680" height="26" as="geometry" />
        </mxCell>
        <mxCell id="hCL2_98IulEtvZC8iI1a-20" value="- handleCodeConnector(gadget: Code_Gadget *): void" style="text;strokeColor=none;fillColor=none;align=left;verticalAlign=top;spacingLeft=4;spacingRight=4;overflow=hidden;rotatable=0;points=[[0,0.5],[1,0.5]];portConstraint=eastwest;" parent="vfNDVRDWI49IqqNghzil-55" vertex="1">
          <mxGeometry y="584" width="680" height="26" as="geometry" />
        </mxCell>
        <mxCell id="hCL2_98IulEtvZC8iI1a-21" value="" style="text;strokeColor=none;fillColor=none;align=left;verticalAlign=middle;spacingTop=-1;spacingLeft=4;spacingRight=4;rotatable=0;labelPosition=right;points=[];portConstraint=eastwest;" parent="vfNDVRDWI49IqqNghzil-55" vertex="1">
          <mxGeometry y="610" width="680" height="14" as="geometry" />
        </mxCell>
        <mxCell id="rAZSYZIJ4b-KAplYexjY-73" value="- forwardCommand(code: unsigned long): void" style="text;strokeColor=none;fillColor=none;align=left;verticalAlign=top;spacingLeft=4;spacingRight=4;overflow=hidden;rotatable=0;points=[[0,0.5],[1,0.5]];portConstraint=eastwest;" parent="vfNDVRDWI49IqqNghzil-55" vertex="1">
          <mxGeometry y="624" width="680" height="26" as="geometry" />
        </mxCell>
        <mxCell id="hCL2_98IulEtvZC8iI1a-11" value="- handleRequest(path: const char *, type: REQ_TYPE, body: const char *): bool" style="text;strokeColor=none;fillColor=none;align=left;verticalAlign=top;spacingLeft=4;spacingRight=4;overflow=hidden;rotatable=0;points=[[0,0.5],[1,0.5]];portConstraint=eastwest;" parent="vfNDVRDWI49IqqNghzil-55" vertex="1">
          <mxGeometry y="650" width="680" height="26" as="geometry" />
        </mxCell>
        <mxCell id="hCL2_98IulEtvZC8iI1a-29" value="" style="text;strokeColor=none;fillColor=none;align=left;verticalAlign=middle;spacingTop=-1;spacingLeft=4;spacingRight=4;rotatable=0;labelPosition=right;points=[];portConstraint=eastwest;" parent="vfNDVRDWI49IqqNghzil-55" vertex="1">
          <mxGeometry y="676" width="680" height="14" as="geometry" />
        </mxCell>
        <mxCell id="hCL2_98IulEtvZC8iI1a-23" value="- updateGadgetRemote(gadget_name: const char *, service: const char *, characteristic: const char *, value: int): void" style="text;strokeColor=none;fillColor=none;align=left;verticalAlign=top;spacingLeft=4;spacingRight=4;overflow=hidden;rotatable=0;points=[[0,0.5],[1,0.5]];portConstraint=eastwest;" parent="vfNDVRDWI49IqqNghzil-55" vertex="1">
          <mxGeometry y="690" width="680" height="26" as="geometry" />
        </mxCell>
        <mxCell id="hCL2_98IulEtvZC8iI1a-25" value="- forwardRequestToRemotes(path: const char *, type: REQ_TYPE, body: const char *): void" style="text;strokeColor=none;fillColor=none;align=left;verticalAlign=top;spacingLeft=4;spacingRight=4;overflow=hidden;rotatable=0;points=[[0,0.5],[1,0.5]];portConstraint=eastwest;fontStyle=0" parent="vfNDVRDWI49IqqNghzil-55" vertex="1">
          <mxGeometry y="716" width="680" height="26" as="geometry" />
        </mxCell>
        <mxCell id="hCL2_98IulEtvZC8iI1a-26" value="- forwardRequestToRemotes(path: const char *, type: REQ_TYPE, body: JsonObject): void" style="text;strokeColor=none;fillColor=none;align=left;verticalAlign=top;spacingLeft=4;spacingRight=4;overflow=hidden;rotatable=0;points=[[0,0.5],[1,0.5]];portConstraint=eastwest;fontStyle=0" parent="vfNDVRDWI49IqqNghzil-55" vertex="1">
          <mxGeometry y="742" width="680" height="26" as="geometry" />
        </mxCell>
        <mxCell id="hCL2_98IulEtvZC8iI1a-27" value="- addRemote(new_remote: Remote *): void" style="text;strokeColor=none;fillColor=none;align=left;verticalAlign=top;spacingLeft=4;spacingRight=4;overflow=hidden;rotatable=0;points=[[0,0.5],[1,0.5]];portConstraint=eastwest;" parent="vfNDVRDWI49IqqNghzil-55" vertex="1">
          <mxGeometry y="768" width="680" height="26" as="geometry" />
        </mxCell>
        <mxCell id="hCL2_98IulEtvZC8iI1a-30" value="" style="text;strokeColor=none;fillColor=none;align=left;verticalAlign=middle;spacingTop=-1;spacingLeft=4;spacingRight=4;rotatable=0;labelPosition=right;points=[];portConstraint=eastwest;" parent="vfNDVRDWI49IqqNghzil-55" vertex="1">
          <mxGeometry y="794" width="680" height="14" as="geometry" />
        </mxCell>
        <mxCell id="QbWpLy0Npgaifg9Qfp43-8" value="- getGadgetForName(name: const char *): SH_Gadget *" style="text;strokeColor=none;fillColor=none;align=left;verticalAlign=top;spacingLeft=4;spacingRight=4;overflow=hidden;rotatable=0;points=[[0,0.5],[1,0.5]];portConstraint=eastwest;" parent="vfNDVRDWI49IqqNghzil-55" vertex="1">
          <mxGeometry y="808" width="680" height="26" as="geometry" />
        </mxCell>
        <mxCell id="QbWpLy0Npgaifg9Qfp43-2" value="- testStuff(): void" style="text;strokeColor=none;fillColor=none;align=left;verticalAlign=top;spacingLeft=4;spacingRight=4;overflow=hidden;rotatable=0;points=[[0,0.5],[1,0.5]];portConstraint=eastwest;" parent="vfNDVRDWI49IqqNghzil-55" vertex="1">
          <mxGeometry y="834" width="680" height="26" as="geometry" />
        </mxCell>
        <mxCell id="hCL2_98IulEtvZC8iI1a-31" value="SH_Lamp" style="swimlane;fontStyle=1;align=center;verticalAlign=top;childLayout=stackLayout;horizontal=1;startSize=26;horizontalStack=0;resizeParent=1;resizeParentMax=0;resizeLast=0;collapsible=1;marginBottom=0;" parent="1" vertex="1">
          <mxGeometry x="1425" y="850" width="160" height="34" as="geometry" />
        </mxCell>
        <mxCell id="hCL2_98IulEtvZC8iI1a-35" value="SH_Fan" style="swimlane;fontStyle=1;align=center;verticalAlign=top;childLayout=stackLayout;horizontal=1;startSize=26;horizontalStack=0;resizeParent=1;resizeParentMax=0;resizeLast=0;collapsible=1;marginBottom=0;" parent="1" vertex="1">
          <mxGeometry x="1665" y="850" width="160" height="34" as="geometry" />
        </mxCell>
        <mxCell id="hCL2_98IulEtvZC8iI1a-36" value="SH_Doorbell" style="swimlane;fontStyle=1;align=center;verticalAlign=top;childLayout=stackLayout;horizontal=1;startSize=26;horizontalStack=0;resizeParent=1;resizeParentMax=0;resizeLast=0;collapsible=1;marginBottom=0;" parent="1" vertex="1">
          <mxGeometry x="1905" y="850" width="160" height="34" as="geometry" />
        </mxCell>
        <mxCell id="hCL2_98IulEtvZC8iI1a-37" value="SH_Doorbell_Basic" style="swimlane;fontStyle=1;align=center;verticalAlign=top;childLayout=stackLayout;horizontal=1;startSize=26;horizontalStack=0;resizeParent=1;resizeParentMax=0;resizeLast=0;collapsible=1;marginBottom=0;" parent="1" vertex="1">
          <mxGeometry x="1905" y="1160" width="160" height="34" as="geometry" />
        </mxCell>
        <mxCell id="hCL2_98IulEtvZC8iI1a-38" value="SH_Fan_Westinghouse_IR" style="swimlane;fontStyle=1;align=center;verticalAlign=top;childLayout=stackLayout;horizontal=1;startSize=26;horizontalStack=0;resizeParent=1;resizeParentMax=0;resizeLast=0;collapsible=1;marginBottom=0;" parent="1" vertex="1">
          <mxGeometry x="1655" y="1050" width="180" height="34" as="geometry" />
        </mxCell>
        <mxCell id="hCL2_98IulEtvZC8iI1a-39" value="SH_Lamp_Basic" style="swimlane;fontStyle=1;align=center;verticalAlign=top;childLayout=stackLayout;horizontal=1;startSize=26;horizontalStack=0;resizeParent=1;resizeParentMax=0;resizeLast=0;collapsible=1;marginBottom=0;" parent="1" vertex="1">
          <mxGeometry x="1330" y="1110" width="160" height="34" as="geometry" />
        </mxCell>
        <mxCell id="hCL2_98IulEtvZC8iI1a-40" value="SH_Lamp_Westinghouse_IR" style="swimlane;fontStyle=1;align=center;verticalAlign=top;childLayout=stackLayout;horizontal=1;startSize=26;horizontalStack=0;resizeParent=1;resizeParentMax=0;resizeLast=0;collapsible=1;marginBottom=0;" parent="1" vertex="1">
          <mxGeometry x="1425" y="1170" width="200" height="34" as="geometry" />
        </mxCell>
        <mxCell id="kVHrbFkbPjneuLtn_41Z-3" value="Connectors" style="text;html=1;strokeColor=none;fillColor=none;align=center;verticalAlign=middle;whiteSpace=wrap;rounded=0;shadow=0;glass=0;dashed=1;dashPattern=1 1;comic=0;opacity=60;fontSize=31;fontColor=#FF8000;" parent="1" vertex="1">
          <mxGeometry x="1692.5" y="-320" width="120" height="40" as="geometry" />
        </mxCell>
        <mxCell id="kVHrbFkbPjneuLtn_41Z-11" value="Gadgets (Hardware Implementation)" style="text;html=1;strokeColor=none;fillColor=none;align=center;verticalAlign=middle;whiteSpace=wrap;rounded=0;shadow=0;glass=0;dashed=1;dashPattern=1 1;comic=0;opacity=60;fontSize=31;fontColor=#FF8000;" parent="1" vertex="1">
          <mxGeometry x="1382.5" y="970" width="740" height="40" as="geometry" />
        </mxCell>
        <mxCell id="kVHrbFkbPjneuLtn_41Z-17" value="Remote Implementations" style="text;html=1;strokeColor=none;fillColor=none;align=center;verticalAlign=middle;whiteSpace=wrap;rounded=0;shadow=0;glass=0;dashed=1;dashPattern=1 1;comic=0;opacity=60;fontSize=31;fontColor=#FF8000;" parent="1" vertex="1">
          <mxGeometry x="-200" y="564" width="492.5" height="40" as="geometry" />
        </mxCell>
        <mxCell id="JlUxxyfcepWND3y7CYic-1" value="Gadget_Collection" style="swimlane;fontStyle=1;align=center;verticalAlign=top;childLayout=stackLayout;horizontal=1;startSize=26;horizontalStack=0;resizeParent=1;resizeParentMax=0;resizeLast=0;collapsible=1;marginBottom=0;rounded=0;shadow=0;glass=0;comic=0;strokeColor=#000000;strokeWidth=1;fillColor=none;fontSize=12;fontColor=#000000;opacity=60;" parent="1" vertex="1">
          <mxGeometry x="910" y="230" width="320" height="190" as="geometry" />
        </mxCell>
        <mxCell id="JlUxxyfcepWND3y7CYic-10" value="- gadgets: SH_Gadget * []" style="text;strokeColor=none;fillColor=none;align=left;verticalAlign=top;spacingLeft=4;spacingRight=4;overflow=hidden;rotatable=0;points=[[0,0.5],[1,0.5]];portConstraint=eastwest;" parent="JlUxxyfcepWND3y7CYic-1" vertex="1">
          <mxGeometry y="26" width="320" height="26" as="geometry" />
        </mxCell>
        <mxCell id="JlUxxyfcepWND3y7CYic-11" value="- gadget_count: byte" style="text;strokeColor=none;fillColor=none;align=left;verticalAlign=top;spacingLeft=4;spacingRight=4;overflow=hidden;rotatable=0;points=[[0,0.5],[1,0.5]];portConstraint=eastwest;" parent="JlUxxyfcepWND3y7CYic-1" vertex="1">
          <mxGeometry y="52" width="320" height="26" as="geometry" />
        </mxCell>
        <mxCell id="JlUxxyfcepWND3y7CYic-3" value="" style="line;strokeWidth=1;fillColor=none;align=left;verticalAlign=middle;spacingTop=-1;spacingLeft=3;spacingRight=3;rotatable=0;labelPosition=right;points=[];portConstraint=eastwest;" parent="JlUxxyfcepWND3y7CYic-1" vertex="1">
          <mxGeometry y="78" width="320" height="8" as="geometry" />
        </mxCell>
        <mxCell id="JlUxxyfcepWND3y7CYic-12" value="+ addGadget(new_gadget: SH_Gadget *): bool" style="text;strokeColor=none;fillColor=none;align=left;verticalAlign=top;spacingLeft=4;spacingRight=4;overflow=hidden;rotatable=0;points=[[0,0.5],[1,0.5]];portConstraint=eastwest;" parent="JlUxxyfcepWND3y7CYic-1" vertex="1">
          <mxGeometry y="86" width="320" height="26" as="geometry" />
        </mxCell>
        <mxCell id="JlUxxyfcepWND3y7CYic-13" value="+ getGadget(gadget_name: const char *): SH_Gadget *" style="text;strokeColor=none;fillColor=none;align=left;verticalAlign=top;spacingLeft=4;spacingRight=4;overflow=hidden;rotatable=0;points=[[0,0.5],[1,0.5]];portConstraint=eastwest;" parent="JlUxxyfcepWND3y7CYic-1" vertex="1">
          <mxGeometry y="112" width="320" height="26" as="geometry" />
        </mxCell>
        <mxCell id="JlUxxyfcepWND3y7CYic-14" value="+ getGadget(index: byte): SH_Gadget *" style="text;strokeColor=none;fillColor=none;align=left;verticalAlign=top;spacingLeft=4;spacingRight=4;overflow=hidden;rotatable=0;points=[[0,0.5],[1,0.5]];portConstraint=eastwest;" parent="JlUxxyfcepWND3y7CYic-1" vertex="1">
          <mxGeometry y="138" width="320" height="26" as="geometry" />
        </mxCell>
        <mxCell id="JlUxxyfcepWND3y7CYic-15" value="+ getGadgetCount(): byte" style="text;strokeColor=none;fillColor=none;align=left;verticalAlign=top;spacingLeft=4;spacingRight=4;overflow=hidden;rotatable=0;points=[[0,0.5],[1,0.5]];portConstraint=eastwest;" parent="JlUxxyfcepWND3y7CYic-1" vertex="1">
          <mxGeometry y="164" width="320" height="26" as="geometry" />
        </mxCell>
        <mxCell id="ELOxUM6z527xkfsoKTL8-9" value="" style="endArrow=diamondThin;endFill=0;endSize=24;html=1;fontSize=12;fontColor=#000000;jumpStyle=none;comic=0;" parent="1" source="JlUxxyfcepWND3y7CYic-1" target="vfNDVRDWI49IqqNghzil-15" edge="1">
          <mxGeometry width="160" relative="1" as="geometry">
            <mxPoint x="1140" y="276.28999999999996" as="sourcePoint" />
            <mxPoint x="1300" y="276.28999999999996" as="targetPoint" />
          </mxGeometry>
        </mxCell>
        <mxCell id="ELOxUM6z527xkfsoKTL8-10" value="" style="endArrow=diamondThin;endFill=0;endSize=24;html=1;fontSize=12;fontColor=#000000;jumpStyle=none;comic=0;" parent="1" source="vfNDVRDWI49IqqNghzil-55" target="JlUxxyfcepWND3y7CYic-1" edge="1">
          <mxGeometry width="160" relative="1" as="geometry">
            <mxPoint x="630" y="489.9971604938272" as="sourcePoint" />
            <mxPoint x="910" y="542.1946913580249" as="targetPoint" />
          </mxGeometry>
        </mxCell>
        <mxCell id="ELOxUM6z527xkfsoKTL8-11" value="" style="endArrow=diamondThin;endFill=0;endSize=24;html=1;fontSize=12;fontColor=#000000;jumpStyle=none;comic=0;" parent="1" source="vfNDVRDWI49IqqNghzil-1" target="JlUxxyfcepWND3y7CYic-1" edge="1">
          <mxGeometry width="160" relative="1" as="geometry">
            <mxPoint x="529.9998802395207" y="210" as="sourcePoint" />
            <mxPoint x="717.4849101796408" y="-100" as="targetPoint" />
          </mxGeometry>
        </mxCell>
        <mxCell id="ELOxUM6z527xkfsoKTL8-12" value="" style="endArrow=diamondThin;endFill=0;endSize=24;html=1;fontSize=12;fontColor=#000000;jumpStyle=none;comic=0;" parent="1" source="vfNDVRDWI49IqqNghzil-55" target="vfNDVRDWI49IqqNghzil-1" edge="1">
          <mxGeometry width="160" relative="1" as="geometry">
            <mxPoint x="140.0000000000005" y="-430.0010736237606" as="sourcePoint" />
            <mxPoint x="519.06" y="-289.2714984970163" as="targetPoint" />
          </mxGeometry>
        </mxCell>
        <mxCell id="ELOxUM6z527xkfsoKTL8-18" value="Extends" style="endArrow=block;endSize=16;endFill=0;html=1;fontSize=12;fontColor=#000000;" parent="1" source="vfNDVRDWI49IqqNghzil-15" target="rAZSYZIJ4b-KAplYexjY-1" edge="1">
          <mxGeometry width="160" relative="1" as="geometry">
            <mxPoint x="1314.372605042017" y="63" as="sourcePoint" />
            <mxPoint x="1179.997030812325" y="-130" as="targetPoint" />
          </mxGeometry>
        </mxCell>
        <mxCell id="ELOxUM6z527xkfsoKTL8-19" value="Extends" style="endArrow=block;endSize=16;endFill=0;html=1;fontSize=12;fontColor=#000000;" parent="1" source="vfNDVRDWI49IqqNghzil-15" target="rAZSYZIJ4b-KAplYexjY-21" edge="1">
          <mxGeometry width="160" relative="1" as="geometry">
            <mxPoint x="1762.2934426229513" y="90" as="sourcePoint" />
            <mxPoint x="1717.7032786885247" y="-45.999999999999545" as="targetPoint" />
          </mxGeometry>
        </mxCell>
        <mxCell id="ELOxUM6z527xkfsoKTL8-20" value="Extends" style="endArrow=block;endSize=16;endFill=0;html=1;fontSize=12;fontColor=#000000;" parent="1" source="hCL2_98IulEtvZC8iI1a-37" target="hCL2_98IulEtvZC8iI1a-36" edge="1">
          <mxGeometry width="160" relative="1" as="geometry">
            <mxPoint x="2270" y="1090" as="sourcePoint" />
            <mxPoint x="2338.505066921606" y="742" as="targetPoint" />
          </mxGeometry>
        </mxCell>
        <mxCell id="ELOxUM6z527xkfsoKTL8-21" value="Extends" style="endArrow=block;endSize=16;endFill=0;html=1;fontSize=12;fontColor=#000000;" parent="1" source="hCL2_98IulEtvZC8iI1a-38" target="hCL2_98IulEtvZC8iI1a-35" edge="1">
          <mxGeometry width="160" relative="1" as="geometry">
            <mxPoint x="1995" y="1170" as="sourcePoint" />
            <mxPoint x="1995" y="894.0000000000005" as="targetPoint" />
          </mxGeometry>
        </mxCell>
        <mxCell id="ELOxUM6z527xkfsoKTL8-22" value="Extends" style="endArrow=block;endSize=16;endFill=0;html=1;fontSize=12;fontColor=#000000;" parent="1" source="hCL2_98IulEtvZC8iI1a-39" target="hCL2_98IulEtvZC8iI1a-31" edge="1">
          <mxGeometry width="160" relative="1" as="geometry">
            <mxPoint x="1470" y="1110" as="sourcePoint" />
            <mxPoint x="1470" y="944.0000000000005" as="targetPoint" />
          </mxGeometry>
        </mxCell>
        <mxCell id="ELOxUM6z527xkfsoKTL8-23" value="Extends" style="endArrow=block;endSize=16;endFill=0;html=1;fontSize=12;fontColor=#000000;" parent="1" source="hCL2_98IulEtvZC8iI1a-40" target="hCL2_98IulEtvZC8iI1a-31" edge="1">
          <mxGeometry width="160" relative="1" as="geometry">
            <mxPoint x="1426.211538461538" y="1120" as="sourcePoint" />
            <mxPoint x="1508.7884615384614" y="894.0000000000005" as="targetPoint" />
          </mxGeometry>
        </mxCell>
        <mxCell id="ELOxUM6z527xkfsoKTL8-24" value="Extends" style="endArrow=block;endSize=16;endFill=0;html=1;fontSize=12;fontColor=#000000;" parent="1" source="hCL2_98IulEtvZC8iI1a-36" target="vfNDVRDWI49IqqNghzil-15" edge="1">
          <mxGeometry width="160" relative="1" as="geometry">
            <mxPoint x="1890" y="936" as="sourcePoint" />
            <mxPoint x="1890" y="770" as="targetPoint" />
          </mxGeometry>
        </mxCell>
        <mxCell id="ELOxUM6z527xkfsoKTL8-25" value="Extends" style="endArrow=block;endSize=16;endFill=0;html=1;fontSize=12;fontColor=#000000;" parent="1" source="hCL2_98IulEtvZC8iI1a-35" target="vfNDVRDWI49IqqNghzil-15" edge="1">
          <mxGeometry width="160" relative="1" as="geometry">
            <mxPoint x="1898.025292841649" y="758" as="sourcePoint" />
            <mxPoint x="1829.9992624728848" y="630.0000000000005" as="targetPoint" />
          </mxGeometry>
        </mxCell>
        <mxCell id="ELOxUM6z527xkfsoKTL8-26" value="Extends" style="endArrow=block;endSize=16;endFill=0;html=1;fontSize=12;fontColor=#000000;" parent="1" source="hCL2_98IulEtvZC8iI1a-31" target="vfNDVRDWI49IqqNghzil-15" edge="1">
          <mxGeometry width="160" relative="1" as="geometry">
            <mxPoint x="1754.8156182212583" y="860" as="sourcePoint" />
            <mxPoint x="1753.427331887202" y="732.0000000000005" as="targetPoint" />
          </mxGeometry>
        </mxCell>
        <mxCell id="ELOxUM6z527xkfsoKTL8-27" value="Console_Logger" style="swimlane;fontStyle=1;align=center;verticalAlign=top;childLayout=stackLayout;horizontal=1;startSize=26;horizontalStack=0;resizeParent=1;resizeParentMax=0;resizeLast=0;collapsible=1;marginBottom=0;rounded=0;shadow=0;glass=0;comic=0;strokeColor=#000000;strokeWidth=1;fillColor=none;fontSize=12;fontColor=#000000;opacity=60;" parent="1" vertex="1">
          <mxGeometry x="1200" y="-1568" width="160" height="86" as="geometry" />
        </mxCell>
        <mxCell id="ELOxUM6z527xkfsoKTL8-28" value="+ field: type" style="text;strokeColor=none;fillColor=none;align=left;verticalAlign=top;spacingLeft=4;spacingRight=4;overflow=hidden;rotatable=0;points=[[0,0.5],[1,0.5]];portConstraint=eastwest;" parent="ELOxUM6z527xkfsoKTL8-27" vertex="1">
          <mxGeometry y="26" width="160" height="26" as="geometry" />
        </mxCell>
        <mxCell id="ELOxUM6z527xkfsoKTL8-29" value="" style="line;strokeWidth=1;fillColor=none;align=left;verticalAlign=middle;spacingTop=-1;spacingLeft=3;spacingRight=3;rotatable=0;labelPosition=right;points=[];portConstraint=eastwest;" parent="ELOxUM6z527xkfsoKTL8-27" vertex="1">
          <mxGeometry y="52" width="160" height="8" as="geometry" />
        </mxCell>
        <mxCell id="ELOxUM6z527xkfsoKTL8-30" value="+ method(type): type" style="text;strokeColor=none;fillColor=none;align=left;verticalAlign=top;spacingLeft=4;spacingRight=4;overflow=hidden;rotatable=0;points=[[0,0.5],[1,0.5]];portConstraint=eastwest;" parent="ELOxUM6z527xkfsoKTL8-27" vertex="1">
          <mxGeometry y="60" width="160" height="26" as="geometry" />
        </mxCell>
        <mxCell id="ELOxUM6z527xkfsoKTL8-32" style="edgeStyle=orthogonalEdgeStyle;rounded=0;comic=0;jumpStyle=none;orthogonalLoop=1;jettySize=auto;html=1;endArrow=classicThin;endFill=1;fontSize=12;fontColor=#000000;" parent="1" source="ELOxUM6z527xkfsoKTL8-31" target="ELOxUM6z527xkfsoKTL8-27" edge="1">
          <mxGeometry relative="1" as="geometry" />
        </mxCell>
        <mxCell id="ELOxUM6z527xkfsoKTL8-31" value="logger: Console_Logger" style="html=1;rounded=0;shadow=0;glass=0;comic=0;strokeColor=#000000;strokeWidth=1;fillColor=none;fontSize=12;fontColor=#000000;opacity=60;" parent="1" vertex="1">
          <mxGeometry x="1202.5" y="-1680" width="155" height="50" as="geometry" />
        </mxCell>
        <mxCell id="ELOxUM6z527xkfsoKTL8-33" value="Use" style="endArrow=open;endSize=12;dashed=1;html=1;fontSize=12;fontColor=#000000;" parent="1" source="ELOxUM6z527xkfsoKTL8-31" target="vfNDVRDWI49IqqNghzil-15" edge="1">
          <mxGeometry width="160" relative="1" as="geometry">
            <mxPoint x="700" y="690" as="sourcePoint" />
            <mxPoint x="-250" y="1250" as="targetPoint" />
          </mxGeometry>
        </mxCell>
        <mxCell id="ELOxUM6z527xkfsoKTL8-34" value="Use" style="endArrow=open;endSize=12;dashed=1;html=1;fontSize=12;fontColor=#000000;" parent="1" source="ELOxUM6z527xkfsoKTL8-31" target="JlUxxyfcepWND3y7CYic-1" edge="1">
          <mxGeometry width="160" relative="1" as="geometry">
            <mxPoint x="340.0036886993607" y="644.41" as="sourcePoint" />
            <mxPoint x="1068.17" y="350.00482758620694" as="targetPoint" />
          </mxGeometry>
        </mxCell>
        <mxCell id="ELOxUM6z527xkfsoKTL8-35" value="Use" style="endArrow=open;endSize=12;dashed=1;html=1;fontSize=12;fontColor=#000000;" parent="1" source="ELOxUM6z527xkfsoKTL8-31" target="vfNDVRDWI49IqqNghzil-1" edge="1">
          <mxGeometry x="0.0256" y="4" width="160" relative="1" as="geometry">
            <mxPoint x="280.0029032258068" y="760" as="sourcePoint" />
            <mxPoint x="562.2609677419356" y="260" as="targetPoint" />
            <Array as="points">
              <mxPoint x="420" y="-1260" />
              <mxPoint x="240" y="-690" />
            </Array>
            <mxPoint as="offset" />
          </mxGeometry>
        </mxCell>
        <mxCell id="ELOxUM6z527xkfsoKTL8-36" value="Use" style="endArrow=open;endSize=12;dashed=1;html=1;fontSize=12;fontColor=#000000;" parent="1" source="ELOxUM6z527xkfsoKTL8-31" target="vfNDVRDWI49IqqNghzil-55" edge="1">
          <mxGeometry width="160" relative="1" as="geometry">
            <mxPoint x="604.1129032258068" y="860" as="sourcePoint" />
            <mxPoint x="440" y="-580" as="targetPoint" />
          </mxGeometry>
        </mxCell>
        <mxCell id="BVCmBET8UrxRTKi6fJFU-60" style="edgeStyle=orthogonalEdgeStyle;rounded=0;orthogonalLoop=1;jettySize=auto;html=1;endArrow=none;endFill=0;" parent="1" source="BVCmBET8UrxRTKi6fJFU-13" edge="1">
          <mxGeometry relative="1" as="geometry">
            <mxPoint x="1630" y="-600" as="targetPoint" />
          </mxGeometry>
        </mxCell>
        <mxCell id="BVCmBET8UrxRTKi6fJFU-62" style="edgeStyle=orthogonalEdgeStyle;rounded=0;orthogonalLoop=1;jettySize=auto;html=1;endArrow=none;endFill=0;" parent="1" source="BVCmBET8UrxRTKi6fJFU-17" edge="1">
          <mxGeometry relative="1" as="geometry">
            <mxPoint x="1630" y="-600" as="targetPoint" />
            <Array as="points">
              <mxPoint x="1840" y="-600" />
            </Array>
          </mxGeometry>
        </mxCell>
        <mxCell id="BVCmBET8UrxRTKi6fJFU-63" style="edgeStyle=orthogonalEdgeStyle;rounded=0;orthogonalLoop=1;jettySize=auto;html=1;endArrow=none;endFill=0;" parent="1" source="BVCmBET8UrxRTKi6fJFU-21" edge="1">
          <mxGeometry relative="1" as="geometry">
            <mxPoint x="1840" y="-600" as="targetPoint" />
            <Array as="points">
              <mxPoint x="2050" y="-600" />
            </Array>
          </mxGeometry>
        </mxCell>
        <mxCell id="BVCmBET8UrxRTKi6fJFU-64" style="edgeStyle=orthogonalEdgeStyle;rounded=0;orthogonalLoop=1;jettySize=auto;html=1;endArrow=none;endFill=0;" parent="1" source="BVCmBET8UrxRTKi6fJFU-25" edge="1">
          <mxGeometry relative="1" as="geometry">
            <mxPoint x="2050" y="-600" as="targetPoint" />
            <Array as="points">
              <mxPoint x="2230" y="-600" />
            </Array>
          </mxGeometry>
        </mxCell>
        <mxCell id="BVCmBET8UrxRTKi6fJFU-65" style="edgeStyle=orthogonalEdgeStyle;rounded=0;orthogonalLoop=1;jettySize=auto;html=1;endArrow=none;endFill=0;" parent="1" source="BVCmBET8UrxRTKi6fJFU-29" edge="1">
          <mxGeometry relative="1" as="geometry">
            <mxPoint x="2230" y="-600" as="targetPoint" />
            <Array as="points">
              <mxPoint x="2420" y="-600" />
            </Array>
          </mxGeometry>
        </mxCell>
        <mxCell id="BVCmBET8UrxRTKi6fJFU-33" value="Extends" style="endArrow=block;endSize=16;endFill=0;html=1;" parent="1" source="BVCmBET8UrxRTKi6fJFU-13" target="BVCmBET8UrxRTKi6fJFU-1" edge="1">
          <mxGeometry width="160" relative="1" as="geometry">
            <mxPoint x="1570" y="-1070" as="sourcePoint" />
            <mxPoint x="1730" y="-1070" as="targetPoint" />
          </mxGeometry>
        </mxCell>
        <mxCell id="BVCmBET8UrxRTKi6fJFU-34" value="Extends" style="endArrow=block;endSize=16;endFill=0;html=1;" parent="1" source="BVCmBET8UrxRTKi6fJFU-17" target="BVCmBET8UrxRTKi6fJFU-1" edge="1">
          <mxGeometry width="160" relative="1" as="geometry">
            <mxPoint x="1621.2727272727275" y="-970" as="sourcePoint" />
            <mxPoint x="1718.727272727273" y="-1104" as="targetPoint" />
          </mxGeometry>
        </mxCell>
        <mxCell id="BVCmBET8UrxRTKi6fJFU-35" value="Extends" style="endArrow=block;endSize=16;endFill=0;html=1;" parent="1" source="BVCmBET8UrxRTKi6fJFU-21" target="BVCmBET8UrxRTKi6fJFU-1" edge="1">
          <mxGeometry width="160" relative="1" as="geometry">
            <mxPoint x="1890.4572727272725" y="-1006" as="sourcePoint" />
            <mxPoint x="1860.0027272727275" y="-1140" as="targetPoint" />
          </mxGeometry>
        </mxCell>
        <mxCell id="BVCmBET8UrxRTKi6fJFU-36" value="Extends" style="endArrow=block;endSize=16;endFill=0;html=1;" parent="1" source="BVCmBET8UrxRTKi6fJFU-21" target="BVCmBET8UrxRTKi6fJFU-5" edge="1">
          <mxGeometry width="160" relative="1" as="geometry">
            <mxPoint x="2056" y="-980" as="sourcePoint" />
            <mxPoint x="1902.5690909090908" y="-1150" as="targetPoint" />
          </mxGeometry>
        </mxCell>
        <mxCell id="BVCmBET8UrxRTKi6fJFU-37" value="Extends" style="endArrow=block;endSize=16;endFill=0;html=1;" parent="1" source="BVCmBET8UrxRTKi6fJFU-25" target="BVCmBET8UrxRTKi6fJFU-5" edge="1">
          <mxGeometry width="160" relative="1" as="geometry">
            <mxPoint x="2034.9486818181817" y="-970" as="sourcePoint" />
            <mxPoint x="2175.021318181818" y="-1104" as="targetPoint" />
          </mxGeometry>
        </mxCell>
        <mxCell id="BVCmBET8UrxRTKi6fJFU-38" value="Extends" style="endArrow=block;endSize=16;endFill=0;html=1;" parent="1" source="BVCmBET8UrxRTKi6fJFU-29" target="BVCmBET8UrxRTKi6fJFU-5" edge="1">
          <mxGeometry width="160" relative="1" as="geometry">
            <mxPoint x="2187.8123181818182" y="-970" as="sourcePoint" />
            <mxPoint x="2212.157681818182" y="-1104" as="targetPoint" />
          </mxGeometry>
        </mxCell>
        <mxCell id="BVCmBET8UrxRTKi6fJFU-48" value="Network Gadget Types" style="text;html=1;strokeColor=none;fillColor=none;align=center;verticalAlign=middle;whiteSpace=wrap;rounded=0;shadow=0;glass=0;dashed=1;dashPattern=1 1;comic=0;opacity=60;fontSize=31;fontColor=#FF8000;" parent="1" vertex="1">
          <mxGeometry x="1980" y="-1400" width="381.25" height="40" as="geometry" />
        </mxCell>
        <mxCell id="BVCmBET8UrxRTKi6fJFU-49" value="" style="endArrow=diamondThin;endFill=0;endSize=24;html=1;fontSize=12;fontColor=#000000;jumpStyle=none;comic=0;" parent="1" source="BVCmBET8UrxRTKi6fJFU-13" target="rAZSYZIJ4b-KAplYexjY-1" edge="1">
          <mxGeometry width="160" relative="1" as="geometry">
            <mxPoint x="500" y="-677.7139768375827" as="sourcePoint" />
            <mxPoint x="1300" y="-10" as="targetPoint" />
          </mxGeometry>
        </mxCell>
        <mxCell id="BVCmBET8UrxRTKi6fJFU-50" value="" style="endArrow=diamondThin;endFill=0;endSize=24;html=1;fontSize=12;fontColor=#000000;jumpStyle=none;comic=0;" parent="1" source="BVCmBET8UrxRTKi6fJFU-17" target="rAZSYZIJ4b-KAplYexjY-21" edge="1">
          <mxGeometry width="160" relative="1" as="geometry">
            <mxPoint x="-579.9999999999999" y="-560.5896860986545" as="sourcePoint" />
            <mxPoint x="1390" y="-168.79820627802656" as="targetPoint" />
          </mxGeometry>
        </mxCell>
        <mxCell id="BVCmBET8UrxRTKi6fJFU-66" value="" style="endArrow=diamondThin;endFill=0;endSize=24;html=1;fontSize=12;fontColor=#000000;jumpStyle=none;comic=0;entryX=1;entryY=0.5;entryDx=0;entryDy=0;" parent="1" target="hCL2_98IulEtvZC8iI1a-25" edge="1">
          <mxGeometry width="160" relative="1" as="geometry">
            <mxPoint x="1630" y="-600" as="sourcePoint" />
            <mxPoint x="1130" y="-474.99999999999955" as="targetPoint" />
          </mxGeometry>
        </mxCell>
        <mxCell id="BVCmBET8UrxRTKi6fJFU-68" value="Use" style="endArrow=open;endSize=12;dashed=1;html=1;fontSize=12;fontColor=#000000;entryX=0;entryY=0;entryDx=0;entryDy=0;" parent="1" source="ELOxUM6z527xkfsoKTL8-31" target="BVCmBET8UrxRTKi6fJFU-1" edge="1">
          <mxGeometry width="160" relative="1" as="geometry">
            <mxPoint x="593.7711552612218" y="534" as="sourcePoint" />
            <mxPoint x="1910" y="-1060" as="targetPoint" />
          </mxGeometry>
        </mxCell>
        <mxCell id="BVCmBET8UrxRTKi6fJFU-69" value="Use" style="endArrow=open;endSize=12;dashed=1;html=1;fontSize=12;fontColor=#000000;entryX=0;entryY=0;entryDx=0;entryDy=0;" parent="1" source="ELOxUM6z527xkfsoKTL8-31" target="BVCmBET8UrxRTKi6fJFU-5" edge="1">
          <mxGeometry width="160" relative="1" as="geometry">
            <mxPoint x="603.7711552612218" y="544" as="sourcePoint" />
            <mxPoint x="1720.8528442792626" y="-1104" as="targetPoint" />
          </mxGeometry>
        </mxCell>
        <mxCell id="FZHaBAz50RAus1CbGzk9-9" value="" style="endArrow=diamondThin;endFill=0;endSize=24;html=1;fontSize=12;fontColor=#000000;jumpStyle=none;comic=0;" parent="1" source="vfNDVRDWI49IqqNghzil-55" target="FZHaBAz50RAus1CbGzk9-1" edge="1">
          <mxGeometry width="160" relative="1" as="geometry">
            <mxPoint x="429.45" y="-1040.0021505376349" as="sourcePoint" />
            <mxPoint x="10.00382215288614" y="-750.9000000000004" as="targetPoint" />
          </mxGeometry>
        </mxCell>
        <mxCell id="ZFiH180SvxtKEt1jRk3j-49" value="" style="endArrow=diamondThin;endFill=0;endSize=24;html=1;" parent="1" source="ZFiH180SvxtKEt1jRk3j-39" target="ZFiH180SvxtKEt1jRk3j-1" edge="1">
          <mxGeometry width="160" relative="1" as="geometry">
            <mxPoint x="550" y="1576.58" as="sourcePoint" />
            <mxPoint x="630" y="1320" as="targetPoint" />
          </mxGeometry>
        </mxCell>
        <mxCell id="ZFiH180SvxtKEt1jRk3j-50" value="" style="endArrow=diamondThin;endFill=0;endSize=24;html=1;" parent="1" source="ZFiH180SvxtKEt1jRk3j-31" target="ZFiH180SvxtKEt1jRk3j-1" edge="1">
          <mxGeometry width="160" relative="1" as="geometry">
            <mxPoint x="568.3012820512822" y="1552.0000000000005" as="sourcePoint" />
            <mxPoint x="681.6987179487182" y="1430" as="targetPoint" />
          </mxGeometry>
        </mxCell>
        <mxCell id="ZFiH180SvxtKEt1jRk3j-51" value="" style="endArrow=diamondThin;endFill=0;endSize=24;html=1;" parent="1" source="ZFiH180SvxtKEt1jRk3j-7" target="ZFiH180SvxtKEt1jRk3j-1" edge="1">
          <mxGeometry width="160" relative="1" as="geometry">
            <mxPoint x="610" y="1184.1389655172418" as="sourcePoint" />
            <mxPoint x="720" y="1150.0010344827585" as="targetPoint" />
          </mxGeometry>
        </mxCell>
        <mxCell id="tup9LoGHmV5f9MwEpz5L-1" value="" style="rounded=1;whiteSpace=wrap;html=1;fillColor=none;dashed=1;strokeColor=#FF8000;opacity=60;strokeWidth=4;shadow=0;comic=0;glass=0;perimeterSpacing=0;dashPattern=1 1;" parent="1" vertex="1">
          <mxGeometry x="-1160" y="260" width="1720" height="260" as="geometry" />
        </mxCell>
        <mxCell id="tup9LoGHmV5f9MwEpz5L-2" value="Remote-Types" style="text;html=1;strokeColor=none;fillColor=none;align=center;verticalAlign=middle;whiteSpace=wrap;rounded=0;shadow=0;glass=0;dashed=1;dashPattern=1 1;comic=0;opacity=60;fontSize=31;fontColor=#FF8000;" parent="1" vertex="1">
          <mxGeometry x="-328.75" y="220" width="492.5" height="40" as="geometry" />
        </mxCell>
        <mxCell id="vfNDVRDWI49IqqNghzil-1" value="Remote" style="swimlane;fontStyle=2;childLayout=stackLayout;horizontal=1;startSize=26;fillColor=none;horizontalStack=0;resizeParent=1;resizeParentMax=0;resizeLast=0;collapsible=1;marginBottom=0;" parent="1" vertex="1">
          <mxGeometry x="-560" y="-350" width="705" height="424" as="geometry" />
        </mxCell>
        <mxCell id="Lzvt-awx7u4jwX_vymV8-1" value="- lock_updates: bool" style="text;strokeColor=none;fillColor=none;align=left;verticalAlign=top;spacingLeft=4;spacingRight=4;overflow=hidden;rotatable=0;points=[[0,0.5],[1,0.5]];portConstraint=eastwest;" parent="vfNDVRDWI49IqqNghzil-1" vertex="1">
          <mxGeometry y="26" width="705" height="26" as="geometry" />
        </mxCell>
        <mxCell id="tup9LoGHmV5f9MwEpz5L-15" value="- network_initialized: bool" style="text;strokeColor=none;fillColor=none;align=left;verticalAlign=top;spacingLeft=4;spacingRight=4;overflow=hidden;rotatable=0;points=[[0,0.5],[1,0.5]];portConstraint=eastwest;" parent="vfNDVRDWI49IqqNghzil-1" vertex="1">
          <mxGeometry y="52" width="705" height="26" as="geometry" />
        </mxCell>
        <mxCell id="tup9LoGHmV5f9MwEpz5L-17" value="# req_gadget: Request_Gadget" style="text;strokeColor=none;fillColor=none;align=left;verticalAlign=top;spacingLeft=4;spacingRight=4;overflow=hidden;rotatable=0;points=[[0,0.5],[1,0.5]];portConstraint=eastwest;" parent="vfNDVRDWI49IqqNghzil-1" vertex="1">
          <mxGeometry y="78" width="705" height="26" as="geometry" />
        </mxCell>
        <mxCell id="vfNDVRDWI49IqqNghzil-69" value="# gadgets: Gadget_Collection" style="text;strokeColor=none;fillColor=none;align=left;verticalAlign=top;spacingLeft=4;spacingRight=4;overflow=hidden;rotatable=0;points=[[0,0.5],[1,0.5]];portConstraint=eastwest;" parent="vfNDVRDWI49IqqNghzil-1" vertex="1">
          <mxGeometry y="104" width="705" height="26" as="geometry" />
        </mxCell>
        <mxCell id="tup9LoGHmV5f9MwEpz5L-16" value="" style="line;strokeWidth=1;fillColor=none;align=left;verticalAlign=middle;spacingTop=-1;spacingLeft=3;spacingRight=3;rotatable=0;labelPosition=right;points=[];portConstraint=eastwest;" parent="vfNDVRDWI49IqqNghzil-1" vertex="1">
          <mxGeometry y="130" width="705" height="8" as="geometry" />
        </mxCell>
        <mxCell id="tup9LoGHmV5f9MwEpz5L-19" value="# updatesAreLocked(): bool" style="text;strokeColor=none;fillColor=none;align=left;verticalAlign=top;spacingLeft=4;spacingRight=4;overflow=hidden;rotatable=0;points=[[0,0.5],[1,0.5]];portConstraint=eastwest;" parent="vfNDVRDWI49IqqNghzil-1" vertex="1">
          <mxGeometry y="138" width="705" height="26" as="geometry" />
        </mxCell>
        <mxCell id="tup9LoGHmV5f9MwEpz5L-20" value="# lockUpdates(): void" style="text;strokeColor=none;fillColor=none;align=left;verticalAlign=top;spacingLeft=4;spacingRight=4;overflow=hidden;rotatable=0;points=[[0,0.5],[1,0.5]];portConstraint=eastwest;" parent="vfNDVRDWI49IqqNghzil-1" vertex="1">
          <mxGeometry y="164" width="705" height="26" as="geometry" />
        </mxCell>
        <mxCell id="tup9LoGHmV5f9MwEpz5L-21" value="# unlockUpdates(): void&#xa;" style="text;strokeColor=none;fillColor=none;align=left;verticalAlign=top;spacingLeft=4;spacingRight=4;overflow=hidden;rotatable=0;points=[[0,0.5],[1,0.5]];portConstraint=eastwest;" parent="vfNDVRDWI49IqqNghzil-1" vertex="1">
          <mxGeometry y="190" width="705" height="26" as="geometry" />
        </mxCell>
        <mxCell id="vfNDVRDWI49IqqNghzil-36" value="# virtual handleRequest(path: const char *, body: const char *): void" style="text;strokeColor=none;fillColor=none;align=left;verticalAlign=top;spacingLeft=4;spacingRight=4;overflow=hidden;rotatable=0;points=[[0,0.5],[1,0.5]];portConstraint=eastwest;fontStyle=2" parent="vfNDVRDWI49IqqNghzil-1" vertex="1">
          <mxGeometry y="216" width="705" height="26" as="geometry" />
        </mxCell>
        <mxCell id="vfNDVRDWI49IqqNghzil-37" value="# virtual handleRequest(path: const char *, body: const JsonObject&amp;): void" style="text;strokeColor=none;fillColor=none;align=left;verticalAlign=top;spacingLeft=4;spacingRight=4;overflow=hidden;rotatable=0;points=[[0,0.5],[1,0.5]];portConstraint=eastwest;fontStyle=2" parent="vfNDVRDWI49IqqNghzil-1" vertex="1">
          <mxGeometry y="242" width="705" height="26" as="geometry" />
        </mxCell>
        <mxCell id="TxLPmFs_sCvqqsQRuhD0-2" value="# handleNewGadget(new_gadget: SH_Gadget *): bool" style="text;strokeColor=none;fillColor=none;align=left;verticalAlign=top;spacingLeft=4;spacingRight=4;overflow=hidden;rotatable=0;points=[[0,0.5],[1,0.5]];portConstraint=eastwest;fontStyle=2" parent="vfNDVRDWI49IqqNghzil-1" vertex="1">
          <mxGeometry y="268" width="705" height="26" as="geometry" />
        </mxCell>
        <mxCell id="TxLPmFs_sCvqqsQRuhD0-1" value="# isNetworkInitialized(): bool" style="text;strokeColor=none;fillColor=none;align=left;verticalAlign=top;spacingLeft=4;spacingRight=4;overflow=hidden;rotatable=0;points=[[0,0.5],[1,0.5]];portConstraint=eastwest;" parent="vfNDVRDWI49IqqNghzil-1" vertex="1">
          <mxGeometry y="294" width="705" height="26" as="geometry" />
        </mxCell>
        <mxCell id="rAZSYZIJ4b-KAplYexjY-33" value="+ Remote(data: JsonObject)" style="text;strokeColor=none;fillColor=none;align=left;verticalAlign=top;spacingLeft=4;spacingRight=4;overflow=hidden;rotatable=0;points=[[0,0.5],[1,0.5]];portConstraint=eastwest;" parent="vfNDVRDWI49IqqNghzil-1" vertex="1">
          <mxGeometry y="320" width="705" height="26" as="geometry" />
        </mxCell>
        <mxCell id="TxLPmFs_sCvqqsQRuhD0-4" value="+ Remote(gadget: Request_Gadget *, data: JsonObject)" style="text;strokeColor=none;fillColor=none;align=left;verticalAlign=top;spacingLeft=4;spacingRight=4;overflow=hidden;rotatable=0;points=[[0,0.5],[1,0.5]];portConstraint=eastwest;" parent="vfNDVRDWI49IqqNghzil-1" vertex="1">
          <mxGeometry y="346" width="705" height="26" as="geometry" />
        </mxCell>
        <mxCell id="TxLPmFs_sCvqqsQRuhD0-5" value="+ handleRequest(req: Request *): void" style="text;strokeColor=none;fillColor=none;align=left;verticalAlign=top;spacingLeft=4;spacingRight=4;overflow=hidden;rotatable=0;points=[[0,0.5],[1,0.5]];portConstraint=eastwest;" parent="vfNDVRDWI49IqqNghzil-1" vertex="1">
          <mxGeometry y="372" width="705" height="26" as="geometry" />
        </mxCell>
        <mxCell id="TxLPmFs_sCvqqsQRuhD0-3" value="+ addGadget(new_gadget: SH_Gadget *): bool" style="text;strokeColor=none;fillColor=none;align=left;verticalAlign=top;spacingLeft=4;spacingRight=4;overflow=hidden;rotatable=0;points=[[0,0.5],[1,0.5]];portConstraint=eastwest;" parent="vfNDVRDWI49IqqNghzil-1" vertex="1">
          <mxGeometry y="398" width="705" height="26" as="geometry" />
        </mxCell>
        <mxCell id="TxLPmFs_sCvqqsQRuhD0-6" value="Extends" style="endArrow=block;endSize=16;endFill=0;html=1;" parent="1" source="tup9LoGHmV5f9MwEpz5L-3" target="vfNDVRDWI49IqqNghzil-1" edge="1">
          <mxGeometry width="160" relative="1" as="geometry">
            <mxPoint x="-350" y="200" as="sourcePoint" />
            <mxPoint x="-230" y="110" as="targetPoint" />
          </mxGeometry>
        </mxCell>
        <mxCell id="TxLPmFs_sCvqqsQRuhD0-7" value="Extends" style="endArrow=block;endSize=16;endFill=0;html=1;" parent="1" source="tup9LoGHmV5f9MwEpz5L-7" target="vfNDVRDWI49IqqNghzil-1" edge="1">
          <mxGeometry width="160" relative="1" as="geometry">
            <mxPoint x="-356.5873015873017" y="294" as="sourcePoint" />
            <mxPoint x="-277.42063492063494" y="84" as="targetPoint" />
          </mxGeometry>
        </mxCell>
        <mxCell id="TxLPmFs_sCvqqsQRuhD0-8" value="Extends" style="endArrow=block;endSize=16;endFill=0;html=1;" parent="1" source="tup9LoGHmV5f9MwEpz5L-11" target="vfNDVRDWI49IqqNghzil-1" edge="1">
          <mxGeometry width="160" relative="1" as="geometry">
            <mxPoint x="170" y="170" as="sourcePoint" />
            <mxPoint x="-267.42063492063494" y="94" as="targetPoint" />
          </mxGeometry>
        </mxCell>
        <mxCell id="tup9LoGHmV5f9MwEpz5L-7" value="CodeRemote" style="swimlane;fontStyle=1;align=center;verticalAlign=top;childLayout=stackLayout;horizontal=1;startSize=26;horizontalStack=0;resizeParent=1;resizeParentMax=0;resizeLast=0;collapsible=1;marginBottom=0;" parent="1" vertex="1">
          <mxGeometry x="-1120" y="295" width="360" height="190" as="geometry" />
        </mxCell>
        <mxCell id="tup9LoGHmV5f9MwEpz5L-8" value="# codes: CodeCommandBuffer" style="text;strokeColor=none;fillColor=none;align=left;verticalAlign=top;spacingLeft=4;spacingRight=4;overflow=hidden;rotatable=0;points=[[0,0.5],[1,0.5]];portConstraint=eastwest;" parent="tup9LoGHmV5f9MwEpz5L-7" vertex="1">
          <mxGeometry y="26" width="360" height="26" as="geometry" />
        </mxCell>
        <mxCell id="tup9LoGHmV5f9MwEpz5L-9" value="" style="line;strokeWidth=1;fillColor=none;align=left;verticalAlign=middle;spacingTop=-1;spacingLeft=3;spacingRight=3;rotatable=0;labelPosition=right;points=[];portConstraint=eastwest;" parent="tup9LoGHmV5f9MwEpz5L-7" vertex="1">
          <mxGeometry y="52" width="360" height="8" as="geometry" />
        </mxCell>
        <mxCell id="TxLPmFs_sCvqqsQRuhD0-13" value="# sendCodeToRemote(code: CodeCommand *): void" style="text;strokeColor=none;fillColor=none;align=left;verticalAlign=top;spacingLeft=4;spacingRight=4;overflow=hidden;rotatable=0;points=[[0,0.5],[1,0.5]];portConstraint=eastwest;fontStyle=2" parent="tup9LoGHmV5f9MwEpz5L-7" vertex="1">
          <mxGeometry y="60" width="360" height="26" as="geometry" />
        </mxCell>
        <mxCell id="tup9LoGHmV5f9MwEpz5L-10" value="# addCodeToBuffer(code: CodeCommand *): void" style="text;strokeColor=none;fillColor=none;align=left;verticalAlign=top;spacingLeft=4;spacingRight=4;overflow=hidden;rotatable=0;points=[[0,0.5],[1,0.5]];portConstraint=eastwest;" parent="tup9LoGHmV5f9MwEpz5L-7" vertex="1">
          <mxGeometry y="86" width="360" height="26" as="geometry" />
        </mxCell>
        <mxCell id="TxLPmFs_sCvqqsQRuhD0-21" value="+ CodeRemote(data: JsonObject)" style="text;strokeColor=none;fillColor=none;align=left;verticalAlign=top;spacingLeft=4;spacingRight=4;overflow=hidden;rotatable=0;points=[[0,0.5],[1,0.5]];portConstraint=eastwest;" parent="tup9LoGHmV5f9MwEpz5L-7" vertex="1">
          <mxGeometry y="112" width="360" height="26" as="geometry" />
        </mxCell>
        <mxCell id="TxLPmFs_sCvqqsQRuhD0-20" value="+ CodeRemote(gadget: Request_Gadget*, data: JsonObject)" style="text;strokeColor=none;fillColor=none;align=left;verticalAlign=top;spacingLeft=4;spacingRight=4;overflow=hidden;rotatable=0;points=[[0,0.5],[1,0.5]];portConstraint=eastwest;" parent="tup9LoGHmV5f9MwEpz5L-7" vertex="1">
          <mxGeometry y="138" width="360" height="26" as="geometry" />
        </mxCell>
        <mxCell id="TxLPmFs_sCvqqsQRuhD0-14" value="+ handleNewCodeFromGadget(code: CodeCommand *): void" style="text;strokeColor=none;fillColor=none;align=left;verticalAlign=top;spacingLeft=4;spacingRight=4;overflow=hidden;rotatable=0;points=[[0,0.5],[1,0.5]];portConstraint=eastwest;" parent="tup9LoGHmV5f9MwEpz5L-7" vertex="1">
          <mxGeometry y="164" width="360" height="26" as="geometry" />
        </mxCell>
        <mxCell id="tup9LoGHmV5f9MwEpz5L-3" value="GadgetRemote" style="swimlane;fontStyle=1;align=center;verticalAlign=top;childLayout=stackLayout;horizontal=1;startSize=26;horizontalStack=0;resizeParent=1;resizeParentMax=0;resizeLast=0;collapsible=1;marginBottom=0;" parent="1" vertex="1">
          <mxGeometry x="-720" y="295" width="680" height="208" as="geometry" />
        </mxCell>
        <mxCell id="rAZSYZIJ4b-KAplYexjY-34" value="- virtual registerGadget(gadget_name: const char *, service: const char *, characteristics: chonst char *): bool" style="text;strokeColor=none;fillColor=none;align=left;verticalAlign=top;spacingLeft=4;spacingRight=4;overflow=hidden;rotatable=0;points=[[0,0.5],[1,0.5]];portConstraint=eastwest;fontStyle=2" parent="tup9LoGHmV5f9MwEpz5L-3" vertex="1">
          <mxGeometry y="26" width="680" height="26" as="geometry" />
        </mxCell>
        <mxCell id="rAZSYZIJ4b-KAplYexjY-35" value="- virtual removeGadget(gadget_name: const char *): bool" style="text;strokeColor=none;fillColor=none;align=left;verticalAlign=top;spacingLeft=4;spacingRight=4;overflow=hidden;rotatable=0;points=[[0,0.5],[1,0.5]];portConstraint=eastwest;fontStyle=2" parent="tup9LoGHmV5f9MwEpz5L-3" vertex="1">
          <mxGeometry y="52" width="680" height="26" as="geometry" />
        </mxCell>
        <mxCell id="TxLPmFs_sCvqqsQRuhD0-9" value="+ registerGadgetOnRemote(gadget_name: const char *, gadget_type: Gadget_Type, characteristics: const char *): bool" style="text;strokeColor=none;fillColor=none;align=left;verticalAlign=top;spacingLeft=4;spacingRight=4;overflow=hidden;rotatable=0;points=[[0,0.5],[1,0.5]];portConstraint=eastwest;" parent="tup9LoGHmV5f9MwEpz5L-3" vertex="1">
          <mxGeometry y="78" width="680" height="26" as="geometry" />
        </mxCell>
        <mxCell id="TxLPmFs_sCvqqsQRuhD0-10" value="+ handleNewGadget(new_Gadget: SH_Gadget *): bool" style="text;strokeColor=none;fillColor=none;align=left;verticalAlign=top;spacingLeft=4;spacingRight=4;overflow=hidden;rotatable=0;points=[[0,0.5],[1,0.5]];portConstraint=eastwest;" parent="tup9LoGHmV5f9MwEpz5L-3" vertex="1">
          <mxGeometry y="104" width="680" height="26" as="geometry" />
        </mxCell>
        <mxCell id="TxLPmFs_sCvqqsQRuhD0-12" value="+ GadgetRemote(data: JsonObject)" style="text;strokeColor=none;fillColor=none;align=left;verticalAlign=top;spacingLeft=4;spacingRight=4;overflow=hidden;rotatable=0;points=[[0,0.5],[1,0.5]];portConstraint=eastwest;" parent="tup9LoGHmV5f9MwEpz5L-3" vertex="1">
          <mxGeometry y="130" width="680" height="26" as="geometry" />
        </mxCell>
        <mxCell id="TxLPmFs_sCvqqsQRuhD0-11" value="+ GadgetRemote(gadget: Request_Gadget*, data: JsonObject)" style="text;strokeColor=none;fillColor=none;align=left;verticalAlign=top;spacingLeft=4;spacingRight=4;overflow=hidden;rotatable=0;points=[[0,0.5],[1,0.5]];portConstraint=eastwest;" parent="tup9LoGHmV5f9MwEpz5L-3" vertex="1">
          <mxGeometry y="156" width="680" height="26" as="geometry" />
        </mxCell>
        <mxCell id="vfNDVRDWI49IqqNghzil-41" value="+ virtual updateCharacteristic(gadget_name: const char *, service: const char *, characteristic: const char *, value: int): void" style="text;strokeColor=none;fillColor=none;align=left;verticalAlign=top;spacingLeft=4;spacingRight=4;overflow=hidden;rotatable=0;points=[[0,0.5],[1,0.5]];portConstraint=eastwest;fontStyle=2" parent="tup9LoGHmV5f9MwEpz5L-3" vertex="1">
          <mxGeometry y="182" width="680" height="26" as="geometry" />
        </mxCell>
        <mxCell id="tup9LoGHmV5f9MwEpz5L-11" value="EventRemote" style="swimlane;fontStyle=1;align=center;verticalAlign=top;childLayout=stackLayout;horizontal=1;startSize=26;horizontalStack=0;resizeParent=1;resizeParentMax=0;resizeLast=0;collapsible=1;marginBottom=0;" parent="1" vertex="1">
          <mxGeometry y="295" width="520" height="86" as="geometry" />
        </mxCell>
        <mxCell id="tup9LoGHmV5f9MwEpz5L-12" value="+ field: type" style="text;strokeColor=none;fillColor=none;align=left;verticalAlign=top;spacingLeft=4;spacingRight=4;overflow=hidden;rotatable=0;points=[[0,0.5],[1,0.5]];portConstraint=eastwest;" parent="tup9LoGHmV5f9MwEpz5L-11" vertex="1">
          <mxGeometry y="26" width="520" height="26" as="geometry" />
        </mxCell>
        <mxCell id="tup9LoGHmV5f9MwEpz5L-13" value="" style="line;strokeWidth=1;fillColor=none;align=left;verticalAlign=middle;spacingTop=-1;spacingLeft=3;spacingRight=3;rotatable=0;labelPosition=right;points=[];portConstraint=eastwest;" parent="tup9LoGHmV5f9MwEpz5L-11" vertex="1">
          <mxGeometry y="52" width="520" height="8" as="geometry" />
        </mxCell>
        <mxCell id="tup9LoGHmV5f9MwEpz5L-14" value="+ method(type): type" style="text;strokeColor=none;fillColor=none;align=left;verticalAlign=top;spacingLeft=4;spacingRight=4;overflow=hidden;rotatable=0;points=[[0,0.5],[1,0.5]];portConstraint=eastwest;" parent="tup9LoGHmV5f9MwEpz5L-11" vertex="1">
          <mxGeometry y="60" width="520" height="26" as="geometry" />
        </mxCell>
        <mxCell id="TxLPmFs_sCvqqsQRuhD0-49" value="SmarthomeCodeRemote" style="swimlane;fontStyle=1;align=center;verticalAlign=top;childLayout=stackLayout;horizontal=1;startSize=26;horizontalStack=0;resizeParent=1;resizeParentMax=0;resizeLast=0;collapsible=1;marginBottom=0;" parent="1" vertex="1">
          <mxGeometry x="-1080" y="680" width="360" height="138" as="geometry" />
        </mxCell>
        <mxCell id="TxLPmFs_sCvqqsQRuhD0-50" value="+ field: type" style="text;strokeColor=none;fillColor=none;align=left;verticalAlign=top;spacingLeft=4;spacingRight=4;overflow=hidden;rotatable=0;points=[[0,0.5],[1,0.5]];portConstraint=eastwest;" parent="TxLPmFs_sCvqqsQRuhD0-49" vertex="1">
          <mxGeometry y="26" width="360" height="26" as="geometry" />
        </mxCell>
        <mxCell id="TxLPmFs_sCvqqsQRuhD0-51" value="" style="line;strokeWidth=1;fillColor=none;align=left;verticalAlign=middle;spacingTop=-1;spacingLeft=3;spacingRight=3;rotatable=0;labelPosition=right;points=[];portConstraint=eastwest;" parent="TxLPmFs_sCvqqsQRuhD0-49" vertex="1">
          <mxGeometry y="52" width="360" height="8" as="geometry" />
        </mxCell>
        <mxCell id="TxLPmFs_sCvqqsQRuhD0-52" value="+ sendCodeToRemote(CodeCommand *code): void" style="text;strokeColor=none;fillColor=none;align=left;verticalAlign=top;spacingLeft=4;spacingRight=4;overflow=hidden;rotatable=0;points=[[0,0.5],[1,0.5]];portConstraint=eastwest;" parent="TxLPmFs_sCvqqsQRuhD0-49" vertex="1">
          <mxGeometry y="60" width="360" height="26" as="geometry" />
        </mxCell>
        <mxCell id="YChgCSYEAHnXzYRPr8Qq-1" value="+ handleRequest(const char *path, const char *body): void" style="text;strokeColor=none;fillColor=none;align=left;verticalAlign=top;spacingLeft=4;spacingRight=4;overflow=hidden;rotatable=0;points=[[0,0.5],[1,0.5]];portConstraint=eastwest;" vertex="1" parent="TxLPmFs_sCvqqsQRuhD0-49">
          <mxGeometry y="86" width="360" height="26" as="geometry" />
        </mxCell>
        <mxCell id="YChgCSYEAHnXzYRPr8Qq-2" value="+ handleRequest(const char *path, const char *body): void" style="text;strokeColor=none;fillColor=none;align=left;verticalAlign=top;spacingLeft=4;spacingRight=4;overflow=hidden;rotatable=0;points=[[0,0.5],[1,0.5]];portConstraint=eastwest;" vertex="1" parent="TxLPmFs_sCvqqsQRuhD0-49">
          <mxGeometry y="112" width="360" height="26" as="geometry" />
        </mxCell>
        <mxCell id="TxLPmFs_sCvqqsQRuhD0-53" value="SmarthomeGadgetRemote" style="swimlane;fontStyle=1;align=center;verticalAlign=top;childLayout=stackLayout;horizontal=1;startSize=26;horizontalStack=0;resizeParent=1;resizeParentMax=0;resizeLast=0;collapsible=1;marginBottom=0;" parent="1" vertex="1">
          <mxGeometry x="-580" y="680" width="420" height="86" as="geometry" />
        </mxCell>
        <mxCell id="TxLPmFs_sCvqqsQRuhD0-54" value="+ field: type" style="text;strokeColor=none;fillColor=none;align=left;verticalAlign=top;spacingLeft=4;spacingRight=4;overflow=hidden;rotatable=0;points=[[0,0.5],[1,0.5]];portConstraint=eastwest;" parent="TxLPmFs_sCvqqsQRuhD0-53" vertex="1">
          <mxGeometry y="26" width="420" height="26" as="geometry" />
        </mxCell>
        <mxCell id="TxLPmFs_sCvqqsQRuhD0-55" value="" style="line;strokeWidth=1;fillColor=none;align=left;verticalAlign=middle;spacingTop=-1;spacingLeft=3;spacingRight=3;rotatable=0;labelPosition=right;points=[];portConstraint=eastwest;" parent="TxLPmFs_sCvqqsQRuhD0-53" vertex="1">
          <mxGeometry y="52" width="420" height="8" as="geometry" />
        </mxCell>
        <mxCell id="TxLPmFs_sCvqqsQRuhD0-56" value="+ method(type): type" style="text;strokeColor=none;fillColor=none;align=left;verticalAlign=top;spacingLeft=4;spacingRight=4;overflow=hidden;rotatable=0;points=[[0,0.5],[1,0.5]];portConstraint=eastwest;" parent="TxLPmFs_sCvqqsQRuhD0-53" vertex="1">
          <mxGeometry y="60" width="420" height="26" as="geometry" />
        </mxCell>
        <mxCell id="TxLPmFs_sCvqqsQRuhD0-57" value="SmarthomeEventRemote" style="swimlane;fontStyle=1;align=center;verticalAlign=top;childLayout=stackLayout;horizontal=1;startSize=26;horizontalStack=0;resizeParent=1;resizeParentMax=0;resizeLast=0;collapsible=1;marginBottom=0;" parent="1" vertex="1">
          <mxGeometry x="10" y="677" width="415" height="86" as="geometry" />
        </mxCell>
        <mxCell id="TxLPmFs_sCvqqsQRuhD0-58" value="+ field: type" style="text;strokeColor=none;fillColor=none;align=left;verticalAlign=top;spacingLeft=4;spacingRight=4;overflow=hidden;rotatable=0;points=[[0,0.5],[1,0.5]];portConstraint=eastwest;" parent="TxLPmFs_sCvqqsQRuhD0-57" vertex="1">
          <mxGeometry y="26" width="415" height="26" as="geometry" />
        </mxCell>
        <mxCell id="TxLPmFs_sCvqqsQRuhD0-59" value="" style="line;strokeWidth=1;fillColor=none;align=left;verticalAlign=middle;spacingTop=-1;spacingLeft=3;spacingRight=3;rotatable=0;labelPosition=right;points=[];portConstraint=eastwest;" parent="TxLPmFs_sCvqqsQRuhD0-57" vertex="1">
          <mxGeometry y="52" width="415" height="8" as="geometry" />
        </mxCell>
        <mxCell id="TxLPmFs_sCvqqsQRuhD0-60" value="+ method(type): type" style="text;strokeColor=none;fillColor=none;align=left;verticalAlign=top;spacingLeft=4;spacingRight=4;overflow=hidden;rotatable=0;points=[[0,0.5],[1,0.5]];portConstraint=eastwest;" parent="TxLPmFs_sCvqqsQRuhD0-57" vertex="1">
          <mxGeometry y="60" width="415" height="26" as="geometry" />
        </mxCell>
        <mxCell id="TxLPmFs_sCvqqsQRuhD0-63" value="Extends" style="endArrow=block;endSize=16;endFill=0;html=1;" parent="1" source="TxLPmFs_sCvqqsQRuhD0-49" target="tup9LoGHmV5f9MwEpz5L-7" edge="1">
          <mxGeometry width="160" relative="1" as="geometry">
            <mxPoint x="-1210.0021787709493" y="785" as="sourcePoint" />
            <mxPoint x="-1139.0105586592172" y="563.9999999999991" as="targetPoint" />
          </mxGeometry>
        </mxCell>
        <mxCell id="TxLPmFs_sCvqqsQRuhD0-64" value="Extends" style="endArrow=block;endSize=16;endFill=0;html=1;" parent="1" source="TxLPmFs_sCvqqsQRuhD0-53" target="tup9LoGHmV5f9MwEpz5L-3" edge="1">
          <mxGeometry width="160" relative="1" as="geometry">
            <mxPoint x="-633.575165165166" y="745" as="sourcePoint" />
            <mxPoint x="-656.9985885885887" y="550" as="targetPoint" />
          </mxGeometry>
        </mxCell>
        <mxCell id="TxLPmFs_sCvqqsQRuhD0-65" value="Extends" style="endArrow=block;endSize=16;endFill=0;html=1;" parent="1" source="TxLPmFs_sCvqqsQRuhD0-57" target="tup9LoGHmV5f9MwEpz5L-11" edge="1">
          <mxGeometry width="160" relative="1" as="geometry">
            <mxPoint x="-229.99716049382678" y="717" as="sourcePoint" />
            <mxPoint x="-235.46012345678983" y="540" as="targetPoint" />
          </mxGeometry>
        </mxCell>
        <mxCell id="BVCmBET8UrxRTKi6fJFU-1" value="Code_Gadget" style="swimlane;fontStyle=1;align=center;verticalAlign=top;childLayout=stackLayout;horizontal=1;startSize=26;horizontalStack=0;resizeParent=1;resizeParentMax=0;resizeLast=0;collapsible=1;marginBottom=0;" parent="1" vertex="1">
          <mxGeometry x="1680" y="-1320" width="400" height="268" as="geometry">
            <mxRectangle x="1680" y="-1320" width="110" height="26" as="alternateBounds" />
          </mxGeometry>
        </mxCell>
        <mxCell id="BVCmBET8UrxRTKi6fJFU-2" value="# code_gadget_is_ready_: bool" style="text;strokeColor=none;fillColor=none;align=left;verticalAlign=top;spacingLeft=4;spacingRight=4;overflow=hidden;rotatable=0;points=[[0,0.5],[1,0.5]];portConstraint=eastwest;" parent="BVCmBET8UrxRTKi6fJFU-1" vertex="1">
          <mxGeometry y="26" width="400" height="26" as="geometry" />
        </mxCell>
        <mxCell id="Vv94dgR8Xj495JDutTfT-1" value="# com: CodeCommand *" style="text;strokeColor=none;fillColor=none;align=left;verticalAlign=top;spacingLeft=4;spacingRight=4;overflow=hidden;rotatable=0;points=[[0,0.5],[1,0.5]];portConstraint=eastwest;" parent="BVCmBET8UrxRTKi6fJFU-1" vertex="1">
          <mxGeometry y="52" width="400" height="26" as="geometry" />
        </mxCell>
        <mxCell id="Vv94dgR8Xj495JDutTfT-2" value="# has_news_: bool" style="text;strokeColor=none;fillColor=none;align=left;verticalAlign=top;spacingLeft=4;spacingRight=4;overflow=hidden;rotatable=0;points=[[0,0.5],[1,0.5]];portConstraint=eastwest;" parent="BVCmBET8UrxRTKi6fJFU-1" vertex="1">
          <mxGeometry y="78" width="400" height="26" as="geometry" />
        </mxCell>
        <mxCell id="BVCmBET8UrxRTKi6fJFU-3" value="" style="line;strokeWidth=1;fillColor=none;align=left;verticalAlign=middle;spacingTop=-1;spacingLeft=3;spacingRight=3;rotatable=0;labelPosition=right;points=[];portConstraint=eastwest;" parent="BVCmBET8UrxRTKi6fJFU-1" vertex="1">
          <mxGeometry y="104" width="400" height="8" as="geometry" />
        </mxCell>
        <mxCell id="BVCmBET8UrxRTKi6fJFU-4" value="# setCommand(type: CodeType, new_command: unsigned long): void" style="text;strokeColor=none;fillColor=none;align=left;verticalAlign=top;spacingLeft=4;spacingRight=4;overflow=hidden;rotatable=0;points=[[0,0.5],[1,0.5]];portConstraint=eastwest;" parent="BVCmBET8UrxRTKi6fJFU-1" vertex="1">
          <mxGeometry y="112" width="400" height="26" as="geometry" />
        </mxCell>
        <mxCell id="Vv94dgR8Xj495JDutTfT-3" value="+ Code_Gadget()" style="text;strokeColor=none;fillColor=none;align=left;verticalAlign=top;spacingLeft=4;spacingRight=4;overflow=hidden;rotatable=0;points=[[0,0.5],[1,0.5]];portConstraint=eastwest;" parent="BVCmBET8UrxRTKi6fJFU-1" vertex="1">
          <mxGeometry y="138" width="400" height="26" as="geometry" />
        </mxCell>
        <mxCell id="Vv94dgR8Xj495JDutTfT-4" value="+ Code_Gadget(data: JsonObject)" style="text;strokeColor=none;fillColor=none;align=left;verticalAlign=top;spacingLeft=4;spacingRight=4;overflow=hidden;rotatable=0;points=[[0,0.5],[1,0.5]];portConstraint=eastwest;" parent="BVCmBET8UrxRTKi6fJFU-1" vertex="1">
          <mxGeometry y="164" width="400" height="26" as="geometry" />
        </mxCell>
        <mxCell id="Vv94dgR8Xj495JDutTfT-5" value="+ codeGadgetIsReady(): bool" style="text;strokeColor=none;fillColor=none;align=left;verticalAlign=top;spacingLeft=4;spacingRight=4;overflow=hidden;rotatable=0;points=[[0,0.5],[1,0.5]];portConstraint=eastwest;" parent="BVCmBET8UrxRTKi6fJFU-1" vertex="1">
          <mxGeometry y="190" width="400" height="26" as="geometry" />
        </mxCell>
        <mxCell id="Vv94dgR8Xj495JDutTfT-6" value="+ hasNewCommand(): bool" style="text;strokeColor=none;fillColor=none;align=left;verticalAlign=top;spacingLeft=4;spacingRight=4;overflow=hidden;rotatable=0;points=[[0,0.5],[1,0.5]];portConstraint=eastwest;" parent="BVCmBET8UrxRTKi6fJFU-1" vertex="1">
          <mxGeometry y="216" width="400" height="26" as="geometry" />
        </mxCell>
        <mxCell id="Vv94dgR8Xj495JDutTfT-7" value="+ getCommand(): CodeCommand *" style="text;strokeColor=none;fillColor=none;align=left;verticalAlign=top;spacingLeft=4;spacingRight=4;overflow=hidden;rotatable=0;points=[[0,0.5],[1,0.5]];portConstraint=eastwest;" parent="BVCmBET8UrxRTKi6fJFU-1" vertex="1">
          <mxGeometry y="242" width="400" height="26" as="geometry" />
        </mxCell>
        <mxCell id="ZFiH180SvxtKEt1jRk3j-1" value="Color" style="swimlane;fontStyle=1;align=center;verticalAlign=top;childLayout=stackLayout;horizontal=1;startSize=26;horizontalStack=0;resizeParent=1;resizeParentMax=0;resizeLast=0;collapsible=1;marginBottom=0;" parent="1" vertex="1">
          <mxGeometry x="650" y="1220" width="400" height="268" as="geometry" />
        </mxCell>
        <mxCell id="ZFiH180SvxtKEt1jRk3j-2" value="- rgb_color: RGBColor" style="text;strokeColor=none;fillColor=none;align=left;verticalAlign=top;spacingLeft=4;spacingRight=4;overflow=hidden;rotatable=0;points=[[0,0.5],[1,0.5]];portConstraint=eastwest;" parent="ZFiH180SvxtKEt1jRk3j-1" vertex="1">
          <mxGeometry y="26" width="400" height="26" as="geometry" />
        </mxCell>
        <mxCell id="ZFiH180SvxtKEt1jRk3j-47" value="- hsl_color: HSLColor" style="text;strokeColor=none;fillColor=none;align=left;verticalAlign=top;spacingLeft=4;spacingRight=4;overflow=hidden;rotatable=0;points=[[0,0.5],[1,0.5]];portConstraint=eastwest;" parent="ZFiH180SvxtKEt1jRk3j-1" vertex="1">
          <mxGeometry y="52" width="400" height="26" as="geometry" />
        </mxCell>
        <mxCell id="ZFiH180SvxtKEt1jRk3j-48" value="- hsv_color: HSVColor" style="text;strokeColor=none;fillColor=none;align=left;verticalAlign=top;spacingLeft=4;spacingRight=4;overflow=hidden;rotatable=0;points=[[0,0.5],[1,0.5]];portConstraint=eastwest;" parent="ZFiH180SvxtKEt1jRk3j-1" vertex="1">
          <mxGeometry y="78" width="400" height="26" as="geometry" />
        </mxCell>
        <mxCell id="ZFiH180SvxtKEt1jRk3j-3" value="" style="line;strokeWidth=1;fillColor=none;align=left;verticalAlign=middle;spacingTop=-1;spacingLeft=3;spacingRight=3;rotatable=0;labelPosition=right;points=[];portConstraint=eastwest;" parent="ZFiH180SvxtKEt1jRk3j-1" vertex="1">
          <mxGeometry y="104" width="400" height="8" as="geometry" />
        </mxCell>
        <mxCell id="ZFiH180SvxtKEt1jRk3j-4" value="+ getRGB(): RGBColor *" style="text;strokeColor=none;fillColor=none;align=left;verticalAlign=top;spacingLeft=4;spacingRight=4;overflow=hidden;rotatable=0;points=[[0,0.5],[1,0.5]];portConstraint=eastwest;" parent="ZFiH180SvxtKEt1jRk3j-1" vertex="1">
          <mxGeometry y="112" width="400" height="26" as="geometry" />
        </mxCell>
        <mxCell id="ZFiH180SvxtKEt1jRk3j-5" value="+ getHSL(): HSLColor *" style="text;strokeColor=none;fillColor=none;align=left;verticalAlign=top;spacingLeft=4;spacingRight=4;overflow=hidden;rotatable=0;points=[[0,0.5],[1,0.5]];portConstraint=eastwest;" parent="ZFiH180SvxtKEt1jRk3j-1" vertex="1">
          <mxGeometry y="138" width="400" height="26" as="geometry" />
        </mxCell>
        <mxCell id="ZFiH180SvxtKEt1jRk3j-6" value="+ getHSV(): HSVColor *" style="text;strokeColor=none;fillColor=none;align=left;verticalAlign=top;spacingLeft=4;spacingRight=4;overflow=hidden;rotatable=0;points=[[0,0.5],[1,0.5]];portConstraint=eastwest;" parent="ZFiH180SvxtKEt1jRk3j-1" vertex="1">
          <mxGeometry y="164" width="400" height="26" as="geometry" />
        </mxCell>
        <mxCell id="ZFiH180SvxtKEt1jRk3j-54" value="+ setRGB(red: byte, green: byte, blue: byte): void" style="text;strokeColor=none;fillColor=none;align=left;verticalAlign=top;spacingLeft=4;spacingRight=4;overflow=hidden;rotatable=0;points=[[0,0.5],[1,0.5]];portConstraint=eastwest;" parent="ZFiH180SvxtKEt1jRk3j-1" vertex="1">
          <mxGeometry y="190" width="400" height="26" as="geometry" />
        </mxCell>
        <mxCell id="ZFiH180SvxtKEt1jRk3j-52" value="+ setHSL(hue: unsigned int, saturation: byte, lightness: byte): void" style="text;strokeColor=none;fillColor=none;align=left;verticalAlign=top;spacingLeft=4;spacingRight=4;overflow=hidden;rotatable=0;points=[[0,0.5],[1,0.5]];portConstraint=eastwest;" parent="ZFiH180SvxtKEt1jRk3j-1" vertex="1">
          <mxGeometry y="216" width="400" height="26" as="geometry" />
        </mxCell>
        <mxCell id="ZFiH180SvxtKEt1jRk3j-53" value="+ setHSV(hue: unsigned int, saturation: byte, value: byte): void" style="text;strokeColor=none;fillColor=none;align=left;verticalAlign=top;spacingLeft=4;spacingRight=4;overflow=hidden;rotatable=0;points=[[0,0.5],[1,0.5]];portConstraint=eastwest;" parent="ZFiH180SvxtKEt1jRk3j-1" vertex="1">
          <mxGeometry y="242" width="400" height="26" as="geometry" />
        </mxCell>
        <mxCell id="ZFiH180SvxtKEt1jRk3j-7" value="RGBColor" style="swimlane;fontStyle=1;align=center;verticalAlign=top;childLayout=stackLayout;horizontal=1;startSize=26;horizontalStack=0;resizeParent=1;resizeParentMax=0;resizeLast=0;collapsible=1;marginBottom=0;" parent="1" vertex="1">
          <mxGeometry x="210" y="1060" width="360" height="216" as="geometry" />
        </mxCell>
        <mxCell id="ZFiH180SvxtKEt1jRk3j-8" value="+ red: byte" style="text;strokeColor=none;fillColor=none;align=left;verticalAlign=top;spacingLeft=4;spacingRight=4;overflow=hidden;rotatable=0;points=[[0,0.5],[1,0.5]];portConstraint=eastwest;" parent="ZFiH180SvxtKEt1jRk3j-7" vertex="1">
          <mxGeometry y="26" width="360" height="26" as="geometry" />
        </mxCell>
        <mxCell id="ZFiH180SvxtKEt1jRk3j-26" value="+ green: byte" style="text;strokeColor=none;fillColor=none;align=left;verticalAlign=top;spacingLeft=4;spacingRight=4;overflow=hidden;rotatable=0;points=[[0,0.5],[1,0.5]];portConstraint=eastwest;" parent="ZFiH180SvxtKEt1jRk3j-7" vertex="1">
          <mxGeometry y="52" width="360" height="26" as="geometry" />
        </mxCell>
        <mxCell id="ZFiH180SvxtKEt1jRk3j-27" value="+ blue: byte" style="text;strokeColor=none;fillColor=none;align=left;verticalAlign=top;spacingLeft=4;spacingRight=4;overflow=hidden;rotatable=0;points=[[0,0.5],[1,0.5]];portConstraint=eastwest;" parent="ZFiH180SvxtKEt1jRk3j-7" vertex="1">
          <mxGeometry y="78" width="360" height="26" as="geometry" />
        </mxCell>
        <mxCell id="ZFiH180SvxtKEt1jRk3j-9" value="" style="line;strokeWidth=1;fillColor=none;align=left;verticalAlign=middle;spacingTop=-1;spacingLeft=3;spacingRight=3;rotatable=0;labelPosition=right;points=[];portConstraint=eastwest;" parent="ZFiH180SvxtKEt1jRk3j-7" vertex="1">
          <mxGeometry y="104" width="360" height="8" as="geometry" />
        </mxCell>
        <mxCell id="ZFiH180SvxtKEt1jRk3j-10" value="+ getRed(): byte" style="text;strokeColor=none;fillColor=none;align=left;verticalAlign=top;spacingLeft=4;spacingRight=4;overflow=hidden;rotatable=0;points=[[0,0.5],[1,0.5]];portConstraint=eastwest;" parent="ZFiH180SvxtKEt1jRk3j-7" vertex="1">
          <mxGeometry y="112" width="360" height="26" as="geometry" />
        </mxCell>
        <mxCell id="ZFiH180SvxtKEt1jRk3j-28" value="+ getGreen(): byte" style="text;strokeColor=none;fillColor=none;align=left;verticalAlign=top;spacingLeft=4;spacingRight=4;overflow=hidden;rotatable=0;points=[[0,0.5],[1,0.5]];portConstraint=eastwest;" parent="ZFiH180SvxtKEt1jRk3j-7" vertex="1">
          <mxGeometry y="138" width="360" height="26" as="geometry" />
        </mxCell>
        <mxCell id="ZFiH180SvxtKEt1jRk3j-29" value="+ getBlue(): byte" style="text;strokeColor=none;fillColor=none;align=left;verticalAlign=top;spacingLeft=4;spacingRight=4;overflow=hidden;rotatable=0;points=[[0,0.5],[1,0.5]];portConstraint=eastwest;" parent="ZFiH180SvxtKEt1jRk3j-7" vertex="1">
          <mxGeometry y="164" width="360" height="26" as="geometry" />
        </mxCell>
        <mxCell id="ZFiH180SvxtKEt1jRk3j-56" value="+ setColor(red: byte, green: byte, blue: byte): void" style="text;strokeColor=none;fillColor=none;align=left;verticalAlign=top;spacingLeft=4;spacingRight=4;overflow=hidden;rotatable=0;points=[[0,0.5],[1,0.5]];portConstraint=eastwest;" parent="ZFiH180SvxtKEt1jRk3j-7" vertex="1">
          <mxGeometry y="190" width="360" height="26" as="geometry" />
        </mxCell>
        <mxCell id="ZFiH180SvxtKEt1jRk3j-31" value="HSLColor" style="swimlane;fontStyle=1;align=center;verticalAlign=top;childLayout=stackLayout;horizontal=1;startSize=26;horizontalStack=0;resizeParent=1;resizeParentMax=0;resizeLast=0;collapsible=1;marginBottom=0;" parent="1" vertex="1">
          <mxGeometry x="210" y="1300" width="360" height="216" as="geometry" />
        </mxCell>
        <mxCell id="ZFiH180SvxtKEt1jRk3j-32" value="+ hue: unsigned int" style="text;strokeColor=none;fillColor=none;align=left;verticalAlign=top;spacingLeft=4;spacingRight=4;overflow=hidden;rotatable=0;points=[[0,0.5],[1,0.5]];portConstraint=eastwest;" parent="ZFiH180SvxtKEt1jRk3j-31" vertex="1">
          <mxGeometry y="26" width="360" height="26" as="geometry" />
        </mxCell>
        <mxCell id="ZFiH180SvxtKEt1jRk3j-33" value="+ saturation: byte" style="text;strokeColor=none;fillColor=none;align=left;verticalAlign=top;spacingLeft=4;spacingRight=4;overflow=hidden;rotatable=0;points=[[0,0.5],[1,0.5]];portConstraint=eastwest;" parent="ZFiH180SvxtKEt1jRk3j-31" vertex="1">
          <mxGeometry y="52" width="360" height="26" as="geometry" />
        </mxCell>
        <mxCell id="ZFiH180SvxtKEt1jRk3j-34" value="+ lightness: byte" style="text;strokeColor=none;fillColor=none;align=left;verticalAlign=top;spacingLeft=4;spacingRight=4;overflow=hidden;rotatable=0;points=[[0,0.5],[1,0.5]];portConstraint=eastwest;" parent="ZFiH180SvxtKEt1jRk3j-31" vertex="1">
          <mxGeometry y="78" width="360" height="26" as="geometry" />
        </mxCell>
        <mxCell id="ZFiH180SvxtKEt1jRk3j-35" value="" style="line;strokeWidth=1;fillColor=none;align=left;verticalAlign=middle;spacingTop=-1;spacingLeft=3;spacingRight=3;rotatable=0;labelPosition=right;points=[];portConstraint=eastwest;" parent="ZFiH180SvxtKEt1jRk3j-31" vertex="1">
          <mxGeometry y="104" width="360" height="8" as="geometry" />
        </mxCell>
        <mxCell id="ZFiH180SvxtKEt1jRk3j-36" value="+ getHue(): unsigned int" style="text;strokeColor=none;fillColor=none;align=left;verticalAlign=top;spacingLeft=4;spacingRight=4;overflow=hidden;rotatable=0;points=[[0,0.5],[1,0.5]];portConstraint=eastwest;" parent="ZFiH180SvxtKEt1jRk3j-31" vertex="1">
          <mxGeometry y="112" width="360" height="26" as="geometry" />
        </mxCell>
        <mxCell id="ZFiH180SvxtKEt1jRk3j-37" value="+ getSaturation(): byte" style="text;strokeColor=none;fillColor=none;align=left;verticalAlign=top;spacingLeft=4;spacingRight=4;overflow=hidden;rotatable=0;points=[[0,0.5],[1,0.5]];portConstraint=eastwest;" parent="ZFiH180SvxtKEt1jRk3j-31" vertex="1">
          <mxGeometry y="138" width="360" height="26" as="geometry" />
        </mxCell>
        <mxCell id="ZFiH180SvxtKEt1jRk3j-38" value="+ getLightness(): byte" style="text;strokeColor=none;fillColor=none;align=left;verticalAlign=top;spacingLeft=4;spacingRight=4;overflow=hidden;rotatable=0;points=[[0,0.5],[1,0.5]];portConstraint=eastwest;" parent="ZFiH180SvxtKEt1jRk3j-31" vertex="1">
          <mxGeometry y="164" width="360" height="26" as="geometry" />
        </mxCell>
        <mxCell id="ZFiH180SvxtKEt1jRk3j-57" value="+ setColor(hue: unsigned int, saturation: byte, lightness: byte): void" style="text;strokeColor=none;fillColor=none;align=left;verticalAlign=top;spacingLeft=4;spacingRight=4;overflow=hidden;rotatable=0;points=[[0,0.5],[1,0.5]];portConstraint=eastwest;" parent="ZFiH180SvxtKEt1jRk3j-31" vertex="1">
          <mxGeometry y="190" width="360" height="26" as="geometry" />
        </mxCell>
        <mxCell id="ZFiH180SvxtKEt1jRk3j-39" value="HSVColor" style="swimlane;fontStyle=1;align=center;verticalAlign=top;childLayout=stackLayout;horizontal=1;startSize=26;horizontalStack=0;resizeParent=1;resizeParentMax=0;resizeLast=0;collapsible=1;marginBottom=0;" parent="1" vertex="1">
          <mxGeometry x="210" y="1540" width="360" height="216" as="geometry" />
        </mxCell>
        <mxCell id="ZFiH180SvxtKEt1jRk3j-40" value="+ hue: unsigned int" style="text;strokeColor=none;fillColor=none;align=left;verticalAlign=top;spacingLeft=4;spacingRight=4;overflow=hidden;rotatable=0;points=[[0,0.5],[1,0.5]];portConstraint=eastwest;" parent="ZFiH180SvxtKEt1jRk3j-39" vertex="1">
          <mxGeometry y="26" width="360" height="26" as="geometry" />
        </mxCell>
        <mxCell id="ZFiH180SvxtKEt1jRk3j-41" value="+ saturation: byte" style="text;strokeColor=none;fillColor=none;align=left;verticalAlign=top;spacingLeft=4;spacingRight=4;overflow=hidden;rotatable=0;points=[[0,0.5],[1,0.5]];portConstraint=eastwest;" parent="ZFiH180SvxtKEt1jRk3j-39" vertex="1">
          <mxGeometry y="52" width="360" height="26" as="geometry" />
        </mxCell>
        <mxCell id="ZFiH180SvxtKEt1jRk3j-42" value="+ value: byte" style="text;strokeColor=none;fillColor=none;align=left;verticalAlign=top;spacingLeft=4;spacingRight=4;overflow=hidden;rotatable=0;points=[[0,0.5],[1,0.5]];portConstraint=eastwest;" parent="ZFiH180SvxtKEt1jRk3j-39" vertex="1">
          <mxGeometry y="78" width="360" height="26" as="geometry" />
        </mxCell>
        <mxCell id="ZFiH180SvxtKEt1jRk3j-43" value="" style="line;strokeWidth=1;fillColor=none;align=left;verticalAlign=middle;spacingTop=-1;spacingLeft=3;spacingRight=3;rotatable=0;labelPosition=right;points=[];portConstraint=eastwest;" parent="ZFiH180SvxtKEt1jRk3j-39" vertex="1">
          <mxGeometry y="104" width="360" height="8" as="geometry" />
        </mxCell>
        <mxCell id="ZFiH180SvxtKEt1jRk3j-44" value="+ getHue(): unsigned int" style="text;strokeColor=none;fillColor=none;align=left;verticalAlign=top;spacingLeft=4;spacingRight=4;overflow=hidden;rotatable=0;points=[[0,0.5],[1,0.5]];portConstraint=eastwest;" parent="ZFiH180SvxtKEt1jRk3j-39" vertex="1">
          <mxGeometry y="112" width="360" height="26" as="geometry" />
        </mxCell>
        <mxCell id="ZFiH180SvxtKEt1jRk3j-45" value="+ getSaturation(): byte" style="text;strokeColor=none;fillColor=none;align=left;verticalAlign=top;spacingLeft=4;spacingRight=4;overflow=hidden;rotatable=0;points=[[0,0.5],[1,0.5]];portConstraint=eastwest;" parent="ZFiH180SvxtKEt1jRk3j-39" vertex="1">
          <mxGeometry y="138" width="360" height="26" as="geometry" />
        </mxCell>
        <mxCell id="ZFiH180SvxtKEt1jRk3j-46" value="+ getValue(): byte" style="text;strokeColor=none;fillColor=none;align=left;verticalAlign=top;spacingLeft=4;spacingRight=4;overflow=hidden;rotatable=0;points=[[0,0.5],[1,0.5]];portConstraint=eastwest;" parent="ZFiH180SvxtKEt1jRk3j-39" vertex="1">
          <mxGeometry y="164" width="360" height="26" as="geometry" />
        </mxCell>
        <mxCell id="ZFiH180SvxtKEt1jRk3j-58" value="+ setColor(hue: unsigned int, saturation: byte, value: byte): void" style="text;strokeColor=none;fillColor=none;align=left;verticalAlign=top;spacingLeft=4;spacingRight=4;overflow=hidden;rotatable=0;points=[[0,0.5],[1,0.5]];portConstraint=eastwest;" parent="ZFiH180SvxtKEt1jRk3j-39" vertex="1">
          <mxGeometry y="190" width="360" height="26" as="geometry" />
        </mxCell>
        <mxCell id="TxLPmFs_sCvqqsQRuhD0-34" value="CodeCommand" style="swimlane;fontStyle=1;align=center;verticalAlign=top;childLayout=stackLayout;horizontal=1;startSize=26;horizontalStack=0;resizeParent=1;resizeParentMax=0;resizeLast=0;collapsible=1;marginBottom=0;" parent="1" vertex="1">
          <mxGeometry x="-1230" y="-592" width="593" height="242" as="geometry" />
        </mxCell>
        <mxCell id="TxLPmFs_sCvqqsQRuhD0-35" value="- type: CodeType" style="text;strokeColor=none;fillColor=none;align=left;verticalAlign=top;spacingLeft=4;spacingRight=4;overflow=hidden;rotatable=0;points=[[0,0.5],[1,0.5]];portConstraint=eastwest;fontStyle=4" parent="TxLPmFs_sCvqqsQRuhD0-34" vertex="1">
          <mxGeometry y="26" width="593" height="26" as="geometry" />
        </mxCell>
        <mxCell id="TxLPmFs_sCvqqsQRuhD0-43" value="- code: unsigned long" style="text;strokeColor=none;fillColor=none;align=left;verticalAlign=top;spacingLeft=4;spacingRight=4;overflow=hidden;rotatable=0;points=[[0,0.5],[1,0.5]];portConstraint=eastwest;fontStyle=4" parent="TxLPmFs_sCvqqsQRuhD0-34" vertex="1">
          <mxGeometry y="52" width="593" height="26" as="geometry" />
        </mxCell>
        <mxCell id="TxLPmFs_sCvqqsQRuhD0-44" value="- timestamp: unsigned long long" style="text;strokeColor=none;fillColor=none;align=left;verticalAlign=top;spacingLeft=4;spacingRight=4;overflow=hidden;rotatable=0;points=[[0,0.5],[1,0.5]];portConstraint=eastwest;fontStyle=4" parent="TxLPmFs_sCvqqsQRuhD0-34" vertex="1">
          <mxGeometry y="78" width="593" height="26" as="geometry" />
        </mxCell>
        <mxCell id="TxLPmFs_sCvqqsQRuhD0-36" value="" style="line;strokeWidth=1;fillColor=none;align=left;verticalAlign=middle;spacingTop=-1;spacingLeft=3;spacingRight=3;rotatable=0;labelPosition=right;points=[];portConstraint=eastwest;" parent="TxLPmFs_sCvqqsQRuhD0-34" vertex="1">
          <mxGeometry y="104" width="593" height="8" as="geometry" />
        </mxCell>
        <mxCell id="TxLPmFs_sCvqqsQRuhD0-37" value="+ CodeCommand()" style="text;strokeColor=none;fillColor=none;align=left;verticalAlign=top;spacingLeft=4;spacingRight=4;overflow=hidden;rotatable=0;points=[[0,0.5],[1,0.5]];portConstraint=eastwest;" parent="TxLPmFs_sCvqqsQRuhD0-34" vertex="1">
          <mxGeometry y="112" width="593" height="26" as="geometry" />
        </mxCell>
        <mxCell id="TxLPmFs_sCvqqsQRuhD0-45" value="+ CodeCommand(command_type: Code_Command, code: unsigned long, timestamp: unsigned long long)" style="text;strokeColor=none;fillColor=none;align=left;verticalAlign=top;spacingLeft=4;spacingRight=4;overflow=hidden;rotatable=0;points=[[0,0.5],[1,0.5]];portConstraint=eastwest;" parent="TxLPmFs_sCvqqsQRuhD0-34" vertex="1">
          <mxGeometry y="138" width="593" height="26" as="geometry" />
        </mxCell>
        <mxCell id="TxLPmFs_sCvqqsQRuhD0-46" value="+ getType(): CodeType" style="text;strokeColor=none;fillColor=none;align=left;verticalAlign=top;spacingLeft=4;spacingRight=4;overflow=hidden;rotatable=0;points=[[0,0.5],[1,0.5]];portConstraint=eastwest;" parent="TxLPmFs_sCvqqsQRuhD0-34" vertex="1">
          <mxGeometry y="164" width="593" height="26" as="geometry" />
        </mxCell>
        <mxCell id="TxLPmFs_sCvqqsQRuhD0-47" value="+ getCode(): unsigned long" style="text;strokeColor=none;fillColor=none;align=left;verticalAlign=top;spacingLeft=4;spacingRight=4;overflow=hidden;rotatable=0;points=[[0,0.5],[1,0.5]];portConstraint=eastwest;" parent="TxLPmFs_sCvqqsQRuhD0-34" vertex="1">
          <mxGeometry y="190" width="593" height="26" as="geometry" />
        </mxCell>
        <mxCell id="TxLPmFs_sCvqqsQRuhD0-48" value="+ getTimestamp(): unsigned long long" style="text;strokeColor=none;fillColor=none;align=left;verticalAlign=top;spacingLeft=4;spacingRight=4;overflow=hidden;rotatable=0;points=[[0,0.5],[1,0.5]];portConstraint=eastwest;" parent="TxLPmFs_sCvqqsQRuhD0-34" vertex="1">
          <mxGeometry y="216" width="593" height="26" as="geometry" />
        </mxCell>
        <mxCell id="TxLPmFs_sCvqqsQRuhD0-22" value="CodeCommandBuffer" style="swimlane;fontStyle=1;align=center;verticalAlign=top;childLayout=stackLayout;horizontal=1;startSize=26;horizontalStack=0;resizeParent=1;resizeParentMax=0;resizeLast=0;collapsible=1;marginBottom=0;" parent="1" vertex="1">
          <mxGeometry x="-1073.5" y="-194" width="280" height="268" as="geometry" />
        </mxCell>
        <mxCell id="TxLPmFs_sCvqqsQRuhD0-23" value="- code_list: [CodeCommand]" style="text;strokeColor=none;fillColor=none;align=left;verticalAlign=top;spacingLeft=4;spacingRight=4;overflow=hidden;rotatable=0;points=[[0,0.5],[1,0.5]];portConstraint=eastwest;" parent="TxLPmFs_sCvqqsQRuhD0-22" vertex="1">
          <mxGeometry y="26" width="280" height="26" as="geometry" />
        </mxCell>
        <mxCell id="TxLPmFs_sCvqqsQRuhD0-26" value="- buffer_add_pointer: byte" style="text;strokeColor=none;fillColor=none;align=left;verticalAlign=top;spacingLeft=4;spacingRight=4;overflow=hidden;rotatable=0;points=[[0,0.5],[1,0.5]];portConstraint=eastwest;" parent="TxLPmFs_sCvqqsQRuhD0-22" vertex="1">
          <mxGeometry y="52" width="280" height="26" as="geometry" />
        </mxCell>
        <mxCell id="TxLPmFs_sCvqqsQRuhD0-27" value="- buffer_get_pointer: byte" style="text;strokeColor=none;fillColor=none;align=left;verticalAlign=top;spacingLeft=4;spacingRight=4;overflow=hidden;rotatable=0;points=[[0,0.5],[1,0.5]];portConstraint=eastwest;" parent="TxLPmFs_sCvqqsQRuhD0-22" vertex="1">
          <mxGeometry y="78" width="280" height="26" as="geometry" />
        </mxCell>
        <mxCell id="TxLPmFs_sCvqqsQRuhD0-24" value="" style="line;strokeWidth=1;fillColor=none;align=left;verticalAlign=middle;spacingTop=-1;spacingLeft=3;spacingRight=3;rotatable=0;labelPosition=right;points=[];portConstraint=eastwest;" parent="TxLPmFs_sCvqqsQRuhD0-22" vertex="1">
          <mxGeometry y="104" width="280" height="8" as="geometry" />
        </mxCell>
        <mxCell id="TxLPmFs_sCvqqsQRuhD0-25" value="- nextPos(start: byte): byte" style="text;strokeColor=none;fillColor=none;align=left;verticalAlign=top;spacingLeft=4;spacingRight=4;overflow=hidden;rotatable=0;points=[[0,0.5],[1,0.5]];portConstraint=eastwest;fontStyle=4" parent="TxLPmFs_sCvqqsQRuhD0-22" vertex="1">
          <mxGeometry y="112" width="280" height="26" as="geometry" />
        </mxCell>
        <mxCell id="TxLPmFs_sCvqqsQRuhD0-28" value="+ addCode(com: CodeCommand *): void" style="text;strokeColor=none;fillColor=none;align=left;verticalAlign=top;spacingLeft=4;spacingRight=4;overflow=hidden;rotatable=0;points=[[0,0.5],[1,0.5]];portConstraint=eastwest;" parent="TxLPmFs_sCvqqsQRuhD0-22" vertex="1">
          <mxGeometry y="138" width="280" height="26" as="geometry" />
        </mxCell>
        <mxCell id="TxLPmFs_sCvqqsQRuhD0-29" value="+ hasNewCode(): bool" style="text;strokeColor=none;fillColor=none;align=left;verticalAlign=top;spacingLeft=4;spacingRight=4;overflow=hidden;rotatable=0;points=[[0,0.5],[1,0.5]];portConstraint=eastwest;" parent="TxLPmFs_sCvqqsQRuhD0-22" vertex="1">
          <mxGeometry y="164" width="280" height="26" as="geometry" />
        </mxCell>
        <mxCell id="TxLPmFs_sCvqqsQRuhD0-30" value="+ getCode(): CodeCommand *" style="text;strokeColor=none;fillColor=none;align=left;verticalAlign=top;spacingLeft=4;spacingRight=4;overflow=hidden;rotatable=0;points=[[0,0.5],[1,0.5]];portConstraint=eastwest;" parent="TxLPmFs_sCvqqsQRuhD0-22" vertex="1">
          <mxGeometry y="190" width="280" height="26" as="geometry" />
        </mxCell>
        <mxCell id="TxLPmFs_sCvqqsQRuhD0-31" value="+ codeIsDoubled(com: CodeCommand *): bool" style="text;strokeColor=none;fillColor=none;align=left;verticalAlign=top;spacingLeft=4;spacingRight=4;overflow=hidden;rotatable=0;points=[[0,0.5],[1,0.5]];portConstraint=eastwest;" parent="TxLPmFs_sCvqqsQRuhD0-22" vertex="1">
          <mxGeometry y="216" width="280" height="26" as="geometry" />
        </mxCell>
        <mxCell id="TxLPmFs_sCvqqsQRuhD0-32" value="+ print(): void" style="text;strokeColor=none;fillColor=none;align=left;verticalAlign=top;spacingLeft=4;spacingRight=4;overflow=hidden;rotatable=0;points=[[0,0.5],[1,0.5]];portConstraint=eastwest;" parent="TxLPmFs_sCvqqsQRuhD0-22" vertex="1">
          <mxGeometry y="242" width="280" height="26" as="geometry" />
        </mxCell>
        <mxCell id="TxLPmFs_sCvqqsQRuhD0-67" value="" style="endArrow=diamondThin;endFill=0;endSize=24;html=1;" parent="1" source="tup9LoGHmV5f9MwEpz5L-7" target="TxLPmFs_sCvqqsQRuhD0-22" edge="1">
          <mxGeometry width="160" relative="1" as="geometry">
            <mxPoint x="-1050" y="110" as="sourcePoint" />
            <mxPoint x="-930" y="150" as="targetPoint" />
          </mxGeometry>
        </mxCell>
        <mxCell id="TxLPmFs_sCvqqsQRuhD0-68" value="" style="endArrow=diamondThin;endFill=0;endSize=24;html=1;" parent="1" source="TxLPmFs_sCvqqsQRuhD0-22" target="TxLPmFs_sCvqqsQRuhD0-34" edge="1">
          <mxGeometry width="160" relative="1" as="geometry">
            <mxPoint x="-709.9977777777777" y="27" as="sourcePoint" />
            <mxPoint x="-706.8055555555555" y="-194" as="targetPoint" />
          </mxGeometry>
        </mxCell>
        <mxCell id="BVCmBET8UrxRTKi6fJFU-5" value="Request_Gadget" style="swimlane;fontStyle=1;align=center;verticalAlign=top;childLayout=stackLayout;horizontal=1;startSize=26;horizontalStack=0;resizeParent=1;resizeParentMax=0;resizeLast=0;collapsible=1;marginBottom=0;" parent="1" vertex="1">
          <mxGeometry x="2120" y="-1320" width="360" height="424" as="geometry" />
        </mxCell>
        <mxCell id="BVCmBET8UrxRTKi6fJFU-6" value="# type: GADGET_TYPE" style="text;strokeColor=none;fillColor=none;align=left;verticalAlign=top;spacingLeft=4;spacingRight=4;overflow=hidden;rotatable=0;points=[[0,0.5],[1,0.5]];portConstraint=eastwest;" parent="BVCmBET8UrxRTKi6fJFU-5" vertex="1">
          <mxGeometry y="26" width="360" height="26" as="geometry" />
        </mxCell>
        <mxCell id="Vv94dgR8Xj495JDutTfT-27" value="# request_gadget_is_ready_: bool" style="text;strokeColor=none;fillColor=none;align=left;verticalAlign=top;spacingLeft=4;spacingRight=4;overflow=hidden;rotatable=0;points=[[0,0.5],[1,0.5]];portConstraint=eastwest;" parent="BVCmBET8UrxRTKi6fJFU-5" vertex="1">
          <mxGeometry y="52" width="360" height="26" as="geometry" />
        </mxCell>
        <mxCell id="Vv94dgR8Xj495JDutTfT-28" value="# in_request_queue_: QueueHandle_t" style="text;strokeColor=none;fillColor=none;align=left;verticalAlign=top;spacingLeft=4;spacingRight=4;overflow=hidden;rotatable=0;points=[[0,0.5],[1,0.5]];portConstraint=eastwest;" parent="BVCmBET8UrxRTKi6fJFU-5" vertex="1">
          <mxGeometry y="78" width="360" height="26" as="geometry" />
        </mxCell>
        <mxCell id="Vv94dgR8Xj495JDutTfT-29" value="# out_request_queue_: QueueHandle_t" style="text;strokeColor=none;fillColor=none;align=left;verticalAlign=top;spacingLeft=4;spacingRight=4;overflow=hidden;rotatable=0;points=[[0,0.5],[1,0.5]];portConstraint=eastwest;" parent="BVCmBET8UrxRTKi6fJFU-5" vertex="1">
          <mxGeometry y="104" width="360" height="26" as="geometry" />
        </mxCell>
        <mxCell id="BVCmBET8UrxRTKi6fJFU-7" value="" style="line;strokeWidth=1;fillColor=none;align=left;verticalAlign=middle;spacingTop=-1;spacingLeft=3;spacingRight=3;rotatable=0;labelPosition=right;points=[];portConstraint=eastwest;" parent="BVCmBET8UrxRTKi6fJFU-5" vertex="1">
          <mxGeometry y="130" width="360" height="8" as="geometry" />
        </mxCell>
        <mxCell id="BVCmBET8UrxRTKi6fJFU-8" value="# addIncomingRequest(request: Request *): void" style="text;strokeColor=none;fillColor=none;align=left;verticalAlign=top;spacingLeft=4;spacingRight=4;overflow=hidden;rotatable=0;points=[[0,0.5],[1,0.5]];portConstraint=eastwest;" parent="BVCmBET8UrxRTKi6fJFU-5" vertex="1">
          <mxGeometry y="138" width="360" height="26" as="geometry" />
        </mxCell>
        <mxCell id="Vv94dgR8Xj495JDutTfT-32" value="# executeRequestSending(req: Request *): void" style="text;strokeColor=none;fillColor=none;align=left;verticalAlign=top;spacingLeft=4;spacingRight=4;overflow=hidden;rotatable=0;points=[[0,0.5],[1,0.5]];portConstraint=eastwest;fontStyle=2" parent="BVCmBET8UrxRTKi6fJFU-5" vertex="1">
          <mxGeometry y="164" width="360" height="26" as="geometry" />
        </mxCell>
        <mxCell id="Vv94dgR8Xj495JDutTfT-33" value="# sendQueuedItems(): void" style="text;strokeColor=none;fillColor=none;align=left;verticalAlign=top;spacingLeft=4;spacingRight=4;overflow=hidden;rotatable=0;points=[[0,0.5],[1,0.5]];portConstraint=eastwest;" parent="BVCmBET8UrxRTKi6fJFU-5" vertex="1">
          <mxGeometry y="190" width="360" height="26" as="geometry" />
        </mxCell>
        <mxCell id="Vv94dgR8Xj495JDutTfT-34" value="+ Request_Gadget()" style="text;strokeColor=none;fillColor=none;align=left;verticalAlign=top;spacingLeft=4;spacingRight=4;overflow=hidden;rotatable=0;points=[[0,0.5],[1,0.5]];portConstraint=eastwest;" parent="BVCmBET8UrxRTKi6fJFU-5" vertex="1">
          <mxGeometry y="216" width="360" height="26" as="geometry" />
        </mxCell>
        <mxCell id="Vv94dgR8Xj495JDutTfT-35" value="+ Request_Gadget(t: GADGET_TYPE, data: JsonObject)" style="text;strokeColor=none;fillColor=none;align=left;verticalAlign=top;spacingLeft=4;spacingRight=4;overflow=hidden;rotatable=0;points=[[0,0.5],[1,0.5]];portConstraint=eastwest;" parent="BVCmBET8UrxRTKi6fJFU-5" vertex="1">
          <mxGeometry y="242" width="360" height="26" as="geometry" />
        </mxCell>
        <mxCell id="Vv94dgR8Xj495JDutTfT-36" value="+ requestGadgetIsReady(): bool" style="text;strokeColor=none;fillColor=none;align=left;verticalAlign=top;spacingLeft=4;spacingRight=4;overflow=hidden;rotatable=0;points=[[0,0.5],[1,0.5]];portConstraint=eastwest;" parent="BVCmBET8UrxRTKi6fJFU-5" vertex="1">
          <mxGeometry y="268" width="360" height="26" as="geometry" />
        </mxCell>
        <mxCell id="Vv94dgR8Xj495JDutTfT-37" value="+ getGadgetType(): GADGET_TYPE" style="text;strokeColor=none;fillColor=none;align=left;verticalAlign=top;spacingLeft=4;spacingRight=4;overflow=hidden;rotatable=0;points=[[0,0.5],[1,0.5]];portConstraint=eastwest;" parent="BVCmBET8UrxRTKi6fJFU-5" vertex="1">
          <mxGeometry y="294" width="360" height="26" as="geometry" />
        </mxCell>
        <mxCell id="Vv94dgR8Xj495JDutTfT-39" value="+ hasRequest(): bool" style="text;strokeColor=none;fillColor=none;align=left;verticalAlign=top;spacingLeft=4;spacingRight=4;overflow=hidden;rotatable=0;points=[[0,0.5],[1,0.5]];portConstraint=eastwest;" parent="BVCmBET8UrxRTKi6fJFU-5" vertex="1">
          <mxGeometry y="320" width="360" height="26" as="geometry" />
        </mxCell>
        <mxCell id="Vv94dgR8Xj495JDutTfT-40" value="+ getRequest(): Request *" style="text;strokeColor=none;fillColor=none;align=left;verticalAlign=top;spacingLeft=4;spacingRight=4;overflow=hidden;rotatable=0;points=[[0,0.5],[1,0.5]];portConstraint=eastwest;" parent="BVCmBET8UrxRTKi6fJFU-5" vertex="1">
          <mxGeometry y="346" width="360" height="26" as="geometry" />
        </mxCell>
        <mxCell id="Vv94dgR8Xj495JDutTfT-41" value="+ sendRequest(request: Request *): void" style="text;strokeColor=none;fillColor=none;align=left;verticalAlign=top;spacingLeft=4;spacingRight=4;overflow=hidden;rotatable=0;points=[[0,0.5],[1,0.5]];portConstraint=eastwest;" parent="BVCmBET8UrxRTKi6fJFU-5" vertex="1">
          <mxGeometry y="372" width="360" height="26" as="geometry" />
        </mxCell>
        <mxCell id="Vv94dgR8Xj495JDutTfT-42" value="+ refresh(): void" style="text;strokeColor=none;fillColor=none;align=left;verticalAlign=top;spacingLeft=4;spacingRight=4;overflow=hidden;rotatable=0;points=[[0,0.5],[1,0.5]];portConstraint=eastwest;fontStyle=2" parent="BVCmBET8UrxRTKi6fJFU-5" vertex="1">
          <mxGeometry y="398" width="360" height="26" as="geometry" />
        </mxCell>
        <mxCell id="rAZSYZIJ4b-KAplYexjY-1" value="IR_Connector" style="swimlane;fontStyle=1;align=center;verticalAlign=top;childLayout=stackLayout;horizontal=1;startSize=26;horizontalStack=0;resizeParent=1;resizeParentMax=0;resizeLast=0;collapsible=1;marginBottom=0;" parent="1" vertex="1">
          <mxGeometry x="1400" y="-240" width="360" height="194" as="geometry" />
        </mxCell>
        <mxCell id="rAZSYZIJ4b-KAplYexjY-2" value="ir_gadget: IR_Gadget *" style="text;strokeColor=none;fillColor=none;align=left;verticalAlign=top;spacingLeft=4;spacingRight=4;overflow=hidden;rotatable=0;points=[[0,0.5],[1,0.5]];portConstraint=eastwest;" parent="rAZSYZIJ4b-KAplYexjY-1" vertex="1">
          <mxGeometry y="26" width="360" height="26" as="geometry" />
        </mxCell>
        <mxCell id="rAZSYZIJ4b-KAplYexjY-5" value="has_ir_: bool" style="text;strokeColor=none;fillColor=none;align=left;verticalAlign=top;spacingLeft=4;spacingRight=4;overflow=hidden;rotatable=0;points=[[0,0.5],[1,0.5]];portConstraint=eastwest;" parent="rAZSYZIJ4b-KAplYexjY-1" vertex="1">
          <mxGeometry y="52" width="360" height="26" as="geometry" />
        </mxCell>
        <mxCell id="rAZSYZIJ4b-KAplYexjY-3" value="" style="line;strokeWidth=1;fillColor=none;align=left;verticalAlign=middle;spacingTop=-1;spacingLeft=3;spacingRight=3;rotatable=0;labelPosition=right;points=[];portConstraint=eastwest;" parent="rAZSYZIJ4b-KAplYexjY-1" vertex="1">
          <mxGeometry y="78" width="360" height="8" as="geometry" />
        </mxCell>
        <mxCell id="rAZSYZIJ4b-KAplYexjY-30" value="sendIR(command: unsigned long, com_type: uint8_t): bool" style="text;strokeColor=none;fillColor=none;align=left;verticalAlign=top;spacingLeft=4;spacingRight=4;overflow=hidden;rotatable=0;points=[[0,0.5],[1,0.5]];portConstraint=eastwest;" parent="rAZSYZIJ4b-KAplYexjY-1" vertex="1">
          <mxGeometry y="86" width="360" height="26" as="geometry" />
        </mxCell>
        <mxCell id="rAZSYZIJ4b-KAplYexjY-31" value="sendRawIR(raw_data: uint16_t [], content_length: uint8_t): bool" style="text;strokeColor=none;fillColor=none;align=left;verticalAlign=top;spacingLeft=4;spacingRight=4;overflow=hidden;rotatable=0;points=[[0,0.5],[1,0.5]];portConstraint=eastwest;" parent="rAZSYZIJ4b-KAplYexjY-1" vertex="1">
          <mxGeometry y="112" width="360" height="26" as="geometry" />
        </mxCell>
        <mxCell id="rAZSYZIJ4b-KAplYexjY-29" value="" style="line;strokeWidth=1;fillColor=none;align=left;verticalAlign=middle;spacingTop=-1;spacingLeft=3;spacingRight=3;rotatable=0;labelPosition=right;points=[];portConstraint=eastwest;" parent="rAZSYZIJ4b-KAplYexjY-1" vertex="1">
          <mxGeometry y="138" width="360" height="8" as="geometry" />
        </mxCell>
        <mxCell id="rAZSYZIJ4b-KAplYexjY-4" value="setIR(ir_gadget: IR_Gadget *): void" style="text;strokeColor=none;fillColor=none;align=left;verticalAlign=top;spacingLeft=4;spacingRight=4;overflow=hidden;rotatable=0;points=[[0,0.5],[1,0.5]];portConstraint=eastwest;" parent="rAZSYZIJ4b-KAplYexjY-1" vertex="1">
          <mxGeometry y="146" width="360" height="24" as="geometry" />
        </mxCell>
        <mxCell id="rAZSYZIJ4b-KAplYexjY-27" value="hasIR(): bool" style="text;strokeColor=none;fillColor=none;align=left;verticalAlign=top;spacingLeft=4;spacingRight=4;overflow=hidden;rotatable=0;points=[[0,0.5],[1,0.5]];portConstraint=eastwest;" parent="rAZSYZIJ4b-KAplYexjY-1" vertex="1">
          <mxGeometry y="170" width="360" height="24" as="geometry" />
        </mxCell>
        <mxCell id="rAZSYZIJ4b-KAplYexjY-21" value="Radio_Connector" style="swimlane;fontStyle=1;align=center;verticalAlign=top;childLayout=stackLayout;horizontal=1;startSize=26;horizontalStack=0;resizeParent=1;resizeParentMax=0;resizeLast=0;collapsible=1;marginBottom=0;" parent="1" vertex="1">
          <mxGeometry x="1800" y="-240" width="280" height="142" as="geometry" />
        </mxCell>
        <mxCell id="rAZSYZIJ4b-KAplYexjY-22" value="radio_gadget: Radio_Gadget *" style="text;strokeColor=none;fillColor=none;align=left;verticalAlign=top;spacingLeft=4;spacingRight=4;overflow=hidden;rotatable=0;points=[[0,0.5],[1,0.5]];portConstraint=eastwest;" parent="rAZSYZIJ4b-KAplYexjY-21" vertex="1">
          <mxGeometry y="26" width="280" height="26" as="geometry" />
        </mxCell>
        <mxCell id="rAZSYZIJ4b-KAplYexjY-23" value="has_radio_: bool" style="text;strokeColor=none;fillColor=none;align=left;verticalAlign=top;spacingLeft=4;spacingRight=4;overflow=hidden;rotatable=0;points=[[0,0.5],[1,0.5]];portConstraint=eastwest;" parent="rAZSYZIJ4b-KAplYexjY-21" vertex="1">
          <mxGeometry y="52" width="280" height="26" as="geometry" />
        </mxCell>
        <mxCell id="rAZSYZIJ4b-KAplYexjY-24" value="" style="line;strokeWidth=1;fillColor=none;align=left;verticalAlign=middle;spacingTop=-1;spacingLeft=3;spacingRight=3;rotatable=0;labelPosition=right;points=[];portConstraint=eastwest;" parent="rAZSYZIJ4b-KAplYexjY-21" vertex="1">
          <mxGeometry y="78" width="280" height="8" as="geometry" />
        </mxCell>
        <mxCell id="rAZSYZIJ4b-KAplYexjY-32" value="" style="line;strokeWidth=1;fillColor=none;align=left;verticalAlign=middle;spacingTop=-1;spacingLeft=3;spacingRight=3;rotatable=0;labelPosition=right;points=[];portConstraint=eastwest;" parent="rAZSYZIJ4b-KAplYexjY-21" vertex="1">
          <mxGeometry y="86" width="280" height="8" as="geometry" />
        </mxCell>
        <mxCell id="rAZSYZIJ4b-KAplYexjY-25" value="setradio(radio_gadget: Radio_Gadget *): void" style="text;strokeColor=none;fillColor=none;align=left;verticalAlign=top;spacingLeft=4;spacingRight=4;overflow=hidden;rotatable=0;points=[[0,0.5],[1,0.5]];portConstraint=eastwest;" parent="rAZSYZIJ4b-KAplYexjY-21" vertex="1">
          <mxGeometry y="94" width="280" height="24" as="geometry" />
        </mxCell>
        <mxCell id="rAZSYZIJ4b-KAplYexjY-28" value="hasRadio(): bool" style="text;strokeColor=none;fillColor=none;align=left;verticalAlign=top;spacingLeft=4;spacingRight=4;overflow=hidden;rotatable=0;points=[[0,0.5],[1,0.5]];portConstraint=eastwest;" parent="rAZSYZIJ4b-KAplYexjY-21" vertex="1">
          <mxGeometry y="118" width="280" height="24" as="geometry" />
        </mxCell>
        <mxCell id="Vv94dgR8Xj495JDutTfT-9" value="Request" style="swimlane;fontStyle=1;align=center;verticalAlign=top;childLayout=stackLayout;horizontal=1;startSize=26;horizontalStack=0;resizeParent=1;resizeParentMax=0;resizeLast=0;collapsible=1;marginBottom=0;" parent="1" vertex="1">
          <mxGeometry x="2480" y="-1840" width="560" height="346" as="geometry" />
        </mxCell>
        <mxCell id="Vv94dgR8Xj495JDutTfT-10" value="- body: [char]" style="text;strokeColor=none;fillColor=none;align=left;verticalAlign=top;spacingLeft=4;spacingRight=4;overflow=hidden;rotatable=0;points=[[0,0.5],[1,0.5]];portConstraint=eastwest;" parent="Vv94dgR8Xj495JDutTfT-9" vertex="1">
          <mxGeometry y="26" width="560" height="26" as="geometry" />
        </mxCell>
        <mxCell id="Vv94dgR8Xj495JDutTfT-13" value="- path: [char]" style="text;strokeColor=none;fillColor=none;align=left;verticalAlign=top;spacingLeft=4;spacingRight=4;overflow=hidden;rotatable=0;points=[[0,0.5],[1,0.5]];portConstraint=eastwest;" parent="Vv94dgR8Xj495JDutTfT-9" vertex="1">
          <mxGeometry y="52" width="560" height="26" as="geometry" />
        </mxCell>
        <mxCell id="Vv94dgR8Xj495JDutTfT-14" value="- send_answer_: std::function&lt;void(Request *)&gt;" style="text;strokeColor=none;fillColor=none;align=left;verticalAlign=top;spacingLeft=4;spacingRight=4;overflow=hidden;rotatable=0;points=[[0,0.5],[1,0.5]];portConstraint=eastwest;" parent="Vv94dgR8Xj495JDutTfT-9" vertex="1">
          <mxGeometry y="78" width="560" height="26" as="geometry" />
        </mxCell>
        <mxCell id="Vv94dgR8Xj495JDutTfT-12" value="# can_respond_: bool" style="text;strokeColor=none;fillColor=none;align=left;verticalAlign=top;spacingLeft=4;spacingRight=4;overflow=hidden;rotatable=0;points=[[0,0.5],[1,0.5]];portConstraint=eastwest;" parent="Vv94dgR8Xj495JDutTfT-9" vertex="1">
          <mxGeometry y="104" width="560" height="26" as="geometry" />
        </mxCell>
        <mxCell id="Vv94dgR8Xj495JDutTfT-15" value="# needs_response_: bool" style="text;strokeColor=none;fillColor=none;align=left;verticalAlign=top;spacingLeft=4;spacingRight=4;overflow=hidden;rotatable=0;points=[[0,0.5],[1,0.5]];portConstraint=eastwest;" parent="Vv94dgR8Xj495JDutTfT-9" vertex="1">
          <mxGeometry y="130" width="560" height="26" as="geometry" />
        </mxCell>
        <mxCell id="Vv94dgR8Xj495JDutTfT-11" value="" style="line;strokeWidth=1;fillColor=none;align=left;verticalAlign=middle;spacingTop=-1;spacingLeft=3;spacingRight=3;rotatable=0;labelPosition=right;points=[];portConstraint=eastwest;" parent="Vv94dgR8Xj495JDutTfT-9" vertex="1">
          <mxGeometry y="156" width="560" height="8" as="geometry" />
        </mxCell>
        <mxCell id="Vv94dgR8Xj495JDutTfT-16" value="Request(req_path: const char *, req_body: const char *)" style="text;strokeColor=none;fillColor=none;align=left;verticalAlign=top;spacingLeft=4;spacingRight=4;overflow=hidden;rotatable=0;points=[[0,0.5],[1,0.5]];portConstraint=eastwest;" parent="Vv94dgR8Xj495JDutTfT-9" vertex="1">
          <mxGeometry y="164" width="560" height="26" as="geometry" />
        </mxCell>
        <mxCell id="Vv94dgR8Xj495JDutTfT-17" value="Request(req_path: const char *, req_body: const char *, send_answer_: std::function&lt;void(Request *)&gt;)" style="text;strokeColor=none;fillColor=none;align=left;verticalAlign=top;spacingLeft=4;spacingRight=4;overflow=hidden;rotatable=0;points=[[0,0.5],[1,0.5]];portConstraint=eastwest;" parent="Vv94dgR8Xj495JDutTfT-9" vertex="1">
          <mxGeometry y="190" width="560" height="26" as="geometry" />
        </mxCell>
        <mxCell id="Vv94dgR8Xj495JDutTfT-18" value="~Request()" style="text;strokeColor=none;fillColor=none;align=left;verticalAlign=top;spacingLeft=4;spacingRight=4;overflow=hidden;rotatable=0;points=[[0,0.5],[1,0.5]];portConstraint=eastwest;" parent="Vv94dgR8Xj495JDutTfT-9" vertex="1">
          <mxGeometry y="216" width="560" height="26" as="geometry" />
        </mxCell>
        <mxCell id="Vv94dgR8Xj495JDutTfT-19" value="+ getPath(): const char *" style="text;strokeColor=none;fillColor=none;align=left;verticalAlign=top;spacingLeft=4;spacingRight=4;overflow=hidden;rotatable=0;points=[[0,0.5],[1,0.5]];portConstraint=eastwest;" parent="Vv94dgR8Xj495JDutTfT-9" vertex="1">
          <mxGeometry y="242" width="560" height="26" as="geometry" />
        </mxCell>
        <mxCell id="Vv94dgR8Xj495JDutTfT-20" value="+ getBody(): const char *" style="text;strokeColor=none;fillColor=none;align=left;verticalAlign=top;spacingLeft=4;spacingRight=4;overflow=hidden;rotatable=0;points=[[0,0.5],[1,0.5]];portConstraint=eastwest;" parent="Vv94dgR8Xj495JDutTfT-9" vertex="1">
          <mxGeometry y="268" width="560" height="26" as="geometry" />
        </mxCell>
        <mxCell id="Vv94dgR8Xj495JDutTfT-21" value="+ respond(res_path: const char *, res_body: const char *)" style="text;strokeColor=none;fillColor=none;align=left;verticalAlign=top;spacingLeft=4;spacingRight=4;overflow=hidden;rotatable=0;points=[[0,0.5],[1,0.5]];portConstraint=eastwest;" parent="Vv94dgR8Xj495JDutTfT-9" vertex="1">
          <mxGeometry y="294" width="560" height="26" as="geometry" />
        </mxCell>
        <mxCell id="Vv94dgR8Xj495JDutTfT-22" value="+ dontRespond()" style="text;strokeColor=none;fillColor=none;align=left;verticalAlign=top;spacingLeft=4;spacingRight=4;overflow=hidden;rotatable=0;points=[[0,0.5],[1,0.5]];portConstraint=eastwest;" parent="Vv94dgR8Xj495JDutTfT-9" vertex="1">
          <mxGeometry y="320" width="560" height="26" as="geometry" />
        </mxCell>
        <mxCell id="Vv94dgR8Xj495JDutTfT-30" value="" style="endArrow=diamondThin;endFill=0;endSize=24;html=1;" parent="1" source="Vv94dgR8Xj495JDutTfT-23" target="BVCmBET8UrxRTKi6fJFU-5" edge="1">
          <mxGeometry width="160" relative="1" as="geometry">
            <mxPoint x="2130" y="-1780" as="sourcePoint" />
            <mxPoint x="2110" y="-1520" as="targetPoint" />
          </mxGeometry>
        </mxCell>
        <mxCell id="Vv94dgR8Xj495JDutTfT-31" value="" style="endArrow=diamondThin;endFill=0;endSize=24;html=1;" parent="1" source="Vv94dgR8Xj495JDutTfT-9" target="BVCmBET8UrxRTKi6fJFU-5" edge="1">
          <mxGeometry width="160" relative="1" as="geometry">
            <mxPoint x="2185.69" y="-1770" as="sourcePoint" />
            <mxPoint x="2329.9704428044283" y="-1310" as="targetPoint" />
          </mxGeometry>
        </mxCell>
        <mxCell id="BVCmBET8UrxRTKi6fJFU-13" value="IR_Gadget" style="swimlane;fontStyle=1;align=center;verticalAlign=top;childLayout=stackLayout;horizontal=1;startSize=26;horizontalStack=0;resizeParent=1;resizeParentMax=0;resizeLast=0;collapsible=1;marginBottom=0;" parent="1" vertex="1">
          <mxGeometry x="1550" y="-738" width="160" height="86" as="geometry" />
        </mxCell>
        <mxCell id="BVCmBET8UrxRTKi6fJFU-14" value="+ field: type" style="text;strokeColor=none;fillColor=none;align=left;verticalAlign=top;spacingLeft=4;spacingRight=4;overflow=hidden;rotatable=0;points=[[0,0.5],[1,0.5]];portConstraint=eastwest;" parent="BVCmBET8UrxRTKi6fJFU-13" vertex="1">
          <mxGeometry y="26" width="160" height="26" as="geometry" />
        </mxCell>
        <mxCell id="BVCmBET8UrxRTKi6fJFU-15" value="" style="line;strokeWidth=1;fillColor=none;align=left;verticalAlign=middle;spacingTop=-1;spacingLeft=3;spacingRight=3;rotatable=0;labelPosition=right;points=[];portConstraint=eastwest;" parent="BVCmBET8UrxRTKi6fJFU-13" vertex="1">
          <mxGeometry y="52" width="160" height="8" as="geometry" />
        </mxCell>
        <mxCell id="BVCmBET8UrxRTKi6fJFU-16" value="+ method(type): type" style="text;strokeColor=none;fillColor=none;align=left;verticalAlign=top;spacingLeft=4;spacingRight=4;overflow=hidden;rotatable=0;points=[[0,0.5],[1,0.5]];portConstraint=eastwest;" parent="BVCmBET8UrxRTKi6fJFU-13" vertex="1">
          <mxGeometry y="60" width="160" height="26" as="geometry" />
        </mxCell>
        <mxCell id="BVCmBET8UrxRTKi6fJFU-17" value="Radio_Gadget" style="swimlane;fontStyle=1;align=center;verticalAlign=top;childLayout=stackLayout;horizontal=1;startSize=26;horizontalStack=0;resizeParent=1;resizeParentMax=0;resizeLast=0;collapsible=1;marginBottom=0;" parent="1" vertex="1">
          <mxGeometry x="1750" y="-739.5" width="160" height="86" as="geometry" />
        </mxCell>
        <mxCell id="BVCmBET8UrxRTKi6fJFU-18" value="+ field: type" style="text;strokeColor=none;fillColor=none;align=left;verticalAlign=top;spacingLeft=4;spacingRight=4;overflow=hidden;rotatable=0;points=[[0,0.5],[1,0.5]];portConstraint=eastwest;" parent="BVCmBET8UrxRTKi6fJFU-17" vertex="1">
          <mxGeometry y="26" width="160" height="26" as="geometry" />
        </mxCell>
        <mxCell id="BVCmBET8UrxRTKi6fJFU-19" value="" style="line;strokeWidth=1;fillColor=none;align=left;verticalAlign=middle;spacingTop=-1;spacingLeft=3;spacingRight=3;rotatable=0;labelPosition=right;points=[];portConstraint=eastwest;" parent="BVCmBET8UrxRTKi6fJFU-17" vertex="1">
          <mxGeometry y="52" width="160" height="8" as="geometry" />
        </mxCell>
        <mxCell id="BVCmBET8UrxRTKi6fJFU-20" value="+ method(type): type" style="text;strokeColor=none;fillColor=none;align=left;verticalAlign=top;spacingLeft=4;spacingRight=4;overflow=hidden;rotatable=0;points=[[0,0.5],[1,0.5]];portConstraint=eastwest;" parent="BVCmBET8UrxRTKi6fJFU-17" vertex="1">
          <mxGeometry y="60" width="160" height="26" as="geometry" />
        </mxCell>
        <mxCell id="BVCmBET8UrxRTKi6fJFU-21" value="Serial_Gadget" style="swimlane;fontStyle=1;align=center;verticalAlign=top;childLayout=stackLayout;horizontal=1;startSize=26;horizontalStack=0;resizeParent=1;resizeParentMax=0;resizeLast=0;collapsible=1;marginBottom=0;" parent="1" vertex="1">
          <mxGeometry x="1940" y="-739.5" width="160" height="86" as="geometry" />
        </mxCell>
        <mxCell id="BVCmBET8UrxRTKi6fJFU-22" value="+ field: type" style="text;strokeColor=none;fillColor=none;align=left;verticalAlign=top;spacingLeft=4;spacingRight=4;overflow=hidden;rotatable=0;points=[[0,0.5],[1,0.5]];portConstraint=eastwest;" parent="BVCmBET8UrxRTKi6fJFU-21" vertex="1">
          <mxGeometry y="26" width="160" height="26" as="geometry" />
        </mxCell>
        <mxCell id="BVCmBET8UrxRTKi6fJFU-23" value="" style="line;strokeWidth=1;fillColor=none;align=left;verticalAlign=middle;spacingTop=-1;spacingLeft=3;spacingRight=3;rotatable=0;labelPosition=right;points=[];portConstraint=eastwest;" parent="BVCmBET8UrxRTKi6fJFU-21" vertex="1">
          <mxGeometry y="52" width="160" height="8" as="geometry" />
        </mxCell>
        <mxCell id="BVCmBET8UrxRTKi6fJFU-24" value="+ method(type): type" style="text;strokeColor=none;fillColor=none;align=left;verticalAlign=top;spacingLeft=4;spacingRight=4;overflow=hidden;rotatable=0;points=[[0,0.5],[1,0.5]];portConstraint=eastwest;" parent="BVCmBET8UrxRTKi6fJFU-21" vertex="1">
          <mxGeometry y="60" width="160" height="26" as="geometry" />
        </mxCell>
        <mxCell id="BVCmBET8UrxRTKi6fJFU-25" value="MQTT_Gadget" style="swimlane;fontStyle=1;align=center;verticalAlign=top;childLayout=stackLayout;horizontal=1;startSize=26;horizontalStack=0;resizeParent=1;resizeParentMax=0;resizeLast=0;collapsible=1;marginBottom=0;" parent="1" vertex="1">
          <mxGeometry x="2130" y="-739.5" width="160" height="86" as="geometry" />
        </mxCell>
        <mxCell id="BVCmBET8UrxRTKi6fJFU-26" value="+ field: type" style="text;strokeColor=none;fillColor=none;align=left;verticalAlign=top;spacingLeft=4;spacingRight=4;overflow=hidden;rotatable=0;points=[[0,0.5],[1,0.5]];portConstraint=eastwest;" parent="BVCmBET8UrxRTKi6fJFU-25" vertex="1">
          <mxGeometry y="26" width="160" height="26" as="geometry" />
        </mxCell>
        <mxCell id="BVCmBET8UrxRTKi6fJFU-27" value="" style="line;strokeWidth=1;fillColor=none;align=left;verticalAlign=middle;spacingTop=-1;spacingLeft=3;spacingRight=3;rotatable=0;labelPosition=right;points=[];portConstraint=eastwest;" parent="BVCmBET8UrxRTKi6fJFU-25" vertex="1">
          <mxGeometry y="52" width="160" height="8" as="geometry" />
        </mxCell>
        <mxCell id="BVCmBET8UrxRTKi6fJFU-28" value="+ method(type): type" style="text;strokeColor=none;fillColor=none;align=left;verticalAlign=top;spacingLeft=4;spacingRight=4;overflow=hidden;rotatable=0;points=[[0,0.5],[1,0.5]];portConstraint=eastwest;" parent="BVCmBET8UrxRTKi6fJFU-25" vertex="1">
          <mxGeometry y="60" width="160" height="26" as="geometry" />
        </mxCell>
        <mxCell id="BVCmBET8UrxRTKi6fJFU-29" value="REST_Gadget" style="swimlane;fontStyle=1;align=center;verticalAlign=top;childLayout=stackLayout;horizontal=1;startSize=26;horizontalStack=0;resizeParent=1;resizeParentMax=0;resizeLast=0;collapsible=1;marginBottom=0;" parent="1" vertex="1">
          <mxGeometry x="2329.97" y="-739.5" width="160" height="86" as="geometry" />
        </mxCell>
        <mxCell id="BVCmBET8UrxRTKi6fJFU-30" value="+ field: type" style="text;strokeColor=none;fillColor=none;align=left;verticalAlign=top;spacingLeft=4;spacingRight=4;overflow=hidden;rotatable=0;points=[[0,0.5],[1,0.5]];portConstraint=eastwest;" parent="BVCmBET8UrxRTKi6fJFU-29" vertex="1">
          <mxGeometry y="26" width="160" height="26" as="geometry" />
        </mxCell>
        <mxCell id="BVCmBET8UrxRTKi6fJFU-31" value="" style="line;strokeWidth=1;fillColor=none;align=left;verticalAlign=middle;spacingTop=-1;spacingLeft=3;spacingRight=3;rotatable=0;labelPosition=right;points=[];portConstraint=eastwest;" parent="BVCmBET8UrxRTKi6fJFU-29" vertex="1">
          <mxGeometry y="52" width="160" height="8" as="geometry" />
        </mxCell>
        <mxCell id="BVCmBET8UrxRTKi6fJFU-32" value="+ method(type): type" style="text;strokeColor=none;fillColor=none;align=left;verticalAlign=top;spacingLeft=4;spacingRight=4;overflow=hidden;rotatable=0;points=[[0,0.5],[1,0.5]];portConstraint=eastwest;" parent="BVCmBET8UrxRTKi6fJFU-29" vertex="1">
          <mxGeometry y="60" width="160" height="26" as="geometry" />
        </mxCell>
        <mxCell id="BVCmBET8UrxRTKi6fJFU-40" value="Network Gadget Implementations" style="text;html=1;strokeColor=none;fillColor=none;align=center;verticalAlign=middle;whiteSpace=wrap;rounded=0;shadow=0;glass=0;dashed=1;dashPattern=1 1;comic=0;opacity=60;fontSize=31;fontColor=#FF8000;" parent="1" vertex="1">
          <mxGeometry x="1768.75" y="-800" width="492.5" height="40" as="geometry" />
        </mxCell>
        <mxCell id="Vv94dgR8Xj495JDutTfT-23" value="&lt;&lt;enumeration&gt;&gt;&#xa;GADGET_TYPE" style="swimlane;fontStyle=0;childLayout=stackLayout;horizontal=1;startSize=26;fillColor=none;horizontalStack=0;resizeParent=1;resizeParentMax=0;resizeLast=0;collapsible=1;marginBottom=0;" parent="1" vertex="1">
          <mxGeometry x="2200" y="-1586" width="160" height="104" as="geometry" />
        </mxCell>
        <mxCell id="Vv94dgR8Xj495JDutTfT-24" value="MQTT_G" style="text;strokeColor=none;fillColor=none;align=left;verticalAlign=top;spacingLeft=4;spacingRight=4;overflow=hidden;rotatable=0;points=[[0,0.5],[1,0.5]];portConstraint=eastwest;" parent="Vv94dgR8Xj495JDutTfT-23" vertex="1">
          <mxGeometry y="26" width="160" height="26" as="geometry" />
        </mxCell>
        <mxCell id="Vv94dgR8Xj495JDutTfT-25" value="SERiAL_G" style="text;strokeColor=none;fillColor=none;align=left;verticalAlign=top;spacingLeft=4;spacingRight=4;overflow=hidden;rotatable=0;points=[[0,0.5],[1,0.5]];portConstraint=eastwest;" parent="Vv94dgR8Xj495JDutTfT-23" vertex="1">
          <mxGeometry y="52" width="160" height="26" as="geometry" />
        </mxCell>
        <mxCell id="Vv94dgR8Xj495JDutTfT-26" value="NONE_G" style="text;strokeColor=none;fillColor=none;align=left;verticalAlign=top;spacingLeft=4;spacingRight=4;overflow=hidden;rotatable=0;points=[[0,0.5],[1,0.5]];portConstraint=eastwest;" parent="Vv94dgR8Xj495JDutTfT-23" vertex="1">
          <mxGeometry y="78" width="160" height="26" as="geometry" />
        </mxCell>
        <mxCell id="FZHaBAz50RAus1CbGzk9-1" value="System_Storage" style="swimlane;fontStyle=1;align=center;verticalAlign=top;childLayout=stackLayout;horizontal=1;startSize=26;horizontalStack=0;resizeParent=1;resizeParentMax=0;resizeLast=0;collapsible=1;marginBottom=0;" parent="1" vertex="1">
          <mxGeometry x="380" y="-250" width="430" height="130" as="geometry" />
        </mxCell>
        <mxCell id="FZHaBAz50RAus1CbGzk9-4" value="+ readConfig(buffer: char *): bool" style="text;strokeColor=none;fillColor=none;align=left;verticalAlign=top;spacingLeft=4;spacingRight=4;overflow=hidden;rotatable=0;points=[[0,0.5],[1,0.5]];portConstraint=eastwest;" parent="FZHaBAz50RAus1CbGzk9-1" vertex="1">
          <mxGeometry y="26" width="430" height="26" as="geometry" />
        </mxCell>
        <mxCell id="FZHaBAz50RAus1CbGzk9-5" value="+ writeConfig(config_data: const char *): bool" style="text;strokeColor=none;fillColor=none;align=left;verticalAlign=top;spacingLeft=4;spacingRight=4;overflow=hidden;rotatable=0;points=[[0,0.5],[1,0.5]];portConstraint=eastwest;" parent="FZHaBAz50RAus1CbGzk9-1" vertex="1">
          <mxGeometry y="52" width="430" height="26" as="geometry" />
        </mxCell>
        <mxCell id="FZHaBAz50RAus1CbGzk9-11" value="+ updateConfig(category: const char *, config_data: JsonObject): bool" style="text;strokeColor=none;fillColor=none;align=left;verticalAlign=top;spacingLeft=4;spacingRight=4;overflow=hidden;rotatable=0;points=[[0,0.5],[1,0.5]];portConstraint=eastwest;" parent="FZHaBAz50RAus1CbGzk9-1" vertex="1">
          <mxGeometry y="78" width="430" height="26" as="geometry" />
        </mxCell>
        <mxCell id="FZHaBAz50RAus1CbGzk9-12" value="+ resetConfig(): bool" style="text;strokeColor=none;fillColor=none;align=left;verticalAlign=top;spacingLeft=4;spacingRight=4;overflow=hidden;rotatable=0;points=[[0,0.5],[1,0.5]];portConstraint=eastwest;" parent="FZHaBAz50RAus1CbGzk9-1" vertex="1">
          <mxGeometry y="104" width="430" height="26" as="geometry" />
        </mxCell>
      </root>
    </mxGraphModel>
  </diagram>
  <diagram id="QhXat7l9OUQ7pQW6EfK5" name="Sequence Diagram">
    
    <mxGraphModel dx="925" dy="762" grid="1" gridSize="10" guides="1" tooltips="1" connect="1" arrows="1" fold="1" page="1" pageScale="1" pageWidth="827" pageHeight="1169" math="0" shadow="0">
      
      <root>
        
        <mxCell id="3bSDKnmku6XSPxeCNkpC-0" />
        
        <mxCell id="3bSDKnmku6XSPxeCNkpC-1" parent="3bSDKnmku6XSPxeCNkpC-0" />
        
        <mxCell id="N7pTtKHYTQ4L6rCnfdCQ-88" value="Code_Gadget" style="shape=umlLifeline;perimeter=lifelinePerimeter;whiteSpace=wrap;html=1;container=1;collapsible=0;recursiveResize=0;outlineConnect=0;" vertex="1" parent="3bSDKnmku6XSPxeCNkpC-1">
          
          <mxGeometry x="310" y="200" width="100" height="1440" as="geometry" />
          
        </mxCell>
        
        <mxCell id="N7pTtKHYTQ4L6rCnfdCQ-95" value="Main" style="shape=umlLifeline;perimeter=lifelinePerimeter;whiteSpace=wrap;html=1;container=1;collapsible=0;recursiveResize=0;outlineConnect=0;" vertex="1" parent="3bSDKnmku6XSPxeCNkpC-1">
          
          <mxGeometry x="30" y="200" width="100" height="1440" as="geometry" />
          
        </mxCell>
        
        <mxCell id="N7pTtKHYTQ4L6rCnfdCQ-1" value="" style="html=1;points=[];perimeter=orthogonalPerimeter;" vertex="1" parent="3bSDKnmku6XSPxeCNkpC-1">
          
          <mxGeometry x="75" y="280" width="10" height="1290" as="geometry" />
          
        </mxCell>
        
        <mxCell id="N7pTtKHYTQ4L6rCnfdCQ-9" value="" style="html=1;points=[];perimeter=orthogonalPerimeter;" vertex="1" parent="3bSDKnmku6XSPxeCNkpC-1">
          
          <mxGeometry x="355" y="360" width="10" height="30" as="geometry" />
          
        </mxCell>
        
        <mxCell id="N7pTtKHYTQ4L6rCnfdCQ-12" value="refresh()" style="html=1;verticalAlign=bottom;endArrow=block;entryX=0.024;entryY=0.025;dashed=1;entryDx=0;entryDy=0;entryPerimeter=0;" edge="1" target="N7pTtKHYTQ4L6rCnfdCQ-9" parent="3bSDKnmku6XSPxeCNkpC-1" source="N7pTtKHYTQ4L6rCnfdCQ-26">
          
          <mxGeometry relative="1" as="geometry">
            
            <mxPoint x="160" y="361" as="sourcePoint" />
            
            <mxPoint x="300" y="459.9999999999999" as="targetPoint" />
            
          </mxGeometry>
          
        </mxCell>
        
        <mxCell id="N7pTtKHYTQ4L6rCnfdCQ-14" value="" style="html=1;points=[];perimeter=orthogonalPerimeter;" vertex="1" parent="3bSDKnmku6XSPxeCNkpC-1">
          
          <mxGeometry x="355" y="420" width="10" height="30" as="geometry" />
          
        </mxCell>
        
        <mxCell id="N7pTtKHYTQ4L6rCnfdCQ-17" value="" style="html=1;points=[];perimeter=orthogonalPerimeter;" vertex="1" parent="3bSDKnmku6XSPxeCNkpC-1">
          
          <mxGeometry x="355" y="480" width="10" height="30" as="geometry" />
          
        </mxCell>
        
        <mxCell id="N7pTtKHYTQ4L6rCnfdCQ-23" value="refreshConnectors()" style="edgeStyle=orthogonalEdgeStyle;html=1;align=left;spacingLeft=2;endArrow=block;rounded=0;entryX=1;entryY=0;dashed=1;exitX=1.033;exitY=0.001;exitDx=0;exitDy=0;exitPerimeter=0;" edge="1" target="N7pTtKHYTQ4L6rCnfdCQ-22" parent="3bSDKnmku6XSPxeCNkpC-1" source="N7pTtKHYTQ4L6rCnfdCQ-1">
          
          <mxGeometry relative="1" as="geometry">
            
            <mxPoint x="90" y="280" as="sourcePoint" />
            
            <Array as="points">
              
              <mxPoint x="115" y="281" />
              
              <mxPoint x="115" y="300" />
              
            </Array>
            
          </mxGeometry>
          
        </mxCell>
        
        <mxCell id="N7pTtKHYTQ4L6rCnfdCQ-22" value="" style="html=1;points=[];perimeter=orthogonalPerimeter;" vertex="1" parent="3bSDKnmku6XSPxeCNkpC-1">
          
          <mxGeometry x="80" y="300" width="10" height="1150" as="geometry" />
          
        </mxCell>
        
        <mxCell id="N7pTtKHYTQ4L6rCnfdCQ-26" value="" style="html=1;points=[];perimeter=orthogonalPerimeter;" vertex="1" parent="3bSDKnmku6XSPxeCNkpC-1">
          
          <mxGeometry x="85" y="340" width="10" height="420" as="geometry" />
          
        </mxCell>
        
        <mxCell id="N7pTtKHYTQ4L6rCnfdCQ-27" value="handleCodeConnector(Code_Gadget)" style="edgeStyle=orthogonalEdgeStyle;html=1;align=left;spacingLeft=2;endArrow=block;rounded=0;entryX=1;entryY=0;dashed=1;exitX=1.033;exitY=0.001;exitDx=0;exitDy=0;exitPerimeter=0;" edge="1" target="N7pTtKHYTQ4L6rCnfdCQ-26" parent="3bSDKnmku6XSPxeCNkpC-1">
          
          <mxGeometry relative="1" as="geometry">
            
            <mxPoint x="90.33000000000004" y="320.55" as="sourcePoint" />
            
            <Array as="points">
              
              <mxPoint x="120" y="321" />
              
              <mxPoint x="120" y="340" />
              
            </Array>
            
          </mxGeometry>
          
        </mxCell>
        
        <mxCell id="N7pTtKHYTQ4L6rCnfdCQ-29" value="forwardCommand(code)" style="edgeStyle=orthogonalEdgeStyle;html=1;align=left;spacingLeft=2;endArrow=block;rounded=0;entryX=1;entryY=0;dashed=1;exitX=1.033;exitY=0.001;exitDx=0;exitDy=0;exitPerimeter=0;" edge="1" target="N7pTtKHYTQ4L6rCnfdCQ-30" parent="3bSDKnmku6XSPxeCNkpC-1">
          
          <mxGeometry relative="1" as="geometry">
            
            <mxPoint x="95.33000000000004" y="540.06" as="sourcePoint" />
            
            <Array as="points">
              
              <mxPoint x="125" y="540.51" />
              
              <mxPoint x="125" y="559.51" />
              
            </Array>
            
          </mxGeometry>
          
        </mxCell>
        
        <mxCell id="N7pTtKHYTQ4L6rCnfdCQ-30" value="" style="html=1;points=[];perimeter=orthogonalPerimeter;" vertex="1" parent="3bSDKnmku6XSPxeCNkpC-1">
          
          <mxGeometry x="90" y="559.51" width="10" height="190.49" as="geometry" />
          
        </mxCell>
        
        <mxCell id="N7pTtKHYTQ4L6rCnfdCQ-38" value="hasCommand()" style="html=1;verticalAlign=bottom;endArrow=block;dashed=1;entryX=-0.006;entryY=0.005;entryDx=0;entryDy=0;entryPerimeter=0;" edge="1" parent="3bSDKnmku6XSPxeCNkpC-1" source="N7pTtKHYTQ4L6rCnfdCQ-26" target="N7pTtKHYTQ4L6rCnfdCQ-14">
          
          <mxGeometry relative="1" as="geometry">
            
            <mxPoint x="95" y="420" as="sourcePoint" />
            
            <mxPoint x="350" y="420" as="targetPoint" />
            
          </mxGeometry>
          
        </mxCell>
        
        <mxCell id="N7pTtKHYTQ4L6rCnfdCQ-39" value="getCommand()" style="html=1;verticalAlign=bottom;endArrow=block;dashed=1;entryX=-0.033;entryY=0.022;entryDx=0;entryDy=0;entryPerimeter=0;" edge="1" parent="3bSDKnmku6XSPxeCNkpC-1" source="N7pTtKHYTQ4L6rCnfdCQ-26" target="N7pTtKHYTQ4L6rCnfdCQ-17">
          
          <mxGeometry relative="1" as="geometry">
            
            <mxPoint x="100" y="479.83" as="sourcePoint" />
            
            <mxPoint x="340" y="480" as="targetPoint" />
            
          </mxGeometry>
          
        </mxCell>
        
        <mxCell id="N7pTtKHYTQ4L6rCnfdCQ-47" value="code" style="html=1;verticalAlign=bottom;endArrow=open;dashed=1;endSize=8;exitX=0;exitY=1.011;exitDx=0;exitDy=0;exitPerimeter=0;" edge="1" parent="3bSDKnmku6XSPxeCNkpC-1" source="N7pTtKHYTQ4L6rCnfdCQ-17" target="N7pTtKHYTQ4L6rCnfdCQ-26">
          
          <mxGeometry relative="1" as="geometry">
            
            <mxPoint x="220" y="510" as="targetPoint" />
            
            <mxPoint x="290" y="510" as="sourcePoint" />
            
          </mxGeometry>
          
        </mxCell>
        
        <mxCell id="N7pTtKHYTQ4L6rCnfdCQ-48" value="true" style="html=1;verticalAlign=bottom;endArrow=open;dashed=1;endSize=8;" edge="1" parent="3bSDKnmku6XSPxeCNkpC-1" target="N7pTtKHYTQ4L6rCnfdCQ-26">
          
          <mxGeometry relative="1" as="geometry">
            
            <mxPoint x="95" y="449.99999999999994" as="targetPoint" />
            
            <mxPoint x="355" y="450" as="sourcePoint" />
            
          </mxGeometry>
          
        </mxCell>
        
        <mxCell id="N7pTtKHYTQ4L6rCnfdCQ-49" value="SH_Gadget" style="shape=umlLifeline;perimeter=lifelinePerimeter;whiteSpace=wrap;html=1;container=1;collapsible=0;recursiveResize=0;outlineConnect=0;" vertex="1" parent="3bSDKnmku6XSPxeCNkpC-1">
          
          <mxGeometry x="870" y="200" width="100" height="1440" as="geometry" />
          
        </mxCell>
        
        <mxCell id="N7pTtKHYTQ4L6rCnfdCQ-111" value="" style="html=1;points=[];perimeter=orthogonalPerimeter;" vertex="1" parent="N7pTtKHYTQ4L6rCnfdCQ-49">
          
          <mxGeometry x="45" y="1159.97" width="10" height="30" as="geometry" />
          
        </mxCell>
        
        <mxCell id="N7pTtKHYTQ4L6rCnfdCQ-120" value="" style="html=1;points=[];perimeter=orthogonalPerimeter;" vertex="1" parent="N7pTtKHYTQ4L6rCnfdCQ-49">
          
          <mxGeometry x="45" y="1310" width="10" height="40" as="geometry" />
          
        </mxCell>
        
        <mxCell id="N7pTtKHYTQ4L6rCnfdCQ-50" value="" style="html=1;points=[];perimeter=orthogonalPerimeter;" vertex="1" parent="3bSDKnmku6XSPxeCNkpC-1">
          
          <mxGeometry x="915" y="590" width="10" height="150" as="geometry" />
          
        </mxCell>
        
        <mxCell id="N7pTtKHYTQ4L6rCnfdCQ-51" value="findMethodForCode()" style="edgeStyle=orthogonalEdgeStyle;html=1;align=left;spacingLeft=2;endArrow=block;rounded=0;dashed=1;" edge="1" parent="3bSDKnmku6XSPxeCNkpC-1" source="N7pTtKHYTQ4L6rCnfdCQ-50" target="N7pTtKHYTQ4L6rCnfdCQ-50">
          
          <mxGeometry relative="1" as="geometry">
            
            <mxPoint x="925" y="610.06" as="sourcePoint" />
            
            <Array as="points">
              
              <mxPoint x="955" y="610" />
              
              <mxPoint x="955" y="630" />
              
            </Array>
            
            <mxPoint x="925" y="630.06" as="targetPoint" />
            
            <mxPoint as="offset" />
            
          </mxGeometry>
          
        </mxCell>
        
        <mxCell id="N7pTtKHYTQ4L6rCnfdCQ-52" value="" style="html=1;points=[];perimeter=orthogonalPerimeter;" vertex="1" parent="3bSDKnmku6XSPxeCNkpC-1">
          
          <mxGeometry x="920" y="679.46" width="10" height="50.55" as="geometry" />
          
        </mxCell>
        
        <mxCell id="N7pTtKHYTQ4L6rCnfdCQ-53" value="handleMethodUpdate()" style="edgeStyle=orthogonalEdgeStyle;html=1;align=left;spacingLeft=2;endArrow=block;rounded=0;dashed=1;" edge="1" target="N7pTtKHYTQ4L6rCnfdCQ-52" parent="3bSDKnmku6XSPxeCNkpC-1" source="N7pTtKHYTQ4L6rCnfdCQ-50">
          
          <mxGeometry relative="1" as="geometry">
            
            <mxPoint x="935" y="660" as="sourcePoint" />
            
            <Array as="points">
              
              <mxPoint x="970" y="660" />
              
              <mxPoint x="970" y="680" />
              
            </Array>
            
          </mxGeometry>
          
        </mxCell>
        
        <mxCell id="N7pTtKHYTQ4L6rCnfdCQ-54" value="getCommand()" style="html=1;verticalAlign=bottom;endArrow=block;dashed=1;entryX=0.033;entryY=0.002;entryDx=0;entryDy=0;entryPerimeter=0;" edge="1" parent="3bSDKnmku6XSPxeCNkpC-1" source="N7pTtKHYTQ4L6rCnfdCQ-30" target="N7pTtKHYTQ4L6rCnfdCQ-50">
          
          <mxGeometry relative="1" as="geometry">
            
            <mxPoint x="110" y="590" as="sourcePoint" />
            
            <mxPoint x="620" y="590" as="targetPoint" />
            
          </mxGeometry>
          
        </mxCell>
        
        <mxCell id="N7pTtKHYTQ4L6rCnfdCQ-62" value="" style="html=1;points=[];perimeter=orthogonalPerimeter;" vertex="1" parent="3bSDKnmku6XSPxeCNkpC-1">
          
          <mxGeometry x="85" y="840" width="10" height="600" as="geometry" />
          
        </mxCell>
        
        <mxCell id="N7pTtKHYTQ4L6rCnfdCQ-63" value="handleRequestConnector(Request_Gadget)" style="edgeStyle=orthogonalEdgeStyle;html=1;align=left;spacingLeft=2;endArrow=block;rounded=0;entryX=1;entryY=0;dashed=1;" edge="1" target="N7pTtKHYTQ4L6rCnfdCQ-62" parent="3bSDKnmku6XSPxeCNkpC-1">
          
          <mxGeometry relative="1" as="geometry">
            
            <mxPoint x="90" y="820" as="sourcePoint" />
            
            <Array as="points">
              
              <mxPoint x="115" y="820" />
              
              <mxPoint x="115" y="840" />
              
            </Array>
            
          </mxGeometry>
          
        </mxCell>
        
        <mxCell id="N7pTtKHYTQ4L6rCnfdCQ-64" value="Request_Gadget" style="shape=umlLifeline;perimeter=lifelinePerimeter;whiteSpace=wrap;html=1;container=1;collapsible=0;recursiveResize=0;outlineConnect=0;" vertex="1" parent="3bSDKnmku6XSPxeCNkpC-1">
          
          <mxGeometry x="490" y="200" width="100" height="1440" as="geometry" />
          
        </mxCell>
        
        <mxCell id="N7pTtKHYTQ4L6rCnfdCQ-65" value="" style="html=1;points=[];perimeter=orthogonalPerimeter;" vertex="1" parent="N7pTtKHYTQ4L6rCnfdCQ-64">
          
          <mxGeometry x="45" y="660" width="10" height="30" as="geometry" />
          
        </mxCell>
        
        <mxCell id="N7pTtKHYTQ4L6rCnfdCQ-68" value="" style="html=1;points=[];perimeter=orthogonalPerimeter;" vertex="1" parent="N7pTtKHYTQ4L6rCnfdCQ-64">
          
          <mxGeometry x="45" y="720" width="10" height="30" as="geometry" />
          
        </mxCell>
        
        <mxCell id="N7pTtKHYTQ4L6rCnfdCQ-71" value="" style="html=1;points=[];perimeter=orthogonalPerimeter;" vertex="1" parent="N7pTtKHYTQ4L6rCnfdCQ-64">
          
          <mxGeometry x="45" y="780" width="10" height="30" as="geometry" />
          
        </mxCell>
        
        <mxCell id="N7pTtKHYTQ4L6rCnfdCQ-78" value="" style="html=1;points=[];perimeter=orthogonalPerimeter;" vertex="1" parent="N7pTtKHYTQ4L6rCnfdCQ-64">
          
          <mxGeometry x="45" y="840" width="10" height="30" as="geometry" />
          
        </mxCell>
        
        <mxCell id="N7pTtKHYTQ4L6rCnfdCQ-81" value="" style="html=1;points=[];perimeter=orthogonalPerimeter;" vertex="1" parent="N7pTtKHYTQ4L6rCnfdCQ-64">
          
          <mxGeometry x="45" y="900" width="10" height="30" as="geometry" />
          
        </mxCell>
        
        <mxCell id="N7pTtKHYTQ4L6rCnfdCQ-83" value="" style="html=1;points=[];perimeter=orthogonalPerimeter;" vertex="1" parent="N7pTtKHYTQ4L6rCnfdCQ-64">
          
          <mxGeometry x="45" y="960" width="10" height="30" as="geometry" />
          
        </mxCell>
        
        <mxCell id="N7pTtKHYTQ4L6rCnfdCQ-66" value="refresh()" style="html=1;verticalAlign=bottom;endArrow=block;dashed=1;entryX=0.1;entryY=-0.002;entryDx=0;entryDy=0;entryPerimeter=0;" edge="1" parent="3bSDKnmku6XSPxeCNkpC-1" source="N7pTtKHYTQ4L6rCnfdCQ-62" target="N7pTtKHYTQ4L6rCnfdCQ-65">
          
          <mxGeometry relative="1" as="geometry">
            
            <mxPoint x="250" y="860" as="sourcePoint" />
            
            <mxPoint x="509.66999999999985" y="860" as="targetPoint" />
            
          </mxGeometry>
          
        </mxCell>
        
        <mxCell id="N7pTtKHYTQ4L6rCnfdCQ-69" value="hasRequest()" style="html=1;verticalAlign=bottom;endArrow=block;dashed=1;entryX=-0.006;entryY=0.011;entryDx=0;entryDy=0;entryPerimeter=0;" edge="1" parent="3bSDKnmku6XSPxeCNkpC-1" source="N7pTtKHYTQ4L6rCnfdCQ-62" target="N7pTtKHYTQ4L6rCnfdCQ-68">
          
          <mxGeometry relative="1" as="geometry">
            
            <mxPoint x="110" y="920" as="sourcePoint" />
            
            <mxPoint x="520" y="920" as="targetPoint" />
            
          </mxGeometry>
          
        </mxCell>
        
        <mxCell id="N7pTtKHYTQ4L6rCnfdCQ-70" value="true" style="html=1;verticalAlign=bottom;endArrow=open;dashed=1;endSize=8;exitX=-0.022;exitY=0.981;exitDx=0;exitDy=0;exitPerimeter=0;" edge="1" parent="3bSDKnmku6XSPxeCNkpC-1" source="N7pTtKHYTQ4L6rCnfdCQ-68" target="N7pTtKHYTQ4L6rCnfdCQ-62">
          
          <mxGeometry relative="1" as="geometry">
            
            <mxPoint x="220" y="949.29" as="targetPoint" />
            
            <mxPoint x="480" y="949.29" as="sourcePoint" />
            
          </mxGeometry>
          
        </mxCell>
        
        <mxCell id="N7pTtKHYTQ4L6rCnfdCQ-72" value="getRequestType()" style="html=1;verticalAlign=bottom;endArrow=block;dashed=1;entryX=-0.006;entryY=0.011;entryDx=0;entryDy=0;entryPerimeter=0;" edge="1" target="N7pTtKHYTQ4L6rCnfdCQ-71" parent="3bSDKnmku6XSPxeCNkpC-1">
          
          <mxGeometry relative="1" as="geometry">
            
            <mxPoint x="95" y="980.3299999999999" as="sourcePoint" />
            
            <mxPoint x="520" y="980" as="targetPoint" />
            
          </mxGeometry>
          
        </mxCell>
        
        <mxCell id="N7pTtKHYTQ4L6rCnfdCQ-73" value="req_type" style="html=1;verticalAlign=bottom;endArrow=open;dashed=1;endSize=8;exitX=-0.022;exitY=0.981;exitDx=0;exitDy=0;exitPerimeter=0;" edge="1" source="N7pTtKHYTQ4L6rCnfdCQ-71" parent="3bSDKnmku6XSPxeCNkpC-1">
          
          <mxGeometry relative="1" as="geometry">
            
            <mxPoint x="95" y="1009.4300000000001" as="targetPoint" />
            
            <mxPoint x="480" y="1009.29" as="sourcePoint" />
            
          </mxGeometry>
          
        </mxCell>
        
        <mxCell id="N7pTtKHYTQ4L6rCnfdCQ-77" value="req_body" style="html=1;verticalAlign=bottom;endArrow=open;dashed=1;endSize=8;exitX=-0.022;exitY=0.981;exitDx=0;exitDy=0;exitPerimeter=0;" edge="1" source="N7pTtKHYTQ4L6rCnfdCQ-78" parent="3bSDKnmku6XSPxeCNkpC-1">
          
          <mxGeometry relative="1" as="geometry">
            
            <mxPoint x="95" y="1069.43" as="targetPoint" />
            
            <mxPoint x="480" y="1069.29" as="sourcePoint" />
            
          </mxGeometry>
          
        </mxCell>
        
        <mxCell id="N7pTtKHYTQ4L6rCnfdCQ-79" value="getRequestBody()" style="html=1;verticalAlign=bottom;endArrow=block;dashed=1;entryX=-0.006;entryY=0.011;entryDx=0;entryDy=0;entryPerimeter=0;" edge="1" target="N7pTtKHYTQ4L6rCnfdCQ-78" parent="3bSDKnmku6XSPxeCNkpC-1">
          
          <mxGeometry relative="1" as="geometry">
            
            <mxPoint x="95" y="1040.33" as="sourcePoint" />
            
            <mxPoint x="520" y="1040" as="targetPoint" />
            
          </mxGeometry>
          
        </mxCell>
        
        <mxCell id="N7pTtKHYTQ4L6rCnfdCQ-80" value="req_path" style="html=1;verticalAlign=bottom;endArrow=open;dashed=1;endSize=8;exitX=-0.022;exitY=0.981;exitDx=0;exitDy=0;exitPerimeter=0;" edge="1" source="N7pTtKHYTQ4L6rCnfdCQ-81" parent="3bSDKnmku6XSPxeCNkpC-1">
          
          <mxGeometry relative="1" as="geometry">
            
            <mxPoint x="95" y="1129.43" as="targetPoint" />
            
            <mxPoint x="480" y="1129.29" as="sourcePoint" />
            
          </mxGeometry>
          
        </mxCell>
        
        <mxCell id="N7pTtKHYTQ4L6rCnfdCQ-82" value="getRequestPath()" style="html=1;verticalAlign=bottom;endArrow=block;dashed=1;entryX=-0.006;entryY=0.011;entryDx=0;entryDy=0;entryPerimeter=0;" edge="1" target="N7pTtKHYTQ4L6rCnfdCQ-81" parent="3bSDKnmku6XSPxeCNkpC-1">
          
          <mxGeometry relative="1" as="geometry">
            
            <mxPoint x="95" y="1100.33" as="sourcePoint" />
            
            <mxPoint x="520" y="1100" as="targetPoint" />
            
          </mxGeometry>
          
        </mxCell>
        
        <mxCell id="N7pTtKHYTQ4L6rCnfdCQ-84" value="sendResponse()" style="html=1;verticalAlign=bottom;endArrow=block;dashed=1;entryX=-0.006;entryY=0.011;entryDx=0;entryDy=0;entryPerimeter=0;" edge="1" target="N7pTtKHYTQ4L6rCnfdCQ-83" parent="3bSDKnmku6XSPxeCNkpC-1">
          
          <mxGeometry relative="1" as="geometry">
            
            <mxPoint x="95" y="1160.33" as="sourcePoint" />
            
            <mxPoint x="520" y="1160" as="targetPoint" />
            
          </mxGeometry>
          
        </mxCell>
        
        <mxCell id="N7pTtKHYTQ4L6rCnfdCQ-86" value="" style="html=1;points=[];perimeter=orthogonalPerimeter;" vertex="1" parent="3bSDKnmku6XSPxeCNkpC-1">
          
          <mxGeometry x="90" y="1239.97" width="10" height="190.03" as="geometry" />
          
        </mxCell>
        
        <mxCell id="N7pTtKHYTQ4L6rCnfdCQ-87" value="handleRequest()" style="edgeStyle=orthogonalEdgeStyle;html=1;align=left;spacingLeft=2;endArrow=block;rounded=0;entryX=1;entryY=0;dashed=1;" edge="1" target="N7pTtKHYTQ4L6rCnfdCQ-86" parent="3bSDKnmku6XSPxeCNkpC-1">
          
          <mxGeometry relative="1" as="geometry">
            
            <mxPoint x="95" y="1220.0044827586207" as="sourcePoint" />
            
            <Array as="points">
              
              <mxPoint x="125" y="1219.97" />
              
              <mxPoint x="125" y="1239.97" />
              
            </Array>
            
          </mxGeometry>
          
        </mxCell>
        
        <mxCell id="N7pTtKHYTQ4L6rCnfdCQ-102" value="" style="html=1;points=[];perimeter=orthogonalPerimeter;" vertex="1" parent="3bSDKnmku6XSPxeCNkpC-1">
          
          <mxGeometry x="95" y="1279.97" width="10" height="140.03" as="geometry" />
          
        </mxCell>
        
        <mxCell id="N7pTtKHYTQ4L6rCnfdCQ-103" value="handleJsonRequest()" style="edgeStyle=orthogonalEdgeStyle;html=1;align=left;spacingLeft=2;endArrow=block;rounded=0;entryX=1;entryY=0;dashed=1;" edge="1" target="N7pTtKHYTQ4L6rCnfdCQ-102" parent="3bSDKnmku6XSPxeCNkpC-1">
          
          <mxGeometry relative="1" as="geometry">
            
            <mxPoint x="100" y="1260.0044827586207" as="sourcePoint" />
            
            <Array as="points">
              
              <mxPoint x="130" y="1259.97" />
              
              <mxPoint x="130" y="1279.97" />
              
            </Array>
            
          </mxGeometry>
          
        </mxCell>
        
        <mxCell id="N7pTtKHYTQ4L6rCnfdCQ-104" value="forwardRequest()" style="edgeStyle=orthogonalEdgeStyle;html=1;align=left;spacingLeft=2;endArrow=block;rounded=0;entryX=1;entryY=0;dashed=1;" edge="1" target="N7pTtKHYTQ4L6rCnfdCQ-105" parent="3bSDKnmku6XSPxeCNkpC-1" source="N7pTtKHYTQ4L6rCnfdCQ-102">
          
          <mxGeometry relative="1" as="geometry">
            
            <mxPoint x="110" y="1300.0044827586207" as="sourcePoint" />
            
            <Array as="points">
              
              <mxPoint x="140" y="1299.97" />
              
              <mxPoint x="140" y="1319.97" />
              
            </Array>
            
          </mxGeometry>
          
        </mxCell>
        
        <mxCell id="N7pTtKHYTQ4L6rCnfdCQ-105" value="" style="html=1;points=[];perimeter=orthogonalPerimeter;" vertex="1" parent="3bSDKnmku6XSPxeCNkpC-1">
          
          <mxGeometry x="100" y="1319.97" width="10" height="90.03" as="geometry" />
          
        </mxCell>
        
        <mxCell id="N7pTtKHYTQ4L6rCnfdCQ-107" value="handleRequest()" style="html=1;verticalAlign=bottom;endArrow=block;dashed=1;entryX=-0.02;entryY=-0.002;entryDx=0;entryDy=0;entryPerimeter=0;" edge="1" parent="3bSDKnmku6XSPxeCNkpC-1" source="N7pTtKHYTQ4L6rCnfdCQ-105" target="N7pTtKHYTQ4L6rCnfdCQ-109">
          
          <mxGeometry relative="1" as="geometry">
            
            <mxPoint x="120" y="1339.97" as="sourcePoint" />
            
            <mxPoint x="700" y="1339.97" as="targetPoint" />
            
          </mxGeometry>
          
        </mxCell>
        
        <mxCell id="N7pTtKHYTQ4L6rCnfdCQ-108" value="Remote" style="shape=umlLifeline;perimeter=lifelinePerimeter;whiteSpace=wrap;html=1;container=1;collapsible=0;recursiveResize=0;outlineConnect=0;" vertex="1" parent="3bSDKnmku6XSPxeCNkpC-1">
          
          <mxGeometry x="670" y="200" width="100" height="1440" as="geometry" />
          
        </mxCell>
        
        <mxCell id="N7pTtKHYTQ4L6rCnfdCQ-109" value="" style="html=1;points=[];perimeter=orthogonalPerimeter;" vertex="1" parent="N7pTtKHYTQ4L6rCnfdCQ-108">
          
          <mxGeometry x="45" y="1139.97" width="10" height="60" as="geometry" />
          
        </mxCell>
        
        <mxCell id="N7pTtKHYTQ4L6rCnfdCQ-110" value="handleCharacteristicUpdate()" style="html=1;verticalAlign=bottom;endArrow=block;dashed=1;entryX=-0.05;entryY=0;entryDx=0;entryDy=0;entryPerimeter=0;" edge="1" parent="3bSDKnmku6XSPxeCNkpC-1" source="N7pTtKHYTQ4L6rCnfdCQ-109" target="N7pTtKHYTQ4L6rCnfdCQ-111">
          
          <mxGeometry width="80" relative="1" as="geometry">
            
            <mxPoint x="730" y="1359.97" as="sourcePoint" />
            
            <mxPoint x="890" y="1360.97" as="targetPoint" />
            
          </mxGeometry>
          
        </mxCell>
        
        <mxCell id="N7pTtKHYTQ4L6rCnfdCQ-114" value="" style="html=1;verticalAlign=bottom;endArrow=open;dashed=1;endSize=8;exitX=0.052;exitY=0.994;exitDx=0;exitDy=0;exitPerimeter=0;" edge="1" parent="3bSDKnmku6XSPxeCNkpC-1" source="N7pTtKHYTQ4L6rCnfdCQ-50" target="N7pTtKHYTQ4L6rCnfdCQ-30">
          
          <mxGeometry relative="1" as="geometry">
            
            <mxPoint x="140" y="740" as="targetPoint" />
            
            <mxPoint x="805" y="739.9999999999999" as="sourcePoint" />
            
          </mxGeometry>
          
        </mxCell>
        
        <mxCell id="N7pTtKHYTQ4L6rCnfdCQ-115" value="" style="html=1;verticalAlign=bottom;endArrow=open;dashed=1;endSize=8;exitX=0.067;exitY=0.989;exitDx=0;exitDy=0;exitPerimeter=0;" edge="1" parent="3bSDKnmku6XSPxeCNkpC-1" source="N7pTtKHYTQ4L6rCnfdCQ-9" target="N7pTtKHYTQ4L6rCnfdCQ-26">
          
          <mxGeometry relative="1" as="geometry">
            
            <mxPoint x="100" y="389.9999999999999" as="targetPoint" />
            
            <mxPoint x="320" y="390" as="sourcePoint" />
            
          </mxGeometry>
          
        </mxCell>
        
        <mxCell id="N7pTtKHYTQ4L6rCnfdCQ-116" value="" style="html=1;verticalAlign=bottom;endArrow=open;dashed=1;endSize=8;exitX=-0.009;exitY=0.982;exitDx=0;exitDy=0;exitPerimeter=0;" edge="1" parent="3bSDKnmku6XSPxeCNkpC-1" source="N7pTtKHYTQ4L6rCnfdCQ-111" target="N7pTtKHYTQ4L6rCnfdCQ-109">
          
          <mxGeometry relative="1" as="geometry">
            
            <mxPoint x="780" y="1389.73" as="targetPoint" />
            
            <mxPoint x="890" y="1389.97" as="sourcePoint" />
            
          </mxGeometry>
          
        </mxCell>
        
        <mxCell id="N7pTtKHYTQ4L6rCnfdCQ-117" value="" style="html=1;verticalAlign=bottom;endArrow=open;dashed=1;endSize=8;exitX=0.024;exitY=1;exitDx=0;exitDy=0;exitPerimeter=0;" edge="1" parent="3bSDKnmku6XSPxeCNkpC-1" source="N7pTtKHYTQ4L6rCnfdCQ-109" target="N7pTtKHYTQ4L6rCnfdCQ-105">
          
          <mxGeometry relative="1" as="geometry">
            
            <mxPoint x="480.09000000000003" y="1399.38" as="targetPoint" />
            
            <mxPoint x="670.0000000000001" y="1399.38" as="sourcePoint" />
            
          </mxGeometry>
          
        </mxCell>
        
        <mxCell id="N7pTtKHYTQ4L6rCnfdCQ-118" value="" style="html=1;verticalAlign=bottom;endArrow=open;dashed=1;endSize=8;exitX=0.067;exitY=0.989;exitDx=0;exitDy=0;exitPerimeter=0;" edge="1" parent="3bSDKnmku6XSPxeCNkpC-1" source="N7pTtKHYTQ4L6rCnfdCQ-83" target="N7pTtKHYTQ4L6rCnfdCQ-62">
          
          <mxGeometry relative="1" as="geometry">
            
            <mxPoint x="85" y="1174.41" as="targetPoint" />
            
            <mxPoint x="500" y="1174" as="sourcePoint" />
            
          </mxGeometry>
          
        </mxCell>
        
        <mxCell id="N7pTtKHYTQ4L6rCnfdCQ-119" value="" style="html=1;verticalAlign=bottom;endArrow=open;dashed=1;endSize=8;exitX=-0.043;exitY=0.97;exitDx=0;exitDy=0;exitPerimeter=0;" edge="1" parent="3bSDKnmku6XSPxeCNkpC-1" source="N7pTtKHYTQ4L6rCnfdCQ-65" target="N7pTtKHYTQ4L6rCnfdCQ-62">
          
          <mxGeometry relative="1" as="geometry">
            
            <mxPoint x="130" y="890" as="targetPoint" />
            
            <mxPoint x="480.34" y="890" as="sourcePoint" />
            
          </mxGeometry>
          
        </mxCell>
        
        <mxCell id="N7pTtKHYTQ4L6rCnfdCQ-121" value="refresh()" style="html=1;verticalAlign=bottom;endArrow=block;entryX=0;entryY=0;dashed=1;" edge="1" target="N7pTtKHYTQ4L6rCnfdCQ-120" parent="3bSDKnmku6XSPxeCNkpC-1" source="N7pTtKHYTQ4L6rCnfdCQ-1">
          
          <mxGeometry relative="1" as="geometry">
            
            <mxPoint x="845" y="1510" as="sourcePoint" />
            
          </mxGeometry>
          
        </mxCell>
        
        <mxCell id="N7pTtKHYTQ4L6rCnfdCQ-122" value="" style="html=1;verticalAlign=bottom;endArrow=open;dashed=1;endSize=8;exitX=0;exitY=0.95;" edge="1" source="N7pTtKHYTQ4L6rCnfdCQ-120" parent="3bSDKnmku6XSPxeCNkpC-1" target="N7pTtKHYTQ4L6rCnfdCQ-1">
          
          <mxGeometry relative="1" as="geometry">
            
            <mxPoint x="845" y="1586" as="targetPoint" />
            
          </mxGeometry>
          
        </mxCell>
        
      </root>
      
    </mxGraphModel>
    
  </diagram>
</mxfile>
